{
.appVersion = "3223";
.formatVersion = 3;
axes = (
{
name = Weight;
tag = wght;
}
);
classes = (
{
automatic = 1;
code = "A Aacute Abreve Acircumflex Adieresis Adotbelow Agrave Amacron Aogonek Aring Aringacute Atilde AE AEacute B C Cacute Ccaron Ccedilla Ccedillaacute Ccircumflex Cdotaccent D Dcaron Dcroat Ddotbelow Dmacronbelow Eth E Eacute Ebreve Ecaron Ecedillabreve Ecircumflex Edieresis Edotaccent Edotbelow Egrave Emacron Emacronacute Emacrongrave Eogonek Etilde F G Gbreve Gcaron Gcircumflex Gcommaaccent Gdotaccent Gmacron H Hbar Hbrevebelow Hcircumflex Hdotbelow I IJ Iacute Ibreve Icircumflex Idieresis Idieresisacute Idotaccent Idotbelow Igrave Imacron Iogonek Itilde J Jacute Jcircumflex K Kcommaaccent L Lacute Lcaron Lcommaaccent Ldot Ldotbelow Lmacronbelow Lslash M Mdotbelow N Nacute Ncaron Ncommaaccent Ndotaccent Ndotbelow Nhookleft Nmacronbelow Ntilde Eng O Oacute Obreve Ocircumflex Odieresis Odotbelow Ograve Ohungarumlaut Omacron Omacronacute Omacrongrave Oogonek Oslash Oslashacute Otilde Otildeacute Otildedieresis OE P Thorn Q R Racute Rcaron Rcommaaccent Rdotbelow Rmacronbelow S Sacute Sacutedotaccent Scaron Scarondotaccent Scedilla Scircumflex Scommaaccent Sdotaccent Sdotbelow Sdotbelowdotaccent Germandbls T Tbar Tcaron Tcedilla Tcommaaccent Tdotbelow Tmacronbelow U Uacute Ubreve Ucircumflex Udieresis Udotbelow Ugrave Uhungarumlaut Umacron Umacrondieresis Uogonek Uring Utilde Utildeacute V W Wacute Wcircumflex Wdieresis Wgrave X Y Yacute Ycircumflex Ydieresis Ydotaccent Ygrave Ymacron Ytilde Z Zacute Zcaron Zdotaccent Zdotbelow Delta Omega";
name = Uppercase;
}
);
customParameters = (
{
name = blueScale;
value = 0.037;
},
{
name = fsType;
value = (
);
},
{
name = "Use Typo Metrics";
value = 1;
},
{
name = "gasp Table";
value = {
"21" = 7;
"65535" = 15;
"9" = 10;
};
},
{
name = panose;
value = (
2,
11,
3,
4,
4,
4,
2,
0,
2,
3
);
},
{
name = unicodeRanges;
value = (
0,
1
);
},
{
name = codePageRanges;
value = (
"1252"
);
},
{

glyphs = (
{
glyphname = A;
kernLeft = A;
kernRight = A;
lastChange = "2023-10-27 12:49:24 +0000";
layers = (
{
anchors = (
{
name = bottom;
pos = (304.589,0);
},
{
name = ogonek;
pos = (525.251,-5.658);
},
{
name = top;
pos = (304.589,660.1);
}
);
hints = (
{
horizontal = 1;
place = (210.289,60.352);
type = Stem;
},
{
place = (10.373,594.09);
type = Stem;
}
);
layerId = "1041D826-7B5A-4F1A-81FD-3B5FB25AF0FC";
shapes = (
{
closed = 1;
nodes = (
(446.982,242.351,l),
(156.538,242.351,l),
(132.963,181.999,l),
(470.557,181.999,l)
);
},
{
closed = 1;
nodes = (
(595.033,0,l),
(336.651,660.1,l),
(272.527,660.1,l),
(14.145,0,l),
(83.927,0,l),
(311.19,581.831,l),
(297.988,581.831,l),
(525.251,0,l)
);
}
);
width = 609.178;
},
{
anchors = (
{
name = bottom;
pos = (332.879,0);
},
{
name = ogonek;
pos = (512.992,-5.658);
},
{
name = top;
pos = (332.879,660.1);
}
);
hints = (
{
horizontal = 1;
place = (187.657,124.476);
type = Stem;
},
{
place = (16.031,638.411);
type = Stem;
}
);
layerId = "3B5F2A21-9AC0-43BD-916B-7DC2040966BF";
shapes = (
{
closed = 1;
nodes = (
(445.096,245.18,l),
(213.118,245.18,l),
(164.082,120.704,l),
(493.189,120.704,l)
);
},
{
closed = 1;
nodes = (
(654.442,0,l),
(396.06,660.1,l),
(272.527,660.1,l),
(14.145,0,l),
(157.481,0,l),
(349.853,492.246,l),
(319.677,492.246,l),
(511.106,0,l)
);
}
);
width = 666.701;
},
{
anchors = (
{
name = bottom;
pos = (285.729,0);
},
{
name = ogonek;
pos = (533.738,-5.658);
},
{
name = top;
pos = (285.729,660.1);
}
);
hints = (
{
horizontal = 1;
place = (225.377,17.917);
type = Stem;
},
{
place = (6.601,564.857);
type = Stem;
}
);
layerId = "2AB56609-6B3E-483D-8034-BAE7113127E2";
shapes = (
{
closed = 1;
nodes = (
(447.925,240.465,l),
(118.818,240.465,l),
(112.217,222.548,l),
(455.469,222.548,l)
);
},
{
closed = 1;
nodes = (
(555.427,0,l),
(297.045,660.1,l),
(272.527,660.1,l),
(14.145,0,l),
(34.891,0,l),
(285.729,641.24,l),
(283.843,641.24,l),
(534.681,0,l)
);
}
);
width = 570.82933;
},
{
anchors = (
{
name = bottom;
pos = (337.594,0);
},
{
name = ogonek;
pos = (511.106,-5.658);
},
{
name = top;
pos = (337.594,660.1);
}
);
hints = (
{
horizontal = 1;
place = (183.885,134.849);
type = Stem;
},
{
place = (16.974,645.955);
type = Stem;
}
);
layerId = "1DB3F64C-B148-42AA-8299-ED68ABA9E6AC";
shapes = (
{
closed = 1;
nodes = (
(445.096,246.123,l),
(222.548,246.123,l),
(169.74,110.331,l),
(496.961,110.331,l)
);
},
{
closed = 1;
nodes = (
(664.815,0,l),
(406.433,660.1,l),
(272.527,660.1,l),
(14.145,0,l),
(169.74,0,l),
(356.454,477.158,l),
(323.449,477.158,l),
(509.22,0,l)
);
}
);
width = 676.28817;
}
);
note = A;
unicode = 65;
},
{
glyphname = AE;
kernLeft = AE;
kernRight = E;
lastChange = "2023-10-27 12:49:24 +0000";
layers = (
{
anchors = (
{
name = bottom;
pos = (519.593,0);
},
{
name = top;
pos = (732.711,660.1);
}
);
hints = (
{
horizontal = 1;
place = (0,60.352);
type = Stem;
},
{
horizontal = 1;
place = (210.289,60.352);
type = Stem;
},
{
horizontal = 1;
place = (303.646,60.352);
type = Stem;
},
{
horizontal = 1;
place = (599.748,60.352);
type = Stem;
},
{
place = (541.282,66.01);
type = Stem;
}
);
layerId = "1041D826-7B5A-4F1A-81FD-3B5FB25AF0FC";
shapes = (
{
closed = 1;
nodes = (
(111.274,0,l),
(274.413,210.289,l),
(541.282,210.289,l),
(541.282,0,l),
(968.461,0,l),
(968.461,60.352,l),
(607.292,60.352,l),
(607.292,303.646,l),
(897.736,303.646,l),
(897.736,363.998,l),
(607.292,363.998,l),
(607.292,599.748,l),
(968.461,599.748,l),
(968.461,660.1,l),
(547.883,660.1,l),
(28.29,0,l)
);
},
{
closed = 1;
nodes = (
(541.282,549.769,l),
(541.282,270.641,l),
(322.506,270.641,l)
);
}
);
width = 1039.186;
},
{
anchors = (
{
name = bottom;
pos = (519.593,0);
},
{
name = top;
pos = (732.711,660.1);
}
);
hints = (
{
horizontal = 1;
place = (0,124.476);
type = Stem;
},
{
horizontal = 1;
place = (188.6,124.476);
type = Stem;
},
{
horizontal = 1;
place = (535.624,124.476);
type = Stem;
},
{
place = (526.194,134.849);
type = Stem;
},
{
horizontal = 1;
place = (270.641,124.476);
type = Stem;
}
);
layerId = "3B5F2A21-9AC0-43BD-916B-7DC2040966BF";
shapes = (
{
closed = 1;
nodes = (
(181.056,0.943,l),
(327.221,188.6,l),
(526.194,188.6,l),
(526.194,0,l),
(983.549,0,l),
(983.549,124.476,l),
(661.043,124.476,l),
(661.043,270.641,l),
(920.368,270.641,l),
(920.368,395.117,l),
(661.043,395.117,l),
(661.043,535.624,l),
(983.549,535.624,l),
(983.549,660.1,l),
(536.567,660.1,l),
(12.259,0.943,l)
);
},
{
closed = 1;
nodes = (
(526.194,446.039,l),
(526.194,313.076,l),
(424.35,313.076,l)
);
}
);
width = 1039.186;
},
{
anchors = (
{
name = bottom;
pos = (519.593,0);
},
{
name = top;
pos = (732.711,660.1);
}
);
hints = (
{
horizontal = 1;
place = (0,17.917);
type = Stem;
},
{
horizontal = 1;
place = (224.434,17.917);
type = Stem;
},
{
horizontal = 1;
place = (325.335,17.917);
type = Stem;
},
{
horizontal = 1;
place = (642.183,17.917);
type = Stem;
},
{
place = (551.655,19.803);
type = Stem;
}
);
layerId = "2AB56609-6B3E-483D-8034-BAE7113127E2";
shapes = (
{
closed = 1;
nodes = (
(65.067,-0.943,l),
(239.522,224.434,l),
(551.655,224.434,l),
(551.655,0,l),
(958.088,0,l),
(958.088,17.917,l),
(571.458,17.917,l),
(571.458,325.335,l),
(882.648,325.335,l),
(882.648,343.252,l),
(571.458,343.252,l),
(571.458,642.183,l),
(958.088,642.183,l),
(958.088,660.1,l),
(555.427,660.1,l),
(38.663,-0.943,l)
);
},
{
closed = 1;
nodes = (
(551.655,618.608,l),
(551.655,242.351,l),
(254.61,242.351,l)
);
}
);
width = 1039.186;
},
{
anchors = (
{
name = bottom;
pos = (519.593,0);
},
{
name = top;
pos = (732.711,660.1);
}
);
hints = (
{
horizontal = 1;
place = (0,134.849);
type = Stem;
},
{
horizontal = 1;
place = (184.828,134.849);
type = Stem;
},
{
horizontal = 1;
place = (264.983,134.849);
type = Stem;
},
{
horizontal = 1;
place = (525.251,134.849);
type = Stem;
},
{
place = (523.365,146.165);
type = Stem;
}
);
layerId = "1DB3F64C-B148-42AA-8299-ED68ABA9E6AC";
shapes = (
{
closed = 1;
nodes = (
(192.372,0.943,l),
(335.708,184.828,l),
(523.365,184.828,l),
(523.365,0,l),
(986.378,0,l),
(986.378,134.849,l),
(670.473,134.849,l),
(670.473,264.983,l),
(924.14,264.983,l),
(924.14,400.775,l),
(670.473,400.775,l),
(670.473,525.251,l),
(986.378,525.251,l),
(986.378,660.1,l),
(534.681,660.1,l),
(9.43,0.943,l)
);
},
{
closed = 1;
nodes = (
(523.365,429.065,l),
(523.365,320.62,l),
(441.324,320.62,l)
);
}
);
width = 1039.186;
}
);
note = AE;
unicode = 198;
},
{
glyphname = B;
kernLeft = H;
kernRight = B;
lastChange = "2023-10-27 12:49:24 +0000";
layers = (
{
anchors = (
{
name = bottom;
pos = (280.071,0);
},
{
name = top;
pos = (280.071,660.1);
}
);
hints = (
{
horizontal = 1;
place = (0,60.352);
type = Stem;
},
{
horizontal = 1;
place = (350.796,60.352);
type = Stem;
},
{
horizontal = 1;
place = (599.748,60.352);
type = Stem;
},
{
place = (81.098,66.01);
type = Stem;
},
{
place = (467.728,66.01);
type = Stem;
},
{
place = (385.687,66.01);
type = Stem;
}
);
layerId = "1041D826-7B5A-4F1A-81FD-3B5FB25AF0FC";
shapes = (
{
closed = 1;
nodes = (
(528.08,332.879,o),
(430.008,387.573,o),
(347.967,387.573,cs),
(140.507,387.573,l),
(140.507,372.485,l),
(291.387,372.485,ls),
(415.863,372.485,o),
(446.039,430.951,o),
(446.039,505.448,cs),
(446.039,591.261,o),
(376.257,660.1,o),
(291.387,660.1,cs),
(75.44,660.1,l),
(75.44,0,l),
(311.19,0,ls),
(438.495,0,o),
(528.08,84.87,o),
(528.08,205.574,cs)
);
},
{
closed = 1;
nodes = (
(141.45,350.796,l),
(314.019,350.796,ls),
(419.635,350.796,o),
(462.07,277.242,o),
(462.07,205.574,cs),
(462.07,122.59,o),
(412.091,60.352,o),
(292.33,60.352,cs),
(141.45,60.352,l)
);
},
{
closed = 1;
nodes = (
(141.45,599.748,l),
(291.387,599.748,ls),
(338.537,599.748,o),
(380.029,558.256,o),
(380.029,505.448,cs),
(380.029,453.583,o),
(362.112,411.148,o),
(293.273,411.148,cs),
(141.45,411.148,l)
);
}
);
width = 556.37;
},
{
anchors = (
{
name = bottom;
pos = (294.216,0);
},
{
name = top;
pos = (294.216,660.1);
}
);
hints = (
{
horizontal = 1;
place = (0,124.476);
type = Stem;
},
{
horizontal = 1;
place = (313.076,125.419);
type = Stem;
},
{
horizontal = 1;
place = (535.624,124.476);
type = Stem;
},
{
place = (66.953,134.849);
type = Stem;
},
{
place = (412.091,134.849);
type = Stem;
},
{
place = (338.537,134.849);
type = Stem;
}
);
layerId = "3B5F2A21-9AC0-43BD-916B-7DC2040966BF";
shapes = (
{
closed = 1;
nodes = (
(555.427,344.195,o),
(430.008,387.573,o),
(369.656,387.573,cs),
(209.346,387.573,l),
(209.346,363.055,l),
(331.936,363.055,ls),
(430.951,363.055,o),
(481.873,402.661,o),
(481.873,486.588,cs),
(481.873,581.831,o),
(403.604,660.1,o),
(306.475,660.1,cs),
(75.44,660.1,l),
(75.44,0,l),
(329.107,0,ls),
(458.298,0,o),
(555.427,99.015,o),
(555.427,218.776,cs)
);
},
{
closed = 1;
nodes = (
(210.289,313.076,l),
(301.76,313.076,ls),
(375.314,313.076,o),
(420.578,272.527,o),
(420.578,218.776,cs),
(420.578,154.652,o),
(375.314,124.476,o),
(301.76,124.476,cs),
(210.289,124.476,l)
);
},
{
closed = 1;
nodes = (
(210.289,535.624,l),
(297.045,535.624,ls),
(327.221,535.624,o),
(347.024,515.821,o),
(347.024,486.588,cs),
(347.024,458.298,o),
(328.164,438.495,o),
(297.988,438.495,cs),
(210.289,438.495,l)
);
}
);
width = 583.717;
},
{
anchors = (
{
name = bottom;
pos = (270.641,0);
},
{
name = top;
pos = (270.641,660.1);
}
);
hints = (
{
horizontal = 1;
place = (0,17.917);
type = Stem;
},
{
horizontal = 1;
place = (376.257,16.974);
type = Stem;
},
{
horizontal = 1;
place = (642.183,17.917);
type = Stem;
},
{
place = (90.528,19.803);
type = Stem;
},
{
place = (504.505,19.803);
type = Stem;
},
{
place = (416.806,19.803);
type = Stem;
}
);
layerId = "2AB56609-6B3E-483D-8034-BAE7113127E2";
shapes = (
{
closed = 1;
nodes = (
(510.163,325.335,o),
(430.008,387.573,o),
(333.822,387.573,cs),
(94.3,387.573,l),
(94.3,379.086,l),
(264.04,379.086,ls),
(405.49,379.086,o),
(422.464,449.811,o),
(422.464,517.707,cs),
(422.464,597.862,o),
(358.34,660.1,o),
(281.014,660.1,cs),
(75.44,660.1,l),
(75.44,0,l),
(298.931,0,ls),
(425.293,0,o),
(510.163,75.44,o),
(510.163,197.087,cs)
);
},
{
closed = 1;
nodes = (
(95.243,376.257,l),
(322.506,376.257,ls),
(448.868,376.257,o),
(489.417,280.071,o),
(489.417,197.087,cs),
(489.417,100.901,o),
(436.609,17.917,o),
(285.729,17.917,cs),
(95.243,17.917,l)
);
},
{
closed = 1;
nodes = (
(95.243,642.183,l),
(287.615,642.183,ls),
(346.081,642.183,o),
(401.718,586.546,o),
(401.718,517.707,cs),
(401.718,450.754,o),
(384.744,393.231,o),
(290.444,393.231,cs),
(95.243,393.231,l)
);
}
);
width = 538.13867;
},
{
anchors = (
{
name = bottom;
pos = (297.045,0);
},
{
name = top;
pos = (297.045,660.1);
}
);
hints = (
{
horizontal = 1;
place = (0,134.849);
type = Stem;
},
{
horizontal = 1;
place = (306.475,136.735);
type = Stem;
},
{
horizontal = 1;
place = (525.251,134.849);
type = Stem;
},
{
place = (65.067,146.165);
type = Stem;
},
{
place = (402.661,146.165);
type = Stem;
},
{
place = (330.993,146.165);
type = Stem;
}
);
layerId = "1DB3F64C-B148-42AA-8299-ED68ABA9E6AC";
shapes = (
{
closed = 1;
nodes = (
(560.142,346.081,o),
(430.008,387.573,o),
(373.428,387.573,cs),
(220.662,387.573,l),
(220.662,361.169,l),
(338.537,361.169,ls),
(433.78,361.169,o),
(487.531,397.946,o),
(487.531,483.759,cs),
(487.531,579.945,o),
(408.319,660.1,o),
(309.304,660.1,cs),
(75.44,660.1,l),
(75.44,0,l),
(331.936,0,ls),
(462.07,0,o),
(560.142,101.844,o),
(560.142,220.662,cs)
);
},
{
closed = 1;
nodes = (
(221.605,306.475,l),
(299.874,306.475,ls),
(367.77,306.475,o),
(413.977,271.584,o),
(413.977,220.662,cs),
(413.977,160.31,o),
(369.656,134.849,o),
(303.646,134.849,cs),
(221.605,134.849,l)
);
},
{
closed = 1;
nodes = (
(221.605,525.251,l),
(297.988,525.251,ls),
(325.335,525.251,o),
(341.366,509.22,o),
(341.366,483.759,cs),
(341.366,459.241,o),
(322.506,443.21,o),
(298.931,443.21,cs),
(221.605,443.21,l)
);
}
);
width = 588.27483;
}
);
note = B;
unicode = 66;
},
{
glyphname = C;
kernLeft = C;
kernRight = C;
lastChange = "2023-10-27 12:49:24 +0000";
layers = (
{
anchors = (
{
name = bottom;
pos = (356.454,-1.886);
},
{
name = top;
pos = (346.081,660.1);
}
);
hints = (
{
horizontal = 1;
place = (-1.886,60.352);
type = Stem;
},
{
horizontal = 1;
place = (600.691,60.352);
type = Stem;
},
{
place = (33.948,66.01);
type = Stem;
}
);
layerId = "1041D826-7B5A-4F1A-81FD-3B5FB25AF0FC";
shapes = (
{
closed = 1;
nodes = (
(458.298,-1.886,o),
(548.826,49.979,o),
(606.349,130.134,c),
(552.598,165.968,l),
(503.562,98.072,o),
(435.666,58.466,o),
(356.454,58.466,cs),
(222.548,58.466,o),
(108.445,178.227,o),
(108.445,330.05,cs),
(108.445,468.671,o),
(210.289,600.691,o),
(356.454,600.691,cs),
(430.008,600.691,o),
(494.132,566.743,o),
(543.168,506.391,c),
(594.09,545.054,l),
(536.567,616.722,o),
(451.697,661.043,o),
(356.454,661.043,cs),
(165.968,661.043,o),
(42.435,496.961,o),
(42.435,330.05,cs),
(42.435,147.108,o),
(182.942,-1.886,o),
(356.454,-1.886,cs)
);
}
);
width = 634.639;
},
{
anchors = (
{
name = bottom;
pos = (354.568,-1.886);
},
{
name = top;
pos = (343.252,660.1);
}
);
hints = (
{
horizontal = 1;
place = (-1.886,124.476);
type = Stem;
},
{
horizontal = 1;
place = (536.567,124.476);
type = Stem;
},
{
place = (35.834,134.849);
type = Stem;
}
);
layerId = "3B5F2A21-9AC0-43BD-916B-7DC2040966BF";
shapes = (
{
closed = 1;
nodes = (
(476.215,-1.886,o),
(584.66,69.782,o),
(633.696,162.196,c),
(524.308,233.864,l),
(482.816,160.31,o),
(429.065,122.59,o),
(360.226,122.59,cs),
(263.097,122.59,o),
(177.284,213.118,o),
(177.284,330.05,cs),
(177.284,437.552,o),
(254.61,536.567,o),
(360.226,536.567,cs),
(425.293,536.567,o),
(476.215,503.562,o),
(518.65,436.609,c),
(623.323,514.878,l),
(573.344,597.862,o),
(468.671,661.043,o),
(360.226,661.043,cs),
(165.968,661.043,o),
(42.435,495.075,o),
(42.435,330.05,cs),
(42.435,148.051,o),
(183.885,-1.886,o),
(360.226,-1.886,cs)
);
}
);
width = 661.986;
},
{
anchors = (
{
name = bottom;
pos = (357.397,-1.886);
},
{
name = top;
pos = (345.138,660.1);
}
);
hints = (
{
horizontal = 1;
place = (-1.886,17.917);
type = Stem;
},
{
horizontal = 1;
place = (643.126,17.917);
type = Stem;
},
{
place = (33.005,19.803);
type = Stem;
}
);
layerId = "2AB56609-6B3E-483D-8034-BAE7113127E2";
shapes = (
{
closed = 1;
nodes = (
(446.039,-1.886,o),
(525.251,36.777,o),
(588.432,108.445,c),
(571.458,120.704,l),
(517.707,56.58,o),
(440.381,16.031,o),
(353.625,16.031,cs),
(195.201,16.031,o),
(62.238,154.652,o),
(62.238,330.05,cs),
(62.238,489.417,o),
(181.056,643.126,o),
(353.625,643.126,cs),
(432.837,643.126,o),
(506.391,609.178,o),
(559.199,552.598,c),
(574.287,564.857,l),
(512.049,628.981,o),
(440.381,661.043,o),
(353.625,661.043,cs),
(165.968,661.043,o),
(42.435,497.904,o),
(42.435,330.05,cs),
(42.435,146.165,o),
(181.999,-1.886,o),
(353.625,-1.886,cs)
);
}
);
width = 616.40767;
},
{
anchors = (
{
name = bottom;
pos = (354.568,-1.886);
},
{
name = top;
pos = (346.081,660.1);
}
);
hints = (
{
horizontal = 1;
place = (-1.886,134.849);
type = Stem;
},
{
horizontal = 1;
place = (526.194,134.849);
type = Stem;
},
{
place = (35.834,146.165);
type = Stem;
}
);
layerId = "1DB3F64C-B148-42AA-8299-ED68ABA9E6AC";
shapes = (
{
closed = 1;
nodes = (
(479.044,-1.886,o),
(590.318,73.554,o),
(638.411,167.854,c),
(519.593,245.18,l),
(479.044,170.683,o),
(428.122,132.963,o),
(361.169,132.963,cs),
(269.698,132.963,o),
(188.6,218.776,o),
(188.6,330.05,cs),
(188.6,432.837,o),
(262.154,526.194,o),
(361.169,526.194,cs),
(424.35,526.194,o),
(473.386,493.189,o),
(514.878,425.293,c),
(628.038,510.163,l),
(579.945,595.033,o),
(471.5,661.043,o),
(361.169,661.043,cs),
(165.968,661.043,o),
(42.435,495.075,o),
(42.435,330.05,cs),
(42.435,148.051,o),
(183.885,-1.886,o),
(361.169,-1.886,cs)
);
}
);
width = 666.54383;
}
);
note = C;
unicode = 67;
},
{
glyphname = D;
kernLeft = H;
kernRight = D;
lastChange = "2023-10-27 12:49:24 +0000";
layers = (
{
anchors = (
{
name = bottom;
pos = (296.102,0);
},
{
name = top;
pos = (296.102,660.1);
}
);
hints = (
{
horizontal = 1;
place = (0,60.352);
type = Stem;
},
{
horizontal = 1;
place = (599.748,60.352);
type = Stem;
},
{
place = (81.098,66.01);
type = Stem;
},
{
place = (479.987,66.01);
type = Stem;
}
);
layerId = "1041D826-7B5A-4F1A-81FD-3B5FB25AF0FC";
shapes = (
{
closed = 1;
nodes = (
(228.206,0,ls),
(451.697,0,o),
(559.199,140.507,o),
(559.199,330.05,cs),
(559.199,521.479,o),
(458.298,660.1,o),
(223.491,660.1,cs),
(75.44,660.1,l),
(75.44,0,l)
);
},
{
closed = 1;
nodes = (
(141.45,599.748,l),
(223.491,599.748,ls),
(415.863,599.748,o),
(493.189,496.018,o),
(493.189,330.05,cs),
(493.189,166.911,o),
(410.205,60.352,o),
(228.206,60.352,cs),
(141.45,60.352,l)
);
}
);
width = 601.634;
},
{
anchors = (
{
name = bottom;
pos = (314.019,0);
},
{
name = top;
pos = (314.019,660.1);
}
);
hints = (
{
horizontal = 1;
place = (0,124.476);
type = Stem;
},
{
horizontal = 1;
place = (535.624,124.476);
type = Stem;
},
{
place = (96.186,134.849);
type = Stem;
},
{
place = (452.64,134.849);
type = Stem;
}
);
layerId = "3B5F2A21-9AC0-43BD-916B-7DC2040966BF";
shapes = (
{
closed = 1;
nodes = (
(261.211,0,ls),
(484.702,0,o),
(595.033,144.279,o),
(595.033,330.05,cs),
(595.033,516.764,o),
(492.246,660.1,o),
(256.496,660.1,cs),
(75.44,660.1,l),
(75.44,0,l)
);
},
{
closed = 1;
nodes = (
(210.289,535.624,l),
(256.496,535.624,ls),
(403.604,535.624,o),
(460.184,462.07,o),
(460.184,330.05,cs),
(460.184,200.859,o),
(398.889,124.476,o),
(261.211,124.476,cs),
(210.289,124.476,l)
);
}
);
width = 637.468;
},
{
anchors = (
{
name = bottom;
pos = (283.843,0);
},
{
name = top;
pos = (283.843,660.1);
}
);
hints = (
{
horizontal = 1;
place = (0,17.917);
type = Stem;
},
{
horizontal = 1;
place = (642.183,17.917);
type = Stem;
},
{
place = (70.725,19.803);
type = Stem;
},
{
place = (497.904,19.803);
type = Stem;
}
);
layerId = "2AB56609-6B3E-483D-8034-BAE7113127E2";
shapes = (
{
closed = 1;
nodes = (
(206.517,0,ls),
(430.008,0,o),
(535.624,137.678,o),
(535.624,330.05,cs),
(535.624,524.308,o),
(435.666,660.1,o),
(201.802,660.1,cs),
(75.44,660.1,l),
(75.44,0,l)
);
},
{
closed = 1;
nodes = (
(95.243,642.183,l),
(201.802,642.183,ls),
(424.35,642.183,o),
(514.878,518.65,o),
(514.878,330.05,cs),
(514.878,144.279,o),
(417.749,17.917,o),
(206.517,17.917,cs),
(95.243,17.917,l)
);
}
);
width = 577.74467;
},
{
anchors = (
{
name = bottom;
pos = (316.848,0);
},
{
name = top;
pos = (316.848,660.1);
}
);
hints = (
{
horizontal = 1;
place = (0,134.849);
type = Stem;
},
{
horizontal = 1;
place = (525.251,134.849);
type = Stem;
},
{
place = (99.015,146.165);
type = Stem;
},
{
place = (447.925,146.165);
type = Stem;
}
);
layerId = "1DB3F64C-B148-42AA-8299-ED68ABA9E6AC";
shapes = (
{
closed = 1;
nodes = (
(266.869,0,ls),
(490.36,0,o),
(600.691,145.222,o),
(600.691,330.05,cs),
(600.691,515.821,o),
(497.904,660.1,o),
(262.154,660.1,cs),
(75.44,660.1,l),
(75.44,0,l)
);
},
{
closed = 1;
nodes = (
(221.605,525.251,l),
(262.154,525.251,ls),
(401.718,525.251,o),
(454.526,456.412,o),
(454.526,330.05,cs),
(454.526,206.517,o),
(397.003,134.849,o),
(266.869,134.849,cs),
(221.605,134.849,l)
);
}
);
width = 643.44033;
}
);
note = D;
unicode = 68;
},
{
glyphname = Eth;
kernLeft = Eth;
kernRight = D;
lastChange = "2023-10-27 12:49:24 +0000";
layers = (
{
hints = (
{
horizontal = 1;
place = (0,60.352);
type = Stem;
},
{
horizontal = 1;
place = (278.185,58.466);
type = Stem;
},
{
horizontal = 1;
place = (599.748,60.352);
type = Stem;
},
{
place = (165.968,66.01);
type = Stem;
},
{
place = (564.857,66.01);
type = Stem;
}
);
layerId = "1041D826-7B5A-4F1A-81FD-3B5FB25AF0FC";
shapes = (
{
closed = 1;
nodes = (
(299.874,0,ls),
(523.365,0,o),
(630.867,140.507,o),
(630.867,330.05,cs),
(630.867,521.479,o),
(529.966,660.1,o),
(295.159,660.1,cs),
(165.968,660.1,l),
(165.968,336.651,l),
(18.86,336.651,l),
(18.86,278.185,l),
(165.968,278.185,l),
(165.968,0,l)
);
},
{
closed = 1;
nodes = (
(231.978,278.185,l),
(363.998,278.185,l),
(363.998,336.651,l),
(231.978,336.651,l),
(231.978,599.748,l),
(295.159,599.748,ls),
(487.531,599.748,o),
(564.857,496.018,o),
(564.857,330.05,cs),
(564.857,166.911,o),
(481.873,60.352,o),
(299.874,60.352,cs),
(231.978,60.352,l)
);
}
);
width = 679.903;
},
{
hints = (
{
horizontal = 1;
place = (0,124.476);
type = Stem;
},
{
horizontal = 1;
place = (245.18,122.59);
type = Stem;
},
{
horizontal = 1;
place = (535.624,124.476);
type = Stem;
},
{
place = (149.937,134.849);
type = Stem;
},
{
place = (506.391,134.849);
type = Stem;
}
);
layerId = "3B5F2A21-9AC0-43BD-916B-7DC2040966BF";
shapes = (
{
closed = 1;
nodes = (
(308.361,0,ls),
(531.852,0,o),
(641.24,144.279,o),
(641.24,330.05,cs),
(641.24,516.764,o),
(538.453,660.1,o),
(303.646,660.1,cs),
(149.937,660.1,l),
(149.937,367.77,l),
(57.523,367.77,l),
(57.523,245.18,l),
(149.937,245.18,l),
(149.937,0,l)
);
},
{
closed = 1;
nodes = (
(284.786,245.18,l),
(400.775,245.18,l),
(400.775,367.77,l),
(284.786,367.77,l),
(284.786,535.624,l),
(303.646,535.624,ls),
(450.754,535.624,o),
(506.391,462.07,o),
(506.391,330.05,cs),
(506.391,200.859,o),
(446.039,124.476,o),
(308.361,124.476,cs),
(284.786,124.476,l)
);
}
);
width = 679.903;
},
{
hints = (
{
horizontal = 1;
place = (0,17.917);
type = Stem;
},
{
horizontal = 1;
place = (299.874,16.031);
type = Stem;
},
{
horizontal = 1;
place = (642.183,17.917);
type = Stem;
},
{
place = (176.341,19.803);
type = Stem;
},
{
place = (603.52,19.803);
type = Stem;
}
);
layerId = "2AB56609-6B3E-483D-8034-BAE7113127E2";
shapes = (
{
closed = 1;
nodes = (
(294.216,0,ls),
(517.707,0,o),
(624.266,137.678,o),
(624.266,330.05,cs),
(624.266,524.308,o),
(524.308,660.1,o),
(289.501,660.1,cs),
(176.341,660.1,l),
(176.341,315.905,l),
(-6.601,315.905,l),
(-6.601,299.874,l),
(176.341,299.874,l),
(176.341,0,l)
);
},
{
closed = 1;
nodes = (
(197.087,299.874,l),
(339.48,299.874,l),
(339.48,315.905,l),
(197.087,315.905,l),
(197.087,642.183,l),
(289.501,642.183,ls),
(512.049,642.183,o),
(603.52,518.65,o),
(603.52,330.05,cs),
(603.52,144.279,o),
(505.448,17.917,o),
(294.216,17.917,cs),
(197.087,17.917,l)
);
}
);
width = 679.903;
},
{
hints = (
{
horizontal = 1;
place = (0,134.849);
type = Stem;
},
{
horizontal = 1;
place = (239.522,132.963);
type = Stem;
},
{
horizontal = 1;
place = (525.251,134.849);
type = Stem;
},
{
place = (147.108,146.165);
type = Stem;
},
{
place = (496.961,146.165);
type = Stem;
}
);
layerId = "1DB3F64C-B148-42AA-8299-ED68ABA9E6AC";
shapes = (
{
closed = 1;
nodes = (
(310.247,0,ls),
(533.738,0,o),
(643.126,145.222,o),
(643.126,330.05,cs),
(643.126,515.821,o),
(540.339,660.1,o),
(305.532,660.1,cs),
(147.108,660.1,l),
(147.108,373.428,l),
(64.124,373.428,l),
(64.124,239.522,l),
(147.108,239.522,l),
(147.108,0,l)
);
},
{
closed = 1;
nodes = (
(293.273,239.522,l),
(407.376,239.522,l),
(407.376,373.428,l),
(293.273,373.428,l),
(293.273,525.251,l),
(305.532,525.251,ls),
(445.096,525.251,o),
(496.961,456.412,o),
(496.961,330.05,cs),
(496.961,206.517,o),
(440.381,134.849,o),
(310.247,134.849,cs),
(293.273,134.849,l)
);
}
);
width = 679.903;
}
);
note = Eth;
unicode = 208;
},
{
glyphname = E;
kernLeft = H;
kernRight = E;
lastChange = "2023-10-27 12:49:24 +0000";
layers = (
{
anchors = (
{
name = bottom;
pos = (291.387,0);
},
{
name = ogonek;
pos = (382.858,-5.658);
},
{
name = top;
pos = (291.387,660.1);
}
);
hints = (
{
horizontal = 1;
place = (0,60.352);
type = Stem;
},
{
horizontal = 1;
place = (303.646,60.352);
type = Stem;
},
{
horizontal = 1;
place = (599.748,60.352);
type = Stem;
},
{
place = (81.098,66.01);
type = Stem;
}
);
layerId = "1041D826-7B5A-4F1A-81FD-3B5FB25AF0FC";
shapes = (
{
closed = 1;
nodes = (
(502.619,0,l),
(502.619,60.352,l),
(141.45,60.352,l),
(141.45,303.646,l),
(431.894,303.646,l),
(431.894,363.998,l),
(141.45,363.998,l),
(141.45,599.748,l),
(501.676,599.748,l),
(501.676,660.1,l),
(75.44,660.1,l),
(75.44,0,l)
);
}
);
width = 531.852;
},
{
anchors = (
{
name = bottom;
pos = (319.677,0);
},
{
name = ogonek;
pos = (397.946,-5.658);
},
{
name = top;
pos = (292.33,660.1);
}
);
hints = (
{
horizontal = 1;
place = (0,124.476);
type = Stem;
},
{
horizontal = 1;
place = (270.641,124.476);
type = Stem;
},
{
horizontal = 1;
place = (535.624,124.476);
type = Stem;
},
{
place = (66.01,134.849);
type = Stem;
}
);
layerId = "3B5F2A21-9AC0-43BD-916B-7DC2040966BF";
shapes = (
{
closed = 1;
nodes = (
(532.795,0,l),
(532.795,124.476,l),
(210.289,124.476,l),
(210.289,270.641,l),
(469.614,270.641,l),
(469.614,395.117,l),
(210.289,395.117,l),
(210.289,535.624,l),
(531.852,535.624,l),
(531.852,660.1,l),
(75.44,660.1,l),
(75.44,0,l)
);
}
);
width = 575.23;
},
{
anchors = (
{
name = bottom;
pos = (272.527,0);
},
{
name = ogonek;
pos = (372.485,-5.658);
},
{
name = top;
pos = (290.444,660.1);
}
);
hints = (
{
horizontal = 1;
place = (0,17.917);
type = Stem;
},
{
horizontal = 1;
place = (325.335,17.917);
type = Stem;
},
{
horizontal = 1;
place = (642.183,17.917);
type = Stem;
},
{
place = (91.471,19.803);
type = Stem;
}
);
layerId = "2AB56609-6B3E-483D-8034-BAE7113127E2";
shapes = (
{
closed = 1;
nodes = (
(482.816,0,l),
(482.816,17.917,l),
(95.243,17.917,l),
(95.243,325.335,l),
(406.433,325.335,l),
(406.433,343.252,l),
(95.243,343.252,l),
(95.243,642.183,l),
(481.873,642.183,l),
(481.873,660.1,l),
(75.44,660.1,l),
(75.44,0,l)
);
}
);
width = 502.93333;
},
{
anchors = (
{
name = bottom;
pos = (324.392,0);
},
{
name = ogonek;
pos = (400.775,-5.658);
},
{
name = top;
pos = (292.33,660.1);
}
);
hints = (
{
horizontal = 1;
place = (0,134.849);
type = Stem;
},
{
horizontal = 1;
place = (264.983,134.849);
type = Stem;
},
{
horizontal = 1;
place = (525.251,134.849);
type = Stem;
},
{
place = (63.181,146.165);
type = Stem;
}
);
layerId = "1DB3F64C-B148-42AA-8299-ED68ABA9E6AC";
shapes = (
{
closed = 1;
nodes = (
(537.51,0,l),
(537.51,134.849,l),
(221.605,134.849,l),
(221.605,264.983,l),
(476.215,264.983,l),
(476.215,400.775,l),
(221.605,400.775,l),
(221.605,525.251,l),
(536.567,525.251,l),
(536.567,660.1,l),
(75.44,660.1,l),
(75.44,0,l)
);
}
);
width = 582.45967;
}
);
note = E;
unicode = 69;
},
{
glyphname = F;
kernLeft = H;
kernRight = F;
lastChange = "2023-10-27 12:49:24 +0000";
layers = (
{
anchors = (
{
name = bottom;
pos = (246.123,0);
},
{
name = top;
pos = (246.123,660.1);
}
);
hints = (
{
horizontal = 1;
place = (303.646,60.352);
type = Stem;
},
{
horizontal = 1;
place = (600.691,60.352);
type = Stem;
},
{
place = (80.155,66.01);
type = Stem;
}
);
layerId = "1041D826-7B5A-4F1A-81FD-3B5FB25AF0FC";
shapes = (
{
closed = 1;
nodes = (
(141.45,0,l),
(141.45,303.646,l),
(413.034,303.646,l),
(413.034,363.998,l),
(141.45,363.998,l),
(141.45,600.691,l),
(483.759,600.691,l),
(483.759,661.043,l),
(75.44,661.043,l),
(75.44,0,l)
);
}
);
width = 497.904;
},
{
anchors = (
{
name = bottom;
pos = (276.299,0);
},
{
name = top;
pos = (276.299,660.1);
}
);
hints = (
{
horizontal = 1;
place = (271.584,124.476);
type = Stem;
},
{
horizontal = 1;
place = (536.567,124.476);
type = Stem;
},
{
place = (64.124,134.849);
type = Stem;
}
);
layerId = "3B5F2A21-9AC0-43BD-916B-7DC2040966BF";
shapes = (
{
closed = 1;
nodes = (
(210.289,0,l),
(210.289,271.584,l),
(452.64,271.584,l),
(452.64,396.06,l),
(210.289,396.06,l),
(210.289,536.567,l),
(515.821,536.567,l),
(515.821,661.043,l),
(75.44,661.043,l),
(75.44,0,l)
);
}
);
width = 542.225;
},
{
anchors = (
{
name = bottom;
pos = (226.32,0);
},
{
name = top;
pos = (226.32,660.1);
}
);
hints = (
{
horizontal = 1;
place = (325.335,17.917);
type = Stem;
},
{
horizontal = 1;
place = (643.126,17.917);
type = Stem;
},
{
place = (90.528,19.803);
type = Stem;
}
);
layerId = "2AB56609-6B3E-483D-8034-BAE7113127E2";
shapes = (
{
closed = 1;
nodes = (
(95.243,0,l),
(95.243,325.335,l),
(386.63,325.335,l),
(386.63,342.309,l),
(95.243,342.309,l),
(95.243,643.126,l),
(462.07,643.126,l),
(462.07,661.043,l),
(75.44,661.043,l),
(75.44,0,l)
);
}
);
width = 468.35667;
},
{
anchors = (
{
name = bottom;
pos = (281.014,0);
},
{
name = top;
pos = (281.014,660.1);
}
);
hints = (
{
horizontal = 1;
place = (265.926,134.849);
type = Stem;
},
{
horizontal = 1;
place = (526.194,134.849);
type = Stem;
},
{
place = (61.295,146.165);
type = Stem;
}
);
layerId = "1DB3F64C-B148-42AA-8299-ED68ABA9E6AC";
shapes = (
{
closed = 1;
nodes = (
(221.605,0,l),
(221.605,265.926,l),
(459.241,265.926,l),
(459.241,401.718,l),
(221.605,401.718,l),
(221.605,526.194,l),
(521.479,526.194,l),
(521.479,661.043,l),
(75.44,661.043,l),
(75.44,0,l)
);
}
);
width = 549.61183;
}
);
note = F;
unicode = 70;
},
{
glyphname = G;
kernLeft = C;
kernRight = G;
lastChange = "2023-10-27 12:49:24 +0000";
layers = (
{
anchors = (
{
name = bottom;
pos = (376.257,0);
},
{
name = top;
pos = (376.257,660.1);
}
);
associatedMasterId = "3B5F2A21-9AC0-43BD-916B-7DC2040966BF";
hints = (
{
horizontal = 1;
place = (-1.886,124.476);
type = Stem;
},
{
horizontal = 1;
place = (241.408,124.476);
type = Stem;
},
{
horizontal = 1;
place = (536.567,124.476);
type = Stem;
},
{
place = (26.404,134.849);
type = Stem;
},
{
place = (471.5,133.906);
type = Stem;
}
);
layerId = "01852D24-F79C-49D1-B1DA-4B332825E01E";
name = "26 juil. 23  14:57";
shapes = (
{
closed = 1;
nodes = (
(439.438,-1.886,o),
(545.054,48.093,o),
(605.406,141.45,c),
(605.406,365.884,l),
(312.133,365.884,l),
(312.133,241.408,l),
(471.5,241.408,l),
(471.5,181.056,l),
(433.78,139.564,o),
(391.345,122.59,o),
(344.195,122.59,cs),
(247.066,122.59,o),
(161.253,213.118,o),
(161.253,330.05,cs),
(161.253,446.982,o),
(247.066,536.567,o),
(344.195,536.567,cs),
(400.775,536.567,o),
(446.982,511.106,o),
(490.36,457.355,c),
(584.66,545.997,l),
(533.738,612.007,o),
(439.438,661.043,o),
(344.195,661.043,cs),
(167.854,661.043,o),
(26.404,512.049,o),
(26.404,330.05,cs),
(26.404,148.051,o),
(167.854,-1.886,o),
(344.195,-1.886,cs)
);
}
);
width = 752.514;
},
{
anchors = (
{
name = bottom;
pos = (383.801,0);
},
{
name = top;
pos = (376.257,660.1);
}
);
hints = (
{
horizontal = 1;
place = (-1.886,124.476);
type = Stem;
},
{
horizontal = 1;
place = (241.408,124.476);
type = Stem;
},
{
horizontal = 1;
place = (536.567,124.476);
type = Stem;
},
{
place = (26.404,134.849);
type = Stem;
},
{
place = (471.5,133.906);
type = Stem;
},
{
horizontal = 1;
place = (0,124.476);
type = Stem;
},
{
horizontal = 1;
place = (537.51,124.476);
type = Stem;
},
{
place = (42.435,134.849);
type = Stem;
},
{
place = (575.23,134.849);
type = Stem;
}
);
layerId = "3B5F2A21-9AC0-43BD-916B-7DC2040966BF";
name = Bold;
shapes = (
{
closed = 1;
nodes = (
(480.93,-5.658,o),
(590.318,46.207,o),
(654.442,141.45,c),
(654.442,365.884,l),
(358.34,365.884,l),
(358.34,241.408,l),
(517.707,241.408,l),
(517.707,180.113,l),
(479.044,140.507,o),
(427.179,118.818,o),
(376.257,118.818,cs),
(267.812,118.818,o),
(177.284,210.289,o),
(177.284,330.05,cs),
(177.284,448.868,o),
(266.869,541.282,o),
(376.257,541.282,cs),
(440.381,541.282,o),
(498.847,508.277,o),
(535.624,457.355,c),
(632.753,546.94,l),
(571.458,620.494,o),
(479.044,665.758,o),
(376.257,665.758,cs),
(187.657,665.758,o),
(42.435,514.878,o),
(42.435,330.05,cs),
(42.435,143.336,o),
(191.429,-5.658,o),
(376.257,-5.658,cs)
);
}
);
width = 682.732;
},
{
anchors = (
{
name = bottom;
pos = (364.941,0);
},
{
name = top;
pos = (364.941,660.1);
}
);
associatedMasterId = "1041D826-7B5A-4F1A-81FD-3B5FB25AF0FC";
hints = (
{
horizontal = 1;
place = (-1.886,60.352);
type = Stem;
},
{
horizontal = 1;
place = (270.641,60.352);
type = Stem;
},
{
horizontal = 1;
place = (600.691,60.352);
type = Stem;
},
{
place = (33.948,66.01);
type = Stem;
},
{
place = (531.852,66.01);
type = Stem;
}
);
layerId = "3738992D-5FD7-4959-8258-A57854DC9D16";
name = "26 juil. 23  14:57";
shapes = (
{
closed = 1;
nodes = (
(440.381,-1.886,o),
(534.681,40.549,o),
(597.862,130.134,c),
(597.862,330.993,l),
(353.625,330.993,l),
(353.625,270.641,l),
(531.852,270.641,l),
(531.852,148.994,l),
(480.93,85.813,o),
(415.863,58.466,o),
(347.967,58.466,cs),
(214.061,58.466,o),
(99.958,178.227,o),
(99.958,330.05,cs),
(99.958,480.93,o),
(214.061,600.691,o),
(347.967,600.691,cs),
(411.148,600.691,o),
(466.785,575.23,o),
(513.935,529.966,c),
(560.142,574.287,l),
(504.505,628.038,o),
(430.008,661.043,o),
(347.967,661.043,cs),
(174.455,661.043,o),
(33.948,512.992,o),
(33.948,330.05,cs),
(33.948,146.165,o),
(174.455,-1.886,o),
(347.967,-1.886,cs)
);
}
);
width = 729.882;
},
{
anchors = (
{
name = bottom;
pos = (373.428,0);
},
{
name = top;
pos = (373.428,660.1);
}
);
hints = (
{
horizontal = 1;
place = (-1.886,60.352);
type = Stem;
},
{
horizontal = 1;
place = (270.641,60.352);
type = Stem;
},
{
horizontal = 1;
place = (600.691,60.352);
type = Stem;
},
{
place = (33.948,66.01);
type = Stem;
},
{
place = (531.852,66.01);
type = Stem;
},
{
horizontal = 1;
place = (0,60.352);
type = Stem;
},
{
horizontal = 1;
place = (601.634,60.352);
type = Stem;
},
{
place = (33.948,66.01);
type = Stem;
},
{
place = (630.867,66.01);
type = Stem;
}
);
layerId = "1041D826-7B5A-4F1A-81FD-3B5FB25AF0FC";
name = Regular;
shapes = (
{
closed = 1;
nodes = (
(473.386,-5.658,o),
(577.116,41.492,o),
(641.24,128.248,c),
(641.24,330.993,l),
(396.06,330.993,l),
(396.06,270.641,l),
(574.287,270.641,l),
(574.287,147.108,l),
(522.422,87.699,o),
(446.039,54.694,o),
(373.428,54.694,cs),
(229.149,54.694,o),
(108.445,175.398,o),
(108.445,330.05,cs),
(108.445,483.759,o),
(226.32,605.406,o),
(373.428,605.406,cs),
(437.552,605.406,o),
(492.246,581.831,o),
(538.453,543.168,c),
(587.489,587.489,l),
(529.966,636.525,o),
(454.526,665.758,o),
(373.428,665.758,cs),
(187.657,665.758,o),
(42.435,514.878,o),
(42.435,330.05,cs),
(42.435,142.393,o),
(190.486,-5.658,o),
(373.428,-5.658,cs)
);
}
);
width = 669.53;
},
{
anchors = (
{
name = bottom;
pos = (366.827,0);
},
{
name = top;
pos = (371.542,660.1);
}
);
hints = (
{
horizontal = 1;
place = (-1.886,17.917);
type = Stem;
},
{
horizontal = 1;
place = (290.444,17.917);
type = Stem;
},
{
horizontal = 1;
place = (643.126,17.917);
type = Stem;
},
{
place = (38.663,19.803);
type = Stem;
},
{
place = (572.401,20.746);
type = Stem;
},
{
horizontal = 1;
place = (0,17.917);
type = Stem;
},
{
horizontal = 1;
place = (644.069,17.917);
type = Stem;
},
{
place = (28.29,19.803);
type = Stem;
},
{
place = (667.644,19.803);
type = Stem;
}
);
layerId = "2AB56609-6B3E-483D-8034-BAE7113127E2";
name = Regular;
shapes = (
{
closed = 1;
nodes = (
(468.671,-5.658,o),
(568.629,38.663,o),
(632.753,119.761,c),
(632.753,307.418,l),
(421.521,307.418,l),
(421.521,290.444,l),
(612.007,290.444,l),
(612.007,125.419,l),
(551.655,52.808,o),
(458.298,12.259,o),
(371.542,12.259,cs),
(203.688,12.259,o),
(62.238,151.823,o),
(62.238,330.05,cs),
(62.238,507.334,o),
(198.973,647.841,o),
(371.542,647.841,cs),
(435.666,647.841,o),
(487.531,630.867,o),
(540.339,600.691,c),
(557.313,614.836,l),
(502.619,646.898,o),
(438.495,665.758,o),
(371.542,665.758,cs),
(187.657,665.758,o),
(42.435,514.878,o),
(42.435,330.05,cs),
(42.435,141.45,o),
(189.543,-5.658,o),
(371.542,-5.658,cs)
);
}
);
width = 660.72867;
},
{
anchors = (
{
name = bottom;
pos = (385.687,0);
},
{
name = top;
pos = (377.2,660.1);
}
);
hints = (
{
horizontal = 1;
place = (-1.886,134.849);
type = Stem;
},
{
horizontal = 1;
place = (236.693,134.849);
type = Stem;
},
{
horizontal = 1;
place = (526.194,134.849);
type = Stem;
},
{
place = (25.461,146.165);
type = Stem;
},
{
place = (461.127,145.222);
type = Stem;
},
{
horizontal = 1;
place = (0,134.849);
type = Stem;
},
{
horizontal = 1;
place = (527.137,134.849);
type = Stem;
},
{
place = (43.378,146.165);
type = Stem;
},
{
place = (565.8,146.165);
type = Stem;
}
);
layerId = "1DB3F64C-B148-42AA-8299-ED68ABA9E6AC";
name = Regular;
shapes = (
{
closed = 1;
nodes = (
(481.873,-5.658,o),
(592.204,47.15,o),
(656.328,143.336,c),
(656.328,371.542,l),
(351.739,371.542,l),
(351.739,236.693,l),
(508.277,236.693,l),
(508.277,185.771,l),
(471.5,148.994,o),
(424.35,129.191,o),
(377.2,129.191,cs),
(274.413,129.191,o),
(188.6,215.947,o),
(188.6,330.05,cs),
(188.6,443.21,o),
(273.47,530.909,o),
(377.2,530.909,cs),
(441.324,530.909,o),
(499.79,496.018,o),
(535.624,443.21,c),
(640.297,540.339,l),
(578.059,617.665,o),
(482.816,665.758,o),
(377.2,665.758,cs),
(187.657,665.758,o),
(42.435,514.878,o),
(42.435,330.05,cs),
(42.435,143.336,o),
(191.429,-5.658,o),
(377.2,-5.658,cs)
);
}
);
width = 684.93233;
}
);
note = G;
unicode = 71;
},
{
glyphname = H;
kernLeft = H;
kernRight = H;
lastChange = "2023-10-27 12:49:24 +0000";
layers = (
{
anchors = (
{
name = bottom;
pos = (333.822,0);
},
{
name = top;
pos = (333.822,660.1);
}
);
hints = (
{
horizontal = 1;
place = (303.646,60.352);
type = Stem;
},
{
place = (81.098,66.01);
type = Stem;
},
{
place = (532.795,66.01);
type = Stem;
}
);
layerId = "1041D826-7B5A-4F1A-81FD-3B5FB25AF0FC";
shapes = (
{
closed = 1;
nodes = (
(141.45,0,l),
(141.45,303.646,l),
(527.137,303.646,l),
(527.137,0,l),
(593.147,0,l),
(593.147,660.1,l),
(527.137,660.1,l),
(527.137,363.998,l),
(141.45,363.998,l),
(141.45,660.1,l),
(75.44,660.1,l),
(75.44,0,l)
);
}
);
width = 668.587;
},
{
anchors = (
{
name = bottom;
pos = (344.195,0);
},
{
name = top;
pos = (344.195,660.1);
}
);
hints = (
{
horizontal = 1;
place = (270.641,124.476);
type = Stem;
},
{
place = (70.725,134.849);
type = Stem;
},
{
place = (474.329,134.849);
type = Stem;
}
);
layerId = "3B5F2A21-9AC0-43BD-916B-7DC2040966BF";
shapes = (
{
closed = 1;
nodes = (
(210.289,0,l),
(210.289,270.641,l),
(479.044,270.641,l),
(479.044,0,l),
(613.893,0,l),
(613.893,660.1,l),
(479.044,660.1,l),
(479.044,395.117,l),
(210.289,395.117,l),
(210.289,660.1,l),
(75.44,660.1,l),
(75.44,0,l)
);
}
);
width = 689.333;
},
{
anchors = (
{
name = bottom;
pos = (327.221,0);
},
{
name = top;
pos = (327.221,660.1);
}
);
hints = (
{
horizontal = 1;
place = (325.335,17.917);
type = Stem;
},
{
place = (87.699,19.803);
type = Stem;
},
{
place = (571.458,19.803);
type = Stem;
}
);
layerId = "2AB56609-6B3E-483D-8034-BAE7113127E2";
shapes = (
{
closed = 1;
nodes = (
(95.243,0,l),
(95.243,325.335,l),
(559.199,325.335,l),
(559.199,0,l),
(579.002,0,l),
(579.002,660.1,l),
(559.199,660.1,l),
(559.199,343.252,l),
(95.243,343.252,l),
(95.243,660.1,l),
(75.44,660.1,l),
(75.44,0,l)
);
}
);
width = 654.75633;
},
{
anchors = (
{
name = bottom;
pos = (346.081,0);
},
{
name = top;
pos = (346.081,660.1);
}
);
hints = (
{
horizontal = 1;
place = (264.983,134.849);
type = Stem;
},
{
place = (68.839,146.165);
type = Stem;
},
{
place = (464.899,146.165);
type = Stem;
}
);
layerId = "1DB3F64C-B148-42AA-8299-ED68ABA9E6AC";
shapes = (
{
closed = 1;
nodes = (
(221.605,0,l),
(221.605,264.983,l),
(471.5,264.983,l),
(471.5,0,l),
(617.665,0,l),
(617.665,660.1,l),
(471.5,660.1,l),
(471.5,400.775,l),
(221.605,400.775,l),
(221.605,660.1,l),
(75.44,660.1,l),
(75.44,0,l)
);
}
);
width = 692.79067;
}
);
note = H;
unicode = 72;
},
{
glyphname = I;
kernLeft = I;
kernRight = I;
lastChange = "2023-10-27 12:49:24 +0000";
layers = (
{
anchors = (
{
name = bottom;
pos = (108.445,0);
},
{
name = ogonek;
pos = (75.44,0);
},
{
name = top;
pos = (108.445,660.1);
}
);
hints = (
{
horizontal = 1;
place = (0,660.1);
type = Stem;
},
{
place = (81.098,66.01);
type = Stem;
}
);
layerId = "1041D826-7B5A-4F1A-81FD-3B5FB25AF0FC";
shapes = (
{
closed = 1;
nodes = (
(141.45,0,l),
(141.45,660.1,l),
(75.44,660.1,l),
(75.44,0,l)
);
}
);
width = 216.89;
},
{
anchors = (
{
name = bottom;
pos = (142.393,0);
},
{
name = ogonek;
pos = (75.44,0);
},
{
name = top;
pos = (142.393,660.1);
}
);
hints = (
{
horizontal = 1;
place = (0,660.1);
type = Stem;
},
{
place = (74.497,134.849);
type = Stem;
}
);
layerId = "3B5F2A21-9AC0-43BD-916B-7DC2040966BF";
shapes = (
{
closed = 1;
nodes = (
(210.289,0,l),
(210.289,660.1,l),
(75.44,660.1,l),
(75.44,0,l)
);
}
);
width = 285.729;
},
{
anchors = (
{
name = bottom;
pos = (85.813,0);
},
{
name = ogonek;
pos = (75.44,0);
},
{
name = top;
pos = (85.813,660.1);
}
);
hints = (
{
horizontal = 1;
place = (0,660.1);
type = Stem;
},
{
place = (85.813,19.803);
type = Stem;
}
);
layerId = "2AB56609-6B3E-483D-8034-BAE7113127E2";
shapes = (
{
closed = 1;
nodes = (
(95.243,0,l),
(95.243,660.1,l),
(75.44,660.1,l),
(75.44,0,l)
);
}
);
width = 170.99733;
},
{
anchors = (
{
name = bottom;
pos = (148.051,0);
},
{
name = ogonek;
pos = (75.44,0);
},
{
name = top;
pos = (148.051,660.1);
}
);
hints = (
{
horizontal = 1;
place = (0,660.1);
type = Stem;
},
{
place = (73.554,146.165);
type = Stem;
}
);
layerId = "1DB3F64C-B148-42AA-8299-ED68ABA9E6AC";
shapes = (
{
closed = 1;
nodes = (
(221.605,0,l),
(221.605,660.1,l),
(75.44,660.1,l),
(75.44,0,l)
);
}
);
width = 297.20217;
}
);
note = I;
unicode = 73;
},
{
glyphname = J;
kernLeft = J;
kernRight = J;
lastChange = "2023-10-27 12:49:24 +0000";
layers = (
{
anchors = (
{
name = bottom;
pos = (217.833,0);
},
{
name = top;
pos = (336.809,660.1);
}
);
hints = (
{
horizontal = 1;
place = (-1.886,60.352);
type = Stem;
},
{
place = (31.119,66.01);
type = Stem;
},
{
place = (304.589,66.953);
type = Stem;
}
);
layerId = "1041D826-7B5A-4F1A-81FD-3B5FB25AF0FC";
shapes = (
{
closed = 1;
nodes = (
(296.102,-1.886,o),
(371.542,55.637,o),
(371.542,168.797,cs),
(371.542,661.043,l),
(304.589,661.043,l),
(304.589,168.797,ls),
(304.589,87.699,o),
(257.439,58.466,o),
(201.802,58.466,cs),
(145.222,58.466,o),
(97.129,106.559,o),
(97.129,168.797,c),
(31.119,168.797,l),
(31.119,74.497,o),
(107.502,-1.886,o),
(201.802,-1.886,cs)
);
}
);
width = 436.609;
},
{
anchors = (
{
name = bottom;
pos = (246.123,0);
},
{
name = top;
pos = (352.84,660.1);
}
);
hints = (
{
horizontal = 1;
place = (-1.886,124.476);
type = Stem;
},
{
place = (40.059,134.198);
type = Stem;
},
{
place = (283.843,135.792);
type = Stem;
}
);
layerId = "3B5F2A21-9AC0-43BD-916B-7DC2040966BF";
shapes = (
{
closed = 1;
nodes = (
(335.708,-1.886,o),
(420.578,82.984,o),
(419.635,185.771,c),
(419.635,661.043,l),
(283.843,661.043,l),
(283.843,196.144,ls),
(284.786,140.507,o),
(258.382,122.59,o),
(230.092,122.59,cs),
(192.372,122.59,o),
(158.424,167.854,o),
(181.999,221.605,c),
(43.378,221.605,l),
(20.746,102.787,o),
(112.217,-1.886,o),
(230.092,-1.886,cs)
);
}
);
width = 493.189;
},
{
anchors = (
{
name = bottom;
pos = (198.973,0);
},
{
name = top;
pos = (328.322,660.1);
}
);
hints = (
{
horizontal = 1;
place = (-1.886,17.917);
type = Stem;
},
{
place = (25.461,20.746);
type = Stem;
},
{
place = (318.734,20.746);
type = Stem;
}
);
layerId = "2AB56609-6B3E-483D-8034-BAE7113127E2";
shapes = (
{
closed = 1;
nodes = (
(269.698,-1.886,o),
(338.537,37.72,o),
(339.48,157.481,cs),
(339.48,661.043,l),
(318.734,661.043,l),
(318.734,150.88,ls),
(317.791,52.808,o),
(256.496,16.031,o),
(182.942,16.031,cs),
(114.103,16.031,o),
(56.58,66.01,o),
(40.549,133.906,c),
(22.632,133.906,l),
(37.72,55.637,o),
(104.673,-1.886,o),
(182.942,-1.886,cs)
);
}
);
width = 398.889;
},
{
anchors = (
{
name = bottom;
pos = (250.838,0);
},
{
name = top;
pos = (353.783,660.1);
}
);
hints = (
{
horizontal = 1;
place = (-1.886,134.849);
type = Stem;
},
{
place = (41.492,145.222);
type = Stem;
},
{
place = (280.071,147.108);
type = Stem;
}
);
layerId = "1DB3F64C-B148-42AA-8299-ED68ABA9E6AC";
shapes = (
{
closed = 1;
nodes = (
(342.309,-1.886,o),
(429.065,87.699,o),
(428.122,188.6,cs),
(428.122,661.043,l),
(280.071,661.043,l),
(280.071,200.859,ls),
(281.957,148.994,o),
(258.382,132.963,o),
(234.807,132.963,cs),
(199.916,132.963,o),
(168.797,178.227,o),
(196.144,230.092,c),
(45.264,230.092,l),
(18.86,107.502,o),
(113.16,-1.886,o),
(234.807,-1.886,cs)
);
}
);
width = 502.619;
}
);
note = J;
unicode = 74;
},
{
glyphname = K;
kernLeft = H;
kernRight = K;
lastChange = "2023-10-27 12:49:24 +0000";
layers = (
{
anchors = (
{
name = bottom;
pos = (282.9,0);
},
{
name = top;
pos = (282.9,660.1);
}
);
hints = (
{
horizontal = 1;
place = (0,661.986);
type = Stem;
},
{
place = (82.041,66.01);
type = Stem;
}
);
layerId = "1041D826-7B5A-4F1A-81FD-3B5FB25AF0FC";
shapes = (
{
closed = 1;
nodes = (
(141.45,0,l),
(141.45,296.102,l),
(130.134,266.869,l),
(213.118,344.195,l),
(198.03,347.967,l),
(463.013,0,l),
(546.94,0,l),
(248.952,387.573,l),
(246.123,374.371,l),
(552.598,660.1,l),
(458.298,660.1,l),
(127.305,351.739,l),
(141.45,333.822,l),
(141.45,660.1,l),
(75.44,660.1,l),
(75.44,0,l)
);
}
);
width = 562.028;
},
{
anchors = (
{
name = bottom;
pos = (335.708,0);
},
{
name = top;
pos = (335.708,660.1);
}
);
hints = (
{
horizontal = 1;
place = (0,661.986);
type = Stem;
},
{
place = (71.668,134.849);
type = Stem;
}
);
layerId = "3B5F2A21-9AC0-43BD-916B-7DC2040966BF";
shapes = (
{
closed = 1;
nodes = (
(210.289,0,l),
(210.289,265.926,l),
(193.315,225.377,l),
(272.527,298.931,l),
(249.895,307.418,l),
(485.645,0,l),
(652.556,0,l),
(349.853,391.345,l),
(350.796,372.485,l),
(657.271,660.1,l),
(467.728,660.1,l),
(179.17,388.516,l),
(210.289,388.516,l),
(210.289,660.1,l),
(75.44,660.1,l),
(75.44,0,l)
);
}
);
width = 666.701;
},
{
anchors = (
{
name = bottom;
pos = (248.009,0);
},
{
name = top;
pos = (248.009,660.1);
}
);
hints = (
{
horizontal = 1;
place = (0,661.986);
type = Stem;
},
{
place = (88.642,19.803);
type = Stem;
}
);
layerId = "2AB56609-6B3E-483D-8034-BAE7113127E2";
shapes = (
{
closed = 1;
nodes = (
(95.243,0,l),
(95.243,315.905,l),
(87.699,294.216,l),
(173.512,374.371,l),
(163.139,375.314,l),
(447.925,0,l),
(476.215,0,l),
(181.999,384.744,l),
(176.341,375.314,l),
(482.816,660.1,l),
(451.697,660.1,l),
(92.414,327.221,l),
(95.243,297.045,l),
(95.243,660.1,l),
(75.44,660.1,l),
(75.44,0,l)
);
}
);
width = 492.246;
},
{
anchors = (
{
name = bottom;
pos = (344.195,0);
},
{
name = top;
pos = (344.195,660.1);
}
);
hints = (
{
horizontal = 1;
place = (0,661.986);
type = Stem;
},
{
place = (69.782,146.165);
type = Stem;
}
);
layerId = "1DB3F64C-B148-42AA-8299-ED68ABA9E6AC";
shapes = (
{
closed = 1;
nodes = (
(221.605,0,l),
(221.605,261.211,l),
(203.688,218.776,l),
(282.9,291.387,l),
(258.382,300.817,l),
(489.417,0,l),
(670.473,0,l),
(366.827,392.288,l),
(368.713,372.485,l),
(675.188,660.1,l),
(469.614,660.1,l),
(187.657,395.117,l),
(221.605,397.946,l),
(221.605,660.1,l),
(75.44,660.1,l),
(75.44,0,l)
);
}
);
width = 684.1465;
}
);
note = K;
unicode = 75;
},
{
glyphname = L;
kernLeft = H;
kernRight = L;
lastChange = "2023-10-27 12:49:24 +0000";
layers = (
{
anchors = (
{
name = bottom;
pos = (263.097,0);
},
{
name = top;
pos = (234.807,660.1);
}
);
hints = (
{
horizontal = 1;
place = (0,60.352);
type = Stem;
},
{
place = (81.098,66.01);
type = Stem;
}
);
layerId = "1041D826-7B5A-4F1A-81FD-3B5FB25AF0FC";
shapes = (
{
closed = 1;
nodes = (
(446.982,0,l),
(446.982,60.352,l),
(141.45,60.352,l),
(141.45,660.1,l),
(75.44,660.1,l),
(75.44,0,l)
);
}
);
width = 465.842;
},
{
anchors = (
{
name = bottom;
pos = (275.356,0);
},
{
name = top;
pos = (256.496,660.1);
}
);
hints = (
{
horizontal = 1;
place = (0,124.476);
type = Stem;
},
{
place = (78.269,134.849);
type = Stem;
}
);
layerId = "3B5F2A21-9AC0-43BD-916B-7DC2040966BF";
shapes = (
{
closed = 1;
nodes = (
(490.36,0,l),
(490.36,124.476,l),
(210.289,124.476,l),
(210.289,660.1,l),
(75.44,660.1,l),
(75.44,0,l)
);
}
);
width = 509.22;
},
{
anchors = (
{
name = bottom;
pos = (254.61,0);
},
{
name = top;
pos = (220.662,660.1);
}
);
hints = (
{
horizontal = 1;
place = (0,17.917);
type = Stem;
},
{
place = (82.984,19.803);
type = Stem;
}
);
layerId = "2AB56609-6B3E-483D-8034-BAE7113127E2";
shapes = (
{
closed = 1;
nodes = (
(417.749,0,l),
(417.749,17.917,l),
(95.243,17.917,l),
(95.243,660.1,l),
(75.44,660.1,l),
(75.44,0,l)
);
}
);
width = 436.92333;
},
{
anchors = (
{
name = bottom;
pos = (277.242,0);
},
{
name = top;
pos = (260.268,660.1);
}
);
hints = (
{
horizontal = 1;
place = (0,134.849);
type = Stem;
},
{
place = (78.269,146.165);
type = Stem;
}
);
layerId = "1DB3F64C-B148-42AA-8299-ED68ABA9E6AC";
shapes = (
{
closed = 1;
nodes = (
(497.904,0,l),
(497.904,134.849,l),
(221.605,134.849,l),
(221.605,660.1,l),
(75.44,660.1,l),
(75.44,0,l)
);
}
);
width = 516.44967;
}
);
note = L;
unicode = 76;
},
{
glyphname = Lslash;
kernLeft = Lslash;
kernRight = L;
lastChange = "2023-10-27 12:49:24 +0000";
layers = (
{
hints = (
{
horizontal = 1;
place = (0,60.352);
type = Stem;
},
{
place = (110.331,66.01);
type = Stem;
}
);
layerId = "1041D826-7B5A-4F1A-81FD-3B5FB25AF0FC";
shapes = (
{
closed = 1;
nodes = (
(324.392,416.806,l),
(324.392,483.759,l),
(17.917,347.967,l),
(17.917,281.957,l)
);
},
{
ref = L;
}
);
width = 461.127;
},
{
hints = (
{
horizontal = 1;
place = (0,124.476);
type = Stem;
},
{
place = (107.502,134.849);
type = Stem;
}
);
layerId = "3B5F2A21-9AC0-43BD-916B-7DC2040966BF";
shapes = (
{
closed = 1;
nodes = (
(360.226,385.687,l),
(362.112,523.365,l),
(11.316,368.713,l),
(11.316,231.035,l)
);
},
{
ref = L;
}
);
width = 504.505;
},
{
hints = (
{
horizontal = 1;
place = (0,17.917);
type = Stem;
},
{
place = (112.217,19.803);
type = Stem;
}
);
layerId = "2AB56609-6B3E-483D-8034-BAE7113127E2";
shapes = (
{
closed = 1;
nodes = (
(300.817,437.552,l),
(298.931,457.355,l),
(22.632,333.822,l),
(22.632,315.905,l)
);
},
{
alignment = -1;
ref = L;
}
);
width = 432.20833;
},
{
hints = (
{
horizontal = 1;
place = (0,134.849);
type = Stem;
},
{
place = (107.502,146.165);
type = Stem;
}
);
layerId = "1DB3F64C-B148-42AA-8299-ED68ABA9E6AC";
shapes = (
{
closed = 1;
nodes = (
(365.884,380.972,l),
(368.713,529.966,l),
(10.373,372.485,l),
(10.373,222.548,l)
);
},
{
alignment = -1;
ref = L;
}
);
width = 511.73467;
}
);
note = Lslash;
unicode = 321;
},
{
glyphname = M;
kernLeft = H;
kernRight = H;
lastChange = "2023-10-27 12:49:24 +0000";
layers = (
{
anchors = (
{
name = bottom;
pos = (399.832,0);
},
{
name = top;
pos = (399.832,660.1);
}
);
hints = (
{
horizontal = 1;
place = (0,660.1);
type = Stem;
},
{
place = (81.098,66.01);
type = Stem;
},
{
place = (664.815,66.01);
type = Stem;
}
);
layerId = "1041D826-7B5A-4F1A-81FD-3B5FB25AF0FC";
shapes = (
{
closed = 1;
nodes = (
(659.157,532.795,l),
(659.157,0,l),
(725.167,0,l),
(725.167,660.1,l),
(651.613,660.1,l),
(399.832,187.657,l),
(149.937,660.1,l),
(75.44,660.1,l),
(75.44,0,l),
(141.45,0,l),
(141.45,534.681,l),
(399.832,45.264,l)
);
}
);
width = 800.607;
},
{
anchors = (
{
name = bottom;
pos = (402.661,0);
},
{
name = top;
pos = (402.661,660.1);
}
);
hints = (
{
horizontal = 1;
place = (-3.772,663.872);
type = Stem;
},
{
place = (78.269,134.849);
type = Stem;
},
{
place = (598.805,134.849);
type = Stem;
}
);
layerId = "3B5F2A21-9AC0-43BD-916B-7DC2040966BF";
shapes = (
{
closed = 1;
nodes = (
(595.976,405.49,l),
(595.976,0,l),
(730.825,0,l),
(730.825,660.1,l),
(578.059,660.1,l),
(402.661,302.703,l),
(228.206,660.1,l),
(75.44,660.1,l),
(75.44,0,l),
(210.289,0,l),
(210.289,406.433,l),
(402.661,11.316,l)
);
}
);
width = 806.265;
},
{
anchors = (
{
name = bottom;
pos = (397.946,0);
},
{
name = top;
pos = (397.946,660.1);
}
);
hints = (
{
horizontal = 1;
place = (2.829,657.271);
type = Stem;
},
{
place = (82.984,19.803);
type = Stem;
},
{
place = (709.136,19.803);
type = Stem;
}
);
layerId = "2AB56609-6B3E-483D-8034-BAE7113127E2";
shapes = (
{
closed = 1;
nodes = (
(701.592,617.665,l),
(701.592,0,l),
(721.395,0,l),
(721.395,660.1,l),
(700.649,660.1,l),
(397.946,111.274,l),
(98.072,660.1,l),
(75.44,660.1,l),
(75.44,0,l),
(95.243,0,l),
(95.243,620.494,l),
(397.946,67.896,l)
);
}
);
width = 796.835;
},
{
anchors = (
{
name = bottom;
pos = (403.604,0);
},
{
name = top;
pos = (403.604,660.1);
}
);
hints = (
{
horizontal = 1;
place = (-4.715,664.815);
type = Stem;
},
{
place = (78.269,146.165);
type = Stem;
},
{
place = (587.489,146.165);
type = Stem;
}
);
layerId = "1DB3F64C-B148-42AA-8299-ED68ABA9E6AC";
shapes = (
{
closed = 1;
nodes = (
(585.603,384.744,l),
(585.603,0,l),
(731.768,0,l),
(731.768,660.1,l),
(565.8,660.1,l),
(403.604,321.563,l),
(241.408,660.1,l),
(75.44,660.1,l),
(75.44,0,l),
(221.605,0,l),
(221.605,384.744,l),
(403.604,5.658,l)
);
}
);
width = 807.208;
}
);
note = M;
unicode = 77;
},
{
glyphname = N;
kernLeft = H;
kernRight = H;
lastChange = "2023-10-27 12:49:24 +0000";
layers = (
{
anchors = (
{
name = bottom;
pos = (324.392,0);
},
{
name = top;
pos = (324.392,660.1);
}
);
hints = (
{
horizontal = 1;
place = (0,660.1);
type = Stem;
},
{
place = (81.098,66.01);
type = Stem;
},
{
place = (535.624,66.953);
type = Stem;
}
);
layerId = "1041D826-7B5A-4F1A-81FD-3B5FB25AF0FC";
shapes = (
{
closed = 1;
nodes = (
(141.45,0,l),
(141.45,552.598,l),
(134.849,551.655,l),
(512.992,0,l),
(574.287,0,l),
(574.287,660.1,l),
(507.334,660.1,l),
(507.334,97.129,l),
(517.707,106.559,l),
(137.678,660.1,l),
(75.44,660.1,l),
(75.44,0,l)
);
}
);
width = 649.727;
},
{
anchors = (
{
name = bottom;
pos = (346.081,0);
},
{
name = top;
pos = (346.081,660.1);
}
);
hints = (
{
horizontal = 1;
place = (0,660.1);
type = Stem;
},
{
place = (70.725,134.849);
type = Stem;
},
{
place = (477.158,134.849);
type = Stem;
}
);
layerId = "3B5F2A21-9AC0-43BD-916B-7DC2040966BF";
shapes = (
{
closed = 1;
nodes = (
(210.289,0,l),
(210.289,430.008,l),
(198.03,430.008,l),
(494.132,0,l),
(616.722,0,l),
(616.722,660.1,l),
(481.873,660.1,l),
(481.873,207.46,l),
(499.79,219.719,l),
(196.144,660.1,l),
(75.44,660.1,l),
(75.44,0,l)
);
}
);
width = 692.162;
},
{
anchors = (
{
name = bottom;
pos = (310.247,0);
},
{
name = top;
pos = (310.247,660.1);
}
);
hints = (
{
horizontal = 1;
place = (0,660.1);
type = Stem;
},
{
place = (87.699,19.803);
type = Stem;
},
{
place = (574.287,21.689);
type = Stem;
}
);
layerId = "2AB56609-6B3E-483D-8034-BAE7113127E2";
shapes = (
{
closed = 1;
nodes = (
(95.243,0,l),
(95.243,634.639,l),
(92.414,632.753,l),
(525.251,0,l),
(545.997,0,l),
(545.997,660.1,l),
(524.308,660.1,l),
(524.308,23.575,l),
(529.966,31.119,l),
(99.015,660.1,l),
(75.44,660.1,l),
(75.44,0,l)
);
}
);
width = 621.437;
},
{
anchors = (
{
name = bottom;
pos = (349.853,0);
},
{
name = top;
pos = (349.853,660.1);
}
);
hints = (
{
horizontal = 1;
place = (0,660.1);
type = Stem;
},
{
place = (68.839,146.165);
type = Stem;
},
{
place = (467.728,146.165);
type = Stem;
}
);
layerId = "1DB3F64C-B148-42AA-8299-ED68ABA9E6AC";
shapes = (
{
closed = 1;
nodes = (
(221.605,0,l),
(221.605,409.262,l),
(208.403,410.205,l),
(491.303,0,l),
(624.266,0,l),
(624.266,660.1,l),
(478.101,660.1,l),
(478.101,226.32,l),
(496.961,238.579,l),
(205.574,660.1,l),
(75.44,660.1,l),
(75.44,0,l)
);
}
);
width = 699.2345;
}
);
note = N;
unicode = 78;
},
{
glyphname = Nhookleft;
kernLeft = H;
kernRight = H;
lastChange = "2023-10-27 12:49:24 +0000";
layers = (
{
layerId = "1041D826-7B5A-4F1A-81FD-3B5FB25AF0FC";
shapes = (
{
closed = 1;
nodes = (
(75.44,0,l),
(75.44,-90.528,ls),
(75.44,-122.59,o),
(62.238,-132.02,o),
(47.15,-132.02,cs),
(23.575,-132.02,o),
(0,-122.59,o),
(-24.518,-101.844,c),
(-24.518,-159.367,l),
(-11.316,-172.569,o),
(16.031,-191.429,o),
(56.58,-191.429,cs),
(117.875,-191.429,o),
(141.45,-140.507,o),
(141.45,-80.155,cs),
(141.45,0,l)
);
},
{
ref = N;
}
);
width = 640.297;
},
{
layerId = "3B5F2A21-9AC0-43BD-916B-7DC2040966BF";
shapes = (
{
closed = 1;
nodes = (
(75.44,0,l),
(75.44,-33.005,ls),
(75.44,-65.067,o),
(65.067,-71.668,o),
(49.979,-71.668,cs),
(29.233,-71.668,o),
(0,-62.238,o),
(-24.518,-42.435,c),
(-24.518,-159.367,l),
(-0.943,-174.455,o),
(22.632,-191.429,o),
(73.554,-191.429,cs),
(150.88,-191.429,o),
(210.289,-149.937,o),
(210.289,-33.005,cs),
(210.289,0,l)
);
},
{
ref = N;
}
);
width = 682.732;
},
{
layerId = "2AB56609-6B3E-483D-8034-BAE7113127E2";
shapes = (
{
closed = 1;
nodes = (
(75.44,0,l),
(75.44,-129.191,ls),
(75.44,-161.253,o),
(60.352,-172.569,o),
(45.264,-172.569,cs),
(19.803,-172.569,o),
(0,-163.139,o),
(-24.518,-141.45,c),
(-24.518,-159.367,l),
(-17.917,-171.626,o),
(11.316,-191.429,o),
(45.264,-191.429,cs),
(96.186,-191.429,o),
(95.243,-133.906,o),
(95.243,-111.274,cs),
(95.243,0,l)
);
},
{
alignment = -1;
ref = N;
}
);
width = 612.007;
},
{
layerId = "1DB3F64C-B148-42AA-8299-ED68ABA9E6AC";
shapes = (
{
closed = 1;
nodes = (
(75.44,0,l),
(75.44,-23.575,ls),
(75.44,-55.637,o),
(66.01,-61.295,o),
(50.922,-61.295,cs),
(30.176,-61.295,o),
(0,-51.865,o),
(-24.518,-32.062,c),
(-24.518,-159.367,l),
(0.943,-174.455,o),
(23.575,-191.429,o),
(76.383,-191.429,cs),
(156.538,-191.429,o),
(221.605,-151.823,o),
(221.605,-25.461,cs),
(221.605,0,l)
);
},
{
alignment = -1;
ref = N;
}
);
width = 689.8045;
}
);
unicode = 413;
},
{
glyphname = Eng;
kernLeft = H;
kernRight = H;
lastChange = "2023-10-27 12:49:24 +0000";
layers = (
{
layerId = "1041D826-7B5A-4F1A-81FD-3B5FB25AF0FC";
shapes = (
{
closed = 1;
nodes = (
(512.992,0,l),
(512.992,-90.528,ls),
(512.992,-122.59,o),
(499.79,-132.02,o),
(484.702,-132.02,cs),
(461.127,-132.02,o),
(432.837,-122.59,o),
(408.319,-101.844,c),
(408.319,-159.367,l),
(421.521,-172.569,o),
(448.868,-191.429,o),
(489.417,-191.429,cs),
(550.712,-191.429,o),
(574.287,-140.507,o),
(574.287,-80.155,cs),
(574.287,0,l)
);
},
{
ref = N;
}
);
width = 640.297;
},
{
layerId = "3B5F2A21-9AC0-43BD-916B-7DC2040966BF";
shapes = (
{
closed = 1;
nodes = (
(494.132,0,l),
(494.132,-33.005,ls),
(494.132,-65.067,o),
(483.759,-71.668,o),
(468.671,-71.668,cs),
(447.925,-71.668,o),
(406.433,-62.238,o),
(381.915,-42.435,c),
(381.915,-159.367,l),
(405.49,-174.455,o),
(429.065,-191.429,o),
(479.987,-191.429,cs),
(557.313,-191.429,o),
(616.722,-149.937,o),
(616.722,-33.005,cs),
(616.722,0,l)
);
},
{
ref = N;
}
);
width = 682.732;
},
{
layerId = "2AB56609-6B3E-483D-8034-BAE7113127E2";
shapes = (
{
closed = 1;
nodes = (
(525.251,0,l),
(525.251,-129.191,ls),
(525.251,-161.253,o),
(510.163,-172.569,o),
(495.075,-172.569,cs),
(469.614,-172.569,o),
(450.754,-163.139,o),
(426.236,-141.45,c),
(426.236,-159.367,l),
(431.894,-171.626,o),
(462.07,-191.429,o),
(496.018,-191.429,cs),
(545.997,-191.429,o),
(545.997,-133.906,o),
(545.997,-111.274,cs),
(545.997,0,l)
);
},
{
alignment = -1;
ref = N;
}
);
width = 612.007;
},
{
layerId = "1DB3F64C-B148-42AA-8299-ED68ABA9E6AC";
shapes = (
{
closed = 1;
nodes = (
(491.303,0,l),
(491.303,-23.575,ls),
(491.303,-55.637,o),
(480.93,-61.295,o),
(465.842,-61.295,cs),
(446.039,-61.295,o),
(401.718,-51.865,o),
(377.2,-32.062,c),
(377.2,-159.367,l),
(402.661,-174.455,o),
(426.236,-191.429,o),
(478.101,-191.429,cs),
(558.256,-191.429,o),
(624.266,-151.823,o),
(624.266,-25.461,cs),
(624.266,0,l)
);
},
{
alignment = -1;
ref = N;
}
);
width = 689.8045;
}
);
unicode = 330;
},
{
glyphname = O;
kernLeft = C;
kernRight = D;
lastChange = "2023-10-27 12:49:24 +0000";
layers = (
{
anchors = (
{
name = bottom;
pos = (373.428,0);
},
{
name = ogonek;
pos = (379.086,-5.658);
},
{
name = top;
pos = (373.428,660.1);
}
);
hints = (
{
horizontal = 1;
place = (0,60.352);
type = Stem;
},
{
horizontal = 1;
place = (601.634,60.352);
type = Stem;
},
{
place = (33.948,66.01);
type = Stem;
},
{
place = (630.867,66.01);
type = Stem;
}
);
layerId = "1041D826-7B5A-4F1A-81FD-3B5FB25AF0FC";
shapes = (
{
closed = 1;
nodes = (
(533.738,-5.658,o),
(705.364,116.932,o),
(705.364,330.05,cs),
(705.364,517.707,o),
(556.37,665.758,o),
(373.428,665.758,cs),
(187.657,665.758,o),
(42.435,514.878,o),
(42.435,330.05,cs),
(42.435,142.393,o),
(190.486,-5.658,o),
(373.428,-5.658,cs)
);
},
{
closed = 1;
nodes = (
(229.149,54.694,o),
(108.445,175.398,o),
(108.445,330.05,cs),
(108.445,483.759,o),
(226.32,605.406,o),
(373.428,605.406,cs),
(518.65,605.406,o),
(639.354,485.645,o),
(639.354,330.05,cs),
(639.354,155.595,o),
(501.676,54.694,o),
(373.428,54.694,cs)
);
}
);
width = 747.799;
},
{
anchors = (
{
name = bottom;
pos = (376.257,0);
},
{
name = ogonek;
pos = (379.086,-5.658);
},
{
name = top;
pos = (376.257,660.1);
}
);
guides = (
{
pos = (0,706);
}
);
hints = (
{
horizontal = 1;
place = (0,124.476);
type = Stem;
},
{
horizontal = 1;
place = (537.51,124.476);
type = Stem;
},
{
place = (42.435,134.849);
type = Stem;
},
{
place = (575.23,134.849);
type = Stem;
}
);
layerId = "3B5F2A21-9AC0-43BD-916B-7DC2040966BF";
shapes = (
{
closed = 1;
nodes = (
(536.567,-5.658,o),
(710.079,116.932,o),
(710.079,330.05,cs),
(710.079,517.707,o),
(561.085,665.758,o),
(376.257,665.758,cs),
(187.657,665.758,o),
(42.435,514.878,o),
(42.435,330.05,cs),
(42.435,143.336,o),
(191.429,-5.658,o),
(376.257,-5.658,cs)
);
},
{
closed = 1;
nodes = (
(267.812,118.818,o),
(177.284,210.289,o),
(177.284,330.05,cs),
(177.284,448.868,o),
(266.869,541.282,o),
(376.257,541.282,cs),
(483.759,541.282,o),
(575.23,450.754,o),
(575.23,330.05,cs),
(575.23,196.144,o),
(472.443,118.818,o),
(376.257,118.818,cs)
);
}
);
width = 752.514;
},
{
anchors = (
{
name = bottom;
pos = (371.542,0);
},
{
name = ogonek;
pos = (379.086,-5.658);
},
{
name = top;
pos = (371.542,660.1);
}
);
hints = (
{
horizontal = 1;
place = (0,17.917);
type = Stem;
},
{
horizontal = 1;
place = (644.069,17.917);
type = Stem;
},
{
place = (28.29,19.803);
type = Stem;
},
{
place = (667.644,19.803);
type = Stem;
}
);
layerId = "2AB56609-6B3E-483D-8034-BAE7113127E2";
shapes = (
{
closed = 1;
nodes = (
(531.852,-5.658,o),
(702.535,116.932,o),
(702.535,330.05,cs),
(702.535,517.707,o),
(553.541,665.758,o),
(371.542,665.758,cs),
(187.657,665.758,o),
(42.435,514.878,o),
(42.435,330.05,cs),
(42.435,141.45,o),
(189.543,-5.658,o),
(371.542,-5.658,cs)
);
},
{
closed = 1;
nodes = (
(203.688,12.259,o),
(62.238,151.823,o),
(62.238,330.05,cs),
(62.238,507.334,o),
(198.973,647.841,o),
(371.542,647.841,cs),
(542.225,647.841,o),
(681.789,509.22,o),
(681.789,330.05,cs),
(681.789,128.248,o),
(521.479,12.259,o),
(371.542,12.259,cs)
);
}
);
width = 744.65567;
},
{
anchors = (
{
name = bottom;
pos = (377.2,0);
},
{
name = ogonek;
pos = (379.086,-5.658);
},
{
name = top;
pos = (377.2,660.1);
}
);
hints = (
{
horizontal = 1;
place = (0,134.849);
type = Stem;
},
{
horizontal = 1;
place = (527.137,134.849);
type = Stem;
},
{
place = (44.321,146.165);
type = Stem;
},
{
place = (565.8,146.165);
type = Stem;
}
);
layerId = "1DB3F64C-B148-42AA-8299-ED68ABA9E6AC";
shapes = (
{
closed = 1;
nodes = (
(537.51,-5.658,o),
(711.022,116.932,o),
(711.022,330.05,cs),
(711.022,517.707,o),
(562.028,665.758,o),
(377.2,665.758,cs),
(187.657,665.758,o),
(42.435,514.878,o),
(42.435,330.05,cs),
(42.435,143.336,o),
(191.429,-5.658,o),
(377.2,-5.658,cs)
);
},
{
closed = 1;
nodes = (
(274.413,129.191,o),
(188.6,215.947,o),
(188.6,330.05,cs),
(188.6,443.21,o),
(273.47,530.909,o),
(377.2,530.909,cs),
(478.101,530.909,o),
(564.857,445.096,o),
(564.857,330.05,cs),
(564.857,202.745,o),
(467.728,129.191,o),
(377.2,129.191,cs)
);
}
);
width = 753.29983;
}
);
note = O;
unicode = 79;
},
{
glyphname = Oslash;
kernLeft = C;
kernRight = D;
lastChange = "2023-10-27 12:49:24 +0000";
layers = (
{
anchors = (
{
name = top;
pos = (370.599,660.1);
}
);
hints = (
{
horizontal = 1;
place = (0,60.352);
type = Stem;
},
{
horizontal = 1;
place = (601.634,60.352);
type = Stem;
},
{
place = (33.948,66.01);
type = Stem;
},
{
place = (630.867,66.01);
type = Stem;
}
);
layerId = "1041D826-7B5A-4F1A-81FD-3B5FB25AF0FC";
shapes = (
{
closed = 1;
nodes = (
(525.251,0,o),
(696.877,122.59,o),
(696.877,330.993,cs),
(696.877,513.935,o),
(547.883,661.986,o),
(364.941,661.986,cs),
(179.17,661.986,o),
(33.948,511.106,o),
(33.948,330.993,cs),
(33.948,148.051,o),
(181.999,0,o),
(364.941,0,cs)
);
},
{
closed = 1;
nodes = (
(514.878,722.338,l),
(457.355,740.255,l),
(216.89,-55.637,l),
(275.356,-72.611,l)
);
},
{
closed = 1;
nodes = (
(220.662,60.352,o),
(99.958,181.056,o),
(99.958,330.993,cs),
(99.958,479.987,o),
(217.833,601.634,o),
(364.941,601.634,cs),
(510.163,601.634,o),
(630.867,481.873,o),
(630.867,330.993,cs),
(630.867,161.253,o),
(493.189,60.352,o),
(364.941,60.352,cs)
);
}
);
width = 729.882;
},
{
anchors = (
{
name = top;
pos = (373.428,660.1);
}
);
hints = (
{
horizontal = 1;
place = (0,124.476);
type = Stem;
},
{
horizontal = 1;
place = (537.51,124.476);
type = Stem;
},
{
place = (42.435,134.849);
type = Stem;
},
{
place = (575.23,134.849);
type = Stem;
}
);
layerId = "3B5F2A21-9AC0-43BD-916B-7DC2040966BF";
shapes = (
{
closed = 1;
nodes = (
(536.567,0,o),
(710.079,122.59,o),
(710.079,330.993,cs),
(710.079,513.935,o),
(561.085,661.986,o),
(376.257,661.986,cs),
(187.657,661.986,o),
(42.435,511.106,o),
(42.435,330.993,cs),
(42.435,148.994,o),
(191.429,0,o),
(376.257,0,cs)
);
},
{
closed = 1;
nodes = (
(535.624,707.25,l),
(430.951,741.198,l),
(196.144,-41.492,l),
(301.76,-73.554,l)
);
},
{
closed = 1;
nodes = (
(267.812,124.476,o),
(177.284,215.947,o),
(177.284,330.993,cs),
(177.284,445.096,o),
(266.869,537.51,o),
(376.257,537.51,cs),
(483.759,537.51,o),
(575.23,446.982,o),
(575.23,330.993,cs),
(575.23,201.802,o),
(472.443,124.476,o),
(376.257,124.476,cs)
);
}
);
width = 752.514;
},
{
anchors = (
{
name = top;
pos = (368.713,660.1);
}
);
hints = (
{
horizontal = 1;
place = (0,17.917);
type = Stem;
},
{
horizontal = 1;
place = (644.069,17.917);
type = Stem;
},
{
place = (28.29,19.803);
type = Stem;
},
{
place = (667.644,19.803);
type = Stem;
}
);
layerId = "2AB56609-6B3E-483D-8034-BAE7113127E2";
shapes = (
{
closed = 1;
nodes = (
(517.707,0,o),
(688.39,122.59,o),
(688.39,330.993,cs),
(688.39,513.935,o),
(539.396,661.986,o),
(357.397,661.986,cs),
(173.512,661.986,o),
(28.29,511.106,o),
(28.29,330.993,cs),
(28.29,147.108,o),
(175.398,0,o),
(357.397,0,cs)
);
},
{
closed = 1;
nodes = (
(500.733,732.711,l),
(475.272,739.312,l),
(231.035,-65.067,l),
(257.439,-71.668,l)
);
},
{
closed = 1;
nodes = (
(189.543,17.917,o),
(48.093,157.481,o),
(48.093,330.993,cs),
(48.093,503.562,o),
(184.828,644.069,o),
(357.397,644.069,cs),
(528.08,644.069,o),
(667.644,505.448,o),
(667.644,330.993,cs),
(667.644,133.906,o),
(507.334,17.917,o),
(357.397,17.917,cs)
);
}
);
width = 714.794;
},
{
anchors = (
{
name = top;
pos = (374.371,660.1);
}
);
hints = (
{
horizontal = 1;
place = (0,134.849);
type = Stem;
},
{
horizontal = 1;
place = (527.137,134.849);
type = Stem;
},
{
place = (44.321,146.165);
type = Stem;
},
{
place = (565.8,146.165);
type = Stem;
}
);
layerId = "1DB3F64C-B148-42AA-8299-ED68ABA9E6AC";
shapes = (
{
closed = 1;
nodes = (
(538.453,0,o),
(711.965,122.59,o),
(711.965,330.993,cs),
(711.965,513.935,o),
(562.971,661.986,o),
(378.143,661.986,cs),
(189.543,661.986,o),
(44.321,511.106,o),
(44.321,330.993,cs),
(44.321,148.994,o),
(193.315,0,o),
(378.143,0,cs)
);
},
{
closed = 1;
nodes = (
(539.396,704.421,l),
(426.236,741.198,l),
(192.372,-38.663,l),
(306.475,-73.554,l)
);
},
{
closed = 1;
nodes = (
(275.356,134.849,o),
(190.486,221.605,o),
(190.486,330.993,cs),
(190.486,439.438,o),
(275.356,527.137,o),
(378.143,527.137,cs),
(479.044,527.137,o),
(565.8,441.324,o),
(565.8,330.993,cs),
(565.8,208.403,o),
(468.671,134.849,o),
(378.143,134.849,cs)
);
}
);
width = 756.286;
}
);
note = Oslash;
unicode = 216;
},
{
glyphname = OE;
kernLeft = C;
kernRight = E;
lastChange = "2023-09-12 03:35:45 +0000";
layers = (
{
hints = (
{
horizontal = 1;
place = (0,60.352);
type = Stem;
},
{
horizontal = 1;
place = (303.646,60.352);
type = Stem;
},
{
horizontal = 1;
place = (599.748,60.352);
type = Stem;
},
{
place = (33.948,66.01);
type = Stem;
},
{
place = (547.883,66.01);
type = Stem;
}
);
layerId = "1041D826-7B5A-4F1A-81FD-3B5FB25AF0FC";
shapes = (
{
closed = 1;
nodes = (
(428.122,0,o),
(492.246,18.86,o),
(547.883,54.694,c),
(547.883,0,l),
(975.062,0,l),
(975.062,60.352,l),
(613.893,60.352,l),
(613.893,303.646,l),
(904.337,303.646,l),
(904.337,363.998,l),
(613.893,363.998,l),
(613.893,599.748,l),
(974.119,599.748,l),
(974.119,660.1,l),
(547.883,660.1,l),
(547.883,607.292,l),
(495.075,642.183,o),
(432.837,661.986,o),
(364.941,661.986,cs),
(179.17,661.986,o),
(33.948,511.106,o),
(33.948,330.993,cs),
(33.948,148.051,o),
(181.999,0,o),
(364.941,0,cs)
);
},
{
closed = 1;
nodes = (
(220.662,60.352,o),
(99.958,181.056,o),
(99.958,330.993,cs),
(99.958,479.987,o),
(217.833,601.634,o),
(364.941,601.634,cs),
(435.666,601.634,o),
(499.79,573.344,o),
(547.883,527.137,c),
(547.883,133.906,l),
(496.961,85.813,o),
(430.008,60.352,o),
(364.941,60.352,cs)
);
}
);
width = 1004.295;
},
{
hints = (
{
horizontal = 1;
place = (0,124.476);
type = Stem;
},
{
horizontal = 1;
place = (270.641,124.476);
type = Stem;
},
{
horizontal = 1;
place = (535.624,124.476);
type = Stem;
},
{
place = (33.948,130.134);
type = Stem;
},
{
place = (485.645,134.849);
type = Stem;
},
{
horizontal = 1;
place = (526.194,135.792);
type = Stem;
}
);
layerId = "3B5F2A21-9AC0-43BD-916B-7DC2040966BF";
shapes = (
{
closed = 1;
nodes = (
(405.49,0,o),
(446.982,7.544,o),
(485.645,22.632,c),
(485.645,0,l),
(943,0,l),
(943,124.476,l),
(620.494,124.476,l),
(620.494,270.641,l),
(879.819,270.641,l),
(879.819,395.117,l),
(620.494,395.117,l),
(620.494,535.624,l),
(942.057,535.624,l),
(942.057,660.1,l),
(485.645,660.1,l),
(485.645,640.297,l),
(447.925,654.442,o),
(407.376,661.986,o),
(364.941,661.986,cs),
(179.17,661.986,o),
(33.948,511.106,o),
(33.948,330.993,cs),
(33.948,148.051,o),
(181.999,0,o),
(364.941,0,cs)
);
},
{
closed = 1;
nodes = (
(250.838,136.735,o),
(164.082,222.548,o),
(164.082,330.993,cs),
(164.082,437.552,o),
(248.952,526.194,o),
(354.568,526.194,cs),
(404.547,526.194,o),
(451.697,505.448,o),
(485.645,472.443,c),
(485.645,188.6,l),
(448.868,154.652,o),
(400.775,136.735,o),
(354.568,136.735,cs)
);
}
);
width = 985.435;
},
{
hints = (
{
horizontal = 1;
place = (-180.113,17.917);
type = Stem;
},
{
horizontal = 1;
place = (155.595,10.373);
type = Stem;
},
{
horizontal = 1;
place = (642.183,17.917);
type = Stem;
},
{
place = (-266.869,19.803);
type = Stem;
},
{
place = (912.824,27.347);
type = Stem;
}
);
layerId = "2AB56609-6B3E-483D-8034-BAE7113127E2";
shapes = (
{
closed = 1;
nodes = (
(443.21,0,o),
(522.422,26.404,o),
(589.375,76.383,c),
(589.375,0,l),
(996.751,0,l),
(996.751,17.917,l),
(609.178,17.917,l),
(609.178,325.335,l),
(920.368,325.335,l),
(920.368,343.252,l),
(609.178,343.252,l),
(609.178,642.183,l),
(995.808,642.183,l),
(995.808,660.1,l),
(589.375,660.1,l),
(589.375,585.603,l),
(526.194,633.696,o),
(449.811,661.986,o),
(364.941,661.986,cs),
(179.17,661.986,o),
(33.948,511.106,o),
(33.948,330.993,cs),
(33.948,148.051,o),
(181.999,0,o),
(364.941,0,cs)
);
},
{
closed = 1;
nodes = (
(200.859,9.43,o),
(57.523,153.709,o),
(57.523,330.993,cs),
(57.523,508.277,o),
(197.087,651.613,o),
(371.542,651.613,cs),
(456.412,651.613,o),
(531.852,618.608,o),
(589.375,563.914,c),
(589.375,97.129,l),
(529.023,39.606,o),
(449.811,9.43,o),
(371.542,9.43,cs)
);
}
);
width = 1016.86833;
},
{
hints = (
{
horizontal = 1;
place = (315.905,134.849);
type = Stem;
},
{
horizontal = 1;
place = (562.971,148.051);
type = Stem;
},
{
horizontal = 1;
place = (525.251,134.849);
type = Stem;
},
{
place = (561.085,146.165);
type = Stem;
},
{
place = (-91.471,133.906);
type = Stem;
}
);
layerId = "1DB3F64C-B148-42AA-8299-ED68ABA9E6AC";
shapes = (
{
closed = 1;
nodes = (
(401.718,0,o),
(439.438,5.658,o),
(475.272,16.974,c),
(475.272,0,l),
(937.342,0,l),
(937.342,134.849,l),
(621.437,134.849,l),
(621.437,264.983,l),
(876.047,264.983,l),
(876.047,400.775,l),
(621.437,400.775,l),
(621.437,525.251,l),
(936.399,525.251,l),
(936.399,660.1,l),
(475.272,660.1,l),
(475.272,645.955,l),
(440.381,656.328,o),
(403.604,661.986,o),
(364.941,661.986,cs),
(179.17,661.986,o),
(33.948,511.106,o),
(33.948,330.993,cs),
(33.948,148.051,o),
(181.999,0,o),
(364.941,0,cs)
);
},
{
closed = 1;
nodes = (
(255.553,149.937,o),
(174.455,229.149,o),
(174.455,330.993,cs),
(174.455,430.951,o),
(254.61,513.935,o),
(352.682,513.935,cs),
(399.832,513.935,o),
(444.153,494.132,o),
(475.272,463.013,c),
(475.272,198.03,l),
(441.324,165.968,o),
(396.06,149.937,o),
(352.682,149.937,cs)
);
}
);
width = 982.29167;
}
);
note = OE;
unicode = 338;
},
{
glyphname = P;
kernLeft = H;
kernRight = P;
lastChange = "2023-10-27 12:49:24 +0000";
layers = (
{
anchors = (
{
name = bottom;
pos = (263.097,0);
},
{
name = top;
pos = (263.097,660.1);
}
);
hints = (
{
horizontal = 1;
place = (303.646,60.352);
type = Stem;
},
{
horizontal = 1;
place = (606.349,60.352);
type = Stem;
},
{
place = (81.098,66.01);
type = Stem;
},
{
place = (439.438,66.01);
type = Stem;
}
);
layerId = "1041D826-7B5A-4F1A-81FD-3B5FB25AF0FC";
shapes = (
{
closed = 1;
nodes = (
(141.45,0,l),
(141.45,303.646,l),
(317.791,303.646,ls),
(417.749,303.646,o),
(499.79,385.687,o),
(499.79,484.702,cs),
(499.79,534.681,o),
(479.044,580.888,o),
(446.039,612.95,cs),
(413.977,645.955,o),
(367.77,666.701,o),
(317.791,666.701,cs),
(75.44,666.701,l),
(75.44,0,l)
);
},
{
closed = 1;
nodes = (
(141.45,606.349,l),
(317.791,606.349,ls),
(349.853,606.349,o),
(375.314,595.033,o),
(399.832,570.515,cs),
(419.635,550.712,o),
(433.78,518.65,o),
(433.78,484.702,cs),
(433.78,415.863,o),
(380.972,363.998,o),
(317.791,363.998,cs),
(141.45,363.998,l)
);
}
);
width = 532.795;
},
{
anchors = (
{
name = bottom;
pos = (280.071,0);
},
{
name = top;
pos = (280.071,660.1);
}
);
hints = (
{
horizontal = 1;
place = (271.584,124.476);
type = Stem;
},
{
horizontal = 1;
place = (541.282,124.476);
type = Stem;
},
{
place = (70.725,134.849);
type = Stem;
},
{
place = (390.402,134.849);
type = Stem;
}
);
layerId = "3B5F2A21-9AC0-43BD-916B-7DC2040966BF";
shapes = (
{
closed = 1;
nodes = (
(210.289,0,l),
(210.289,271.584,l),
(329.107,271.584,ls),
(440.381,271.584,o),
(529.966,361.169,o),
(529.966,468.671,cs),
(529.966,519.593,o),
(506.391,573.344,o),
(471.5,608.235,cs),
(438.495,641.24,o),
(382.858,665.758,o),
(329.107,665.758,cs),
(75.44,665.758,l),
(75.44,0,l)
);
},
{
closed = 1;
nodes = (
(210.289,541.282,l),
(329.107,541.282,ls),
(347.967,541.282,o),
(359.283,536.567,o),
(376.257,520.536,c),
(386.63,509.22,o),
(395.117,490.36,o),
(395.117,468.671,cs),
(395.117,426.236,o),
(364.941,396.06,o),
(329.107,396.06,cs),
(210.289,396.06,l)
);
}
);
width = 556.37;
},
{
anchors = (
{
name = bottom;
pos = (251.781,0);
},
{
name = top;
pos = (251.781,660.1);
}
);
hints = (
{
horizontal = 1;
place = (325.335,17.917);
type = Stem;
},
{
horizontal = 1;
place = (649.727,17.917);
type = Stem;
},
{
place = (87.699,19.803);
type = Stem;
},
{
place = (472.443,19.803);
type = Stem;
}
);
layerId = "2AB56609-6B3E-483D-8034-BAE7113127E2";
shapes = (
{
closed = 1;
nodes = (
(95.243,0,l),
(95.243,325.335,l),
(310.247,325.335,ls),
(402.661,325.335,o),
(479.987,401.718,o),
(479.987,495.075,cs),
(479.987,545.054,o),
(461.127,585.603,o),
(429.065,615.779,cs),
(397.946,648.784,o),
(357.397,667.644,o),
(310.247,667.644,cs),
(75.44,667.644,l),
(75.44,0,l)
);
},
{
closed = 1;
nodes = (
(95.243,649.727,l),
(310.247,649.727,ls),
(350.796,649.727,o),
(385.687,633.696,o),
(415.863,603.52,cs),
(441.324,578.059,o),
(459.241,537.51,o),
(459.241,495.075,cs),
(459.241,409.262,o),
(391.345,342.309,o),
(310.247,342.309,cs),
(95.243,342.309,l)
);
}
);
width = 517.07833;
},
{
anchors = (
{
name = bottom;
pos = (282.9,0);
},
{
name = top;
pos = (282.9,660.1);
}
);
hints = (
{
horizontal = 1;
place = (265.926,134.849);
type = Stem;
},
{
horizontal = 1;
place = (530.909,134.849);
type = Stem;
},
{
place = (68.839,146.165);
type = Stem;
},
{
place = (381.915,146.165);
type = Stem;
}
);
layerId = "1DB3F64C-B148-42AA-8299-ED68ABA9E6AC";
shapes = (
{
closed = 1;
nodes = (
(221.605,0,l),
(221.605,265.926,l),
(330.993,265.926,ls),
(444.153,265.926,o),
(534.681,357.397,o),
(534.681,465.842,cs),
(534.681,516.764,o),
(511.106,572.401,o),
(476.215,607.292,cs),
(442.267,640.297,o),
(385.687,665.758,o),
(330.993,665.758,cs),
(75.44,665.758,l),
(75.44,0,l)
);
},
{
closed = 1;
nodes = (
(221.605,530.909,l),
(330.993,530.909,ls),
(347.967,530.909,o),
(356.454,527.137,o),
(372.485,512.049,cs),
(380.972,502.619,o),
(388.516,485.645,o),
(388.516,465.842,cs),
(388.516,428.122,o),
(362.112,401.718,o),
(330.993,401.718,cs),
(221.605,401.718,l)
);
}
);
width = 560.29917;
}
);
note = P;
unicode = 80;
},
{
glyphname = Thorn;
kernLeft = H;
kernRight = Thorn;
lastChange = "2023-10-27 12:49:24 +0000";
layers = (
{
hints = (
{
horizontal = 1;
place = (154.652,60.352);
type = Stem;
},
{
horizontal = 1;
place = (502.619,60.352);
type = Stem;
},
{
place = (68.839,66.01);
type = Stem;
},
{
place = (451.697,66.01);
type = Stem;
}
);
layerId = "1041D826-7B5A-4F1A-81FD-3B5FB25AF0FC";
shapes = (
{
closed = 1;
nodes = (
(134.849,0,l),
(134.849,154.652,l),
(311.19,154.652,ls),
(425.293,154.652,o),
(517.707,247.066,o),
(517.707,359.283,cs),
(517.707,413.034,o),
(494.132,466.785,o),
(457.355,503.562,cs),
(422.464,537.51,o),
(366.827,562.971,o),
(311.19,562.971,cs),
(134.849,562.971,l),
(134.849,654.442,l),
(68.839,654.442,l),
(68.839,0,l)
);
},
{
closed = 1;
nodes = (
(134.849,502.619,l),
(311.19,502.619,ls),
(349.853,502.619,o),
(383.801,487.531,o),
(410.205,460.184,c),
(435.666,435.666,o),
(451.697,398.889,o),
(451.697,359.283,cs),
(451.697,278.185,o),
(388.516,215.004,o),
(311.19,215.004,cs),
(134.849,215.004,l)
);
}
);
width = 565.8;
},
{
hints = (
{
horizontal = 1;
place = (137.678,125.419);
type = Stem;
},
{
horizontal = 1;
place = (447.925,125.419);
type = Stem;
},
{
place = (54.694,134.849);
type = Stem;
},
{
place = (397.003,134.849);
type = Stem;
}
);
layerId = "3B5F2A21-9AC0-43BD-916B-7DC2040966BF";
shapes = (
{
closed = 1;
nodes = (
(189.543,0,l),
(189.543,137.678,l),
(309.304,137.678,ls),
(432.837,137.678,o),
(531.852,236.693,o),
(531.852,355.511,cs),
(531.852,411.148,o),
(504.505,471.5,o),
(466.785,509.22,cs),
(431.894,544.111,o),
(367.77,573.344,o),
(309.304,573.344,cs),
(189.543,573.344,l),
(189.543,654.442,l),
(54.694,654.442,l),
(54.694,0,l)
);
},
{
closed = 1;
nodes = (
(189.543,447.925,l),
(309.304,447.925,ls),
(332.879,447.925,o),
(352.682,439.438,o),
(371.542,421.521,c),
(386.63,405.49,o),
(397.003,382.858,o),
(397.003,355.511,cs),
(397.003,302.703,o),
(357.397,263.097,o),
(309.304,263.097,cs),
(189.543,263.097,l)
);
}
);
width = 565.8;
},
{
hints = (
{
horizontal = 1;
place = (165.968,16.974);
type = Stem;
},
{
horizontal = 1;
place = (539.396,16.974);
type = Stem;
},
{
place = (78.269,19.803);
type = Stem;
},
{
place = (488.474,19.803);
type = Stem;
}
);
layerId = "2AB56609-6B3E-483D-8034-BAE7113127E2";
shapes = (
{
closed = 1;
nodes = (
(98.072,0,l),
(98.072,165.968,l),
(312.133,165.968,ls),
(420.578,165.968,o),
(508.277,253.667,o),
(508.277,362.112,cs),
(508.277,413.977,o),
(487.531,463.956,o),
(450.754,499.79,cs),
(415.863,532.795,o),
(365.884,556.37,o),
(312.133,556.37,cs),
(98.072,556.37,l),
(98.072,654.442,l),
(78.269,654.442,l),
(78.269,0,l)
);
},
{
closed = 1;
nodes = (
(98.072,539.396,l),
(312.133,539.396,ls),
(361.169,539.396,o),
(404.547,519.593,o),
(435.666,485.645,c),
(468.671,455.469,o),
(488.474,409.262,o),
(488.474,362.112,cs),
(488.474,262.154,o),
(409.262,182.942,o),
(312.133,182.942,cs),
(98.072,182.942,l)
);
}
);
width = 565.8;
},
{
hints = (
{
horizontal = 1;
place = (134.849,136.735);
type = Stem;
},
{
horizontal = 1;
place = (438.495,136.735);
type = Stem;
},
{
place = (52.808,146.165);
type = Stem;
},
{
place = (387.573,146.165);
type = Stem;
}
);
layerId = "1DB3F64C-B148-42AA-8299-ED68ABA9E6AC";
shapes = (
{
closed = 1;
nodes = (
(198.973,0,l),
(198.973,134.849,l),
(309.304,134.849,ls),
(433.78,134.849,o),
(534.681,234.807,o),
(534.681,354.568,cs),
(534.681,411.148,o),
(506.391,472.443,o),
(468.671,510.163,cs),
(433.78,545.054,o),
(367.77,575.23,o),
(309.304,575.23,cs),
(198.973,575.23,l),
(198.973,654.442,l),
(52.808,654.442,l),
(52.808,0,l)
);
},
{
closed = 1;
nodes = (
(198.973,438.495,l),
(309.304,438.495,ls),
(330.05,438.495,o),
(347.967,431.894,o),
(364.941,414.92,c),
(378.143,400.775,o),
(387.573,380.029,o),
(387.573,354.568,cs),
(387.573,306.475,o),
(352.682,271.584,o),
(309.304,271.584,cs),
(198.973,271.584,l)
);
}
);
width = 565.8;
}
);
note = Thorn;
unicode = 222;
},
{
glyphname = Q;
kernLeft = C;
kernRight = Q;
lastChange = "2023-10-27 12:49:24 +0000";
layers = (
{
anchors = (
{
name = bottom;
pos = (364.941,0);
},
{
name = top;
pos = (364.941,660.1);
}
);
hints = (
{
horizontal = 1;
place = (0,60.352);
type = Stem;
},
{
horizontal = 1;
place = (601.634,60.352);
type = Stem;
},
{
place = (33.005,66.01);
type = Stem;
},
{
place = (629.924,66.01);
type = Stem;
}
);
layerId = "1041D826-7B5A-4F1A-81FD-3B5FB25AF0FC";
shapes = (
{
closed = 1;
nodes = (
(621.437,0,l),
(715.737,0,l),
(418.692,274.413,l),
(324.392,274.413,l)
);
},
{
ref = O;
}
);
width = 729.882;
},
{
anchors = (
{
name = bottom;
pos = (389.459,0);
},
{
name = top;
pos = (389.459,660.1);
}
);
hints = (
{
horizontal = 1;
place = (0,275.356);
type = Stem;
},
{
horizontal = 1;
place = (535.624,124.476);
type = Stem;
},
{
place = (41.492,134.849);
type = Stem;
},
{
place = (574.287,134.849);
type = Stem;
},
{
horizontal = 1;
place = (-1.886,124.476);
type = Stem;
}
);
layerId = "3B5F2A21-9AC0-43BD-916B-7DC2040966BF";
shapes = (
{
closed = 1;
nodes = (
(574.287,0,l),
(765.716,0,l),
(468.671,275.356,l),
(277.242,275.356,l)
);
},
{
ref = O;
}
);
width = 779.861;
},
{
anchors = (
{
name = bottom;
pos = (348.91,0);
},
{
name = top;
pos = (348.91,660.1);
}
);
hints = (
{
horizontal = 1;
place = (0,-82.984);
type = Stem;
},
{
horizontal = 1;
place = (645.955,17.917);
type = Stem;
},
{
place = (-328.164,19.803);
type = Stem;
},
{
place = (1051.445,27.347);
type = Stem;
}
);
layerId = "2AB56609-6B3E-483D-8034-BAE7113127E2";
shapes = (
{
closed = 1;
nodes = (
(652.556,0,l),
(682.732,0,l),
(385.687,273.47,l),
(355.511,273.47,l)
);
},
{
alignment = -1;
ref = O;
}
);
width = 696.56267;
},
{
anchors = (
{
name = bottom;
pos = (393.231,0);
},
{
name = top;
pos = (393.231,660.1);
}
);
hints = (
{
horizontal = 1;
place = (0,311.19);
type = Stem;
},
{
horizontal = 1;
place = (524.308,134.849);
type = Stem;
},
{
place = (664.815,146.165);
type = Stem;
},
{
place = (-107.502,133.906);
type = Stem;
}
);
layerId = "1DB3F64C-B148-42AA-8299-ED68ABA9E6AC";
shapes = (
{
closed = 1;
nodes = (
(566.743,0,l),
(774.203,0,l),
(477.158,275.356,l),
(269.698,275.356,l)
);
},
{
alignment = -1;
ref = O;
}
);
width = 788.19083;
}
);
note = Q;
unicode = 81;
},
{
glyphname = R;
kernLeft = H;
kernRight = R;
lastChange = "2023-10-27 12:49:24 +0000";
layers = (
{
anchors = (
{
name = bottom;
pos = (303.646,0);
},
{
name = top;
pos = (303.646,660.1);
}
);
hints = (
{
horizontal = 1;
place = (342.309,60.352);
type = Stem;
},
{
horizontal = 1;
place = (606.349,60.352);
type = Stem;
},
{
place = (81.098,66.01);
type = Stem;
},
{
place = (457.355,66.01);
type = Stem;
}
);
layerId = "1041D826-7B5A-4F1A-81FD-3B5FB25AF0FC";
shapes = (
{
closed = 1;
nodes = (
(285.729,349.853,l),
(511.106,0,l),
(589.375,0,l),
(362.112,350.796,l)
);
},
{
closed = 1;
nodes = (
(141.45,599.748,l),
(336.651,599.748,ls),
(413.034,599.748,o),
(451.697,555.427,o),
(451.697,497.904,cs),
(451.697,439.438,o),
(415.863,396.06,o),
(342.309,396.06,cs),
(141.45,396.06,l)
);
},
{
closed = 1;
nodes = (
(347.024,335.708,ls),
(454.526,335.708,o),
(517.707,409.262,o),
(517.707,497.904,cs),
(517.707,586.546,o),
(453.583,660.1,o),
(336.651,660.1,cs),
(75.44,660.1,l),
(75.44,0,l),
(141.45,0,l),
(141.45,335.708,l)
);
}
);
width = 603.52;
},
{
anchors = (
{
name = bottom;
pos = (327.221,0);
},
{
name = top;
pos = (327.221,660.1);
}
);
hints = (
{
horizontal = 1;
place = (305.532,125.419);
type = Stem;
},
{
horizontal = 1;
place = (541.282,124.476);
type = Stem;
},
{
place = (72.611,134.849);
type = Stem;
},
{
place = (411.148,132.02);
type = Stem;
}
);
layerId = "3B5F2A21-9AC0-43BD-916B-7DC2040966BF";
shapes = (
{
closed = 1;
nodes = (
(270.641,327.221,l),
(479.987,0,l),
(636.525,0,l),
(427.179,327.221,l)
);
},
{
closed = 1;
nodes = (
(210.289,535.624,l),
(353.625,535.624,ls),
(385.687,535.624,o),
(413.977,515.821,o),
(413.977,480.93,cs),
(413.977,445.096,o),
(395.117,425.293,o),
(355.511,425.293,cs),
(210.289,425.293,l)
);
},
{
closed = 1;
nodes = (
(371.542,299.874,ls),
(468.671,299.874,o),
(545.997,385.687,o),
(545.997,479.987,cs),
(545.997,578.059,o),
(470.557,660.1,o),
(350.796,660.1,cs),
(75.44,660.1,l),
(75.44,0,l),
(210.289,0,l),
(210.289,299.874,l)
);
}
);
width = 650.67;
},
{
anchors = (
{
name = bottom;
pos = (287.615,0);
},
{
name = top;
pos = (287.615,660.1);
}
);
hints = (
{
horizontal = 1;
place = (366.827,16.974);
type = Stem;
},
{
horizontal = 1;
place = (649.727,17.917);
type = Stem;
},
{
place = (86.756,19.803);
type = Stem;
},
{
place = (488.474,21.689);
type = Stem;
}
);
layerId = "2AB56609-6B3E-483D-8034-BAE7113127E2";
shapes = (
{
closed = 1;
nodes = (
(296.102,364.941,l),
(531.852,0,l),
(558.256,0,l),
(318.734,366.827,l)
);
},
{
closed = 1;
nodes = (
(95.243,642.183,l),
(325.335,642.183,ls),
(430.951,642.183,o),
(477.158,581.831,o),
(477.158,509.22,cs),
(477.158,435.666,o),
(430.008,376.257,o),
(333.822,376.257,cs),
(95.243,376.257,l)
);
},
{
closed = 1;
nodes = (
(330.993,359.283,ls),
(445.096,359.283,o),
(498.847,425.293,o),
(498.847,510.163,cs),
(498.847,592.204,o),
(442.267,660.1,o),
(327.221,660.1,cs),
(75.44,660.1,l),
(75.44,0,l),
(95.243,0,l),
(95.243,359.283,l)
);
}
);
width = 572.08667;
},
{
anchors = (
{
name = bottom;
pos = (330.993,0);
},
{
name = top;
pos = (330.993,660.1);
}
);
hints = (
{
horizontal = 1;
place = (299.874,136.735);
type = Stem;
},
{
horizontal = 1;
place = (530.909,134.849);
type = Stem;
},
{
place = (71.668,146.165);
type = Stem;
},
{
place = (403.604,143.336);
type = Stem;
}
);
layerId = "1DB3F64C-B148-42AA-8299-ED68ABA9E6AC";
shapes = (
{
closed = 1;
nodes = (
(267.812,323.449,l),
(475.272,0,l),
(644.069,0,l),
(438.495,323.449,l)
);
},
{
closed = 1;
nodes = (
(221.605,525.251,l),
(356.454,525.251,ls),
(380.972,525.251,o),
(407.376,509.22,o),
(407.376,478.101,cs),
(407.376,446.039,o),
(391.345,430.008,o),
(357.397,430.008,cs),
(221.605,430.008,l)
);
},
{
closed = 1;
nodes = (
(375.314,294.216,ls),
(471.5,294.216,o),
(550.712,381.915,o),
(550.712,477.158,cs),
(550.712,577.116,o),
(473.386,660.1,o),
(353.625,660.1,cs),
(75.44,660.1,l),
(75.44,0,l),
(221.605,0,l),
(221.605,294.216,l)
);
}
);
width = 658.52833;
}
);
note = R;
unicode = 82;
},
{
glyphname = S;
kernLeft = S;
kernRight = S;
lastChange = "2023-10-27 12:49:24 +0000";
layers = (
{
anchors = (
{
name = bottom;
pos = (242.351,0);
},
{
name = top;
pos = (242.351,660.1);
}
);
hints = (
{
horizontal = 1;
place = (-1.886,60.352);
type = Stem;
},
{
horizontal = 1;
place = (601.634,60.352);
type = Stem;
},
{
place = (53.751,66.01);
type = Stem;
},
{
place = (373.428,66.01);
type = Stem;
}
);
layerId = "1041D826-7B5A-4F1A-81FD-3B5FB25AF0FC";
shapes = (
{
closed = 1;
nodes = (
(345.138,-5.658,o),
(451.697,50.922,o),
(451.697,169.74,cs),
(451.697,304.589,o),
(358.34,339.48,o),
(254.61,381.915,cs),
(180.113,412.091,o),
(132.02,442.267,o),
(132.02,502.619,cs),
(132.02,563.914,o),
(181.056,605.406,o),
(241.408,605.406,cs),
(307.418,605.406,o),
(340.423,576.173,o),
(366.827,550.712,c),
(413.034,593.147,l),
(379.086,628.981,o),
(330.993,665.758,o),
(241.408,665.758,cs),
(148.994,665.758,o),
(66.01,597.862,o),
(66.01,502.619,cs),
(66.01,400.775,o),
(153.709,354.568,o),
(228.206,324.392,cs),
(310.247,290.444,o),
(385.687,267.812,o),
(385.687,169.74,cs),
(385.687,91.471,o),
(312.133,54.694,o),
(234.807,54.694,cs),
(164.082,54.694,o),
(114.103,87.699,o),
(82.041,123.533,c),
(33.005,82.984,l),
(69.782,42.435,o),
(140.507,-5.658,o),
(234.807,-5.658,cs)
);
}
);
width = 484.702;
},
{
anchors = (
{
name = bottom;
pos = (262.154,0);
},
{
name = top;
pos = (262.154,660.1);
}
);
hints = (
{
horizontal = 1;
place = (-1.886,125.419);
type = Stem;
},
{
horizontal = 1;
place = (540.339,124.476);
type = Stem;
},
{
place = (44.321,134.849);
type = Stem;
},
{
place = (330.05,133.906);
type = Stem;
}
);
layerId = "3B5F2A21-9AC0-43BD-916B-7DC2040966BF";
shapes = (
{
closed = 1;
nodes = (
(373.428,-5.658,o),
(491.303,57.523,o),
(491.303,188.6,cs),
(491.303,329.107,o),
(384.744,374.371,o),
(292.33,412.091,cs),
(230.092,437.552,o),
(206.517,452.64,o),
(206.517,484.702,cs),
(206.517,518.65,o),
(231.978,541.282,o),
(265.926,541.282,cs),
(324.392,541.282,o),
(348.91,512.049,o),
(378.143,477.158,c),
(470.557,562.028,l),
(430.951,616.722,o),
(371.542,665.758,o),
(265.926,665.758,cs),
(164.082,665.758,o),
(71.668,590.318,o),
(71.668,484.702,cs),
(71.668,371.542,o),
(173.512,324.392,o),
(241.408,297.045,cs),
(315.905,265.926,o),
(357.397,245.18,o),
(357.397,188.6,cs),
(357.397,143.336,o),
(322.506,115.989,o),
(260.268,115.989,cs),
(194.258,115.989,o),
(156.538,157.481,o),
(131.077,197.087,c),
(33.005,116.932,l),
(37.72,86.756,o),
(132.963,-5.658,o),
(260.268,-5.658,cs)
);
}
);
width = 524.308;
},
{
anchors = (
{
name = bottom;
pos = (229.149,0);
},
{
name = top;
pos = (229.149,660.1);
}
);
hints = (
{
horizontal = 1;
place = (-1.886,16.974);
type = Stem;
},
{
horizontal = 1;
place = (642.183,17.917);
type = Stem;
},
{
place = (60.352,19.803);
type = Stem;
},
{
place = (402.661,20.746);
type = Stem;
}
);
layerId = "2AB56609-6B3E-483D-8034-BAE7113127E2";
shapes = (
{
closed = 1;
nodes = (
(326.278,-5.658,o),
(424.35,46.207,o),
(425.293,157.481,cs),
(426.236,288.558,o),
(340.423,315.905,o),
(229.149,362.112,cs),
(147.108,395.117,o),
(82.041,435.666,o),
(82.041,514.878,cs),
(82.041,594.09,o),
(147.108,647.841,o),
(225.377,647.841,cs),
(296.102,647.841,o),
(335.708,618.608,o),
(359.283,599.748,c),
(374.371,613.893,l),
(344.195,637.468,o),
(303.646,665.758,o),
(225.377,665.758,cs),
(138.621,665.758,o),
(62.238,602.577,o),
(62.238,514.878,cs),
(62.238,420.578,o),
(140.507,374.371,o),
(219.719,342.309,cs),
(306.475,306.475,o),
(404.547,282.9,o),
(404.547,157.481,cs),
(404.547,56.58,o),
(305.532,14.145,o),
(217.833,14.145,cs),
(144.279,14.145,o),
(85.813,41.492,o),
(49.036,74.497,c),
(33.005,60.352,l),
(91.471,13.202,o),
(145.222,-5.658,o),
(217.833,-5.658,cs)
);
}
);
width = 458.298;
},
{
anchors = (
{
name = bottom;
pos = (265.926,0);
},
{
name = top;
pos = (265.926,660.1);
}
);
hints = (
{
horizontal = 1;
place = (-1.886,136.735);
type = Stem;
},
{
horizontal = 1;
place = (529.966,134.849);
type = Stem;
},
{
place = (42.435,146.165);
type = Stem;
},
{
place = (322.506,145.222);
type = Stem;
}
);
layerId = "1DB3F64C-B148-42AA-8299-ED68ABA9E6AC";
shapes = (
{
closed = 1;
nodes = (
(378.143,-5.658,o),
(497.904,58.466,o),
(497.904,191.429,cs),
(497.904,332.879,o),
(389.459,380.029,o),
(298.931,416.806,cs),
(238.579,442.267,o),
(218.776,454.526,o),
(218.776,481.873,cs),
(218.776,511.106,o),
(240.465,530.909,o),
(269.698,530.909,cs),
(327.221,530.909,o),
(350.796,501.676,o),
(380.029,464.899,c),
(479.987,557.313,l),
(439.438,614.836,o),
(378.143,665.758,o),
(269.698,665.758,cs),
(166.911,665.758,o),
(72.611,589.375,o),
(72.611,481.873,cs),
(72.611,366.827,o),
(177.284,319.677,o),
(243.294,292.33,cs),
(316.848,262.154,o),
(352.682,241.408,o),
(352.682,191.429,cs),
(352.682,151.823,o),
(324.392,126.362,o),
(264.983,126.362,cs),
(198.973,126.362,o),
(164.082,168.797,o),
(139.564,209.346,c),
(33.005,122.59,l),
(33.005,94.3,o),
(132.02,-5.658,o),
(264.983,-5.658,cs)
);
}
);
width = 530.909;
}
);
note = S;
unicode = 83;
},
{
glyphname = Germandbls;
lastChange = "2023-10-27 12:49:24 +0000";
layers = (
{
hints = (
{
horizontal = 1;
place = (-154.652,879.819);
type = Stem;
},
{
place = (33.948,66.01);
type = Stem;
},
{
horizontal = 1;
place = (-2.829,60.352);
type = Stem;
},
{
horizontal = 1;
place = (334.765,60.352);
type = Stem;
},
{
horizontal = 1;
place = (603.52,60.352);
type = Stem;
},
{
place = (345.138,66.01);
type = Stem;
},
{
place = (306.475,66.01);
type = Stem;
},
{
horizontal = 1;
place = (-2.829,60.352);
type = Stem;
},
{
horizontal = 1;
place = (334.765,60.352);
type = Stem;
},
{
horizontal = 1;
place = (603.52,60.352);
type = Stem;
},
{
place = (523.365,66.01);
type = Stem;
},
{
place = (484.702,66.01);
type = Stem;
}
);
layerId = "1041D826-7B5A-4F1A-81FD-3B5FB25AF0FC";
shapes = (
{
closed = 1;
nodes = (
(113.16,0,l),
(113.16,660.1,l),
(47.15,660.1,l),
(47.15,0,l)
);
},
{
closed = 1;
nodes = (
(496.961,-2.829,o),
(579.945,88.642,o),
(579.945,196.144,cs),
(579.945,315.905,o),
(498.847,383.801,o),
(345.138,383.801,c),
(345.138,366.827,l),
(574.287,660.1,l),
(460.184,594.09,l),
(296.102,392.288,l),
(296.102,337.594,l),
(354.568,337.594,ls),
(467.728,337.594,o),
(513.935,273.47,o),
(513.935,196.144,cs),
(513.935,117.875,o),
(458.298,61.295,o),
(373.428,61.295,cs),
(312.133,61.295,o),
(271.584,89.585,o),
(241.408,149.937,c),
(181.999,122.59,l),
(215.004,45.264,o),
(289.501,-2.829,o),
(373.428,-2.829,cs)
);
},
{
closed = 1;
nodes = (
(47.15,594.09,l),
(460.184,594.09,l),
(574.287,660.1,l),
(47.15,660.1,l)
);
}
);
width = 594.09;
},
{
hints = (
{
horizontal = 1;
place = (-2.829,125.419);
type = Stem;
},
{
horizontal = 1;
place = (304.589,109.388);
type = Stem;
},
{
horizontal = 1;
place = (538.453,125.419);
type = Stem;
},
{
place = (49.036,117.875);
type = Stem;
},
{
place = (312.133,133.906);
type = Stem;
},
{
place = (277.242,134.849);
type = Stem;
},
{
horizontal = 1;
place = (-143.336,857.187);
type = Stem;
},
{
place = (0,134.849);
type = Stem;
},
{
horizontal = 1;
place = (-2.829,125.419);
type = Stem;
},
{
horizontal = 1;
place = (304.589,109.388);
type = Stem;
},
{
horizontal = 1;
place = (538.453,125.419);
type = Stem;
},
{
place = (259.325,117.875);
type = Stem;
},
{
place = (522.422,133.906);
type = Stem;
},
{
place = (487.531,134.849);
type = Stem;
}
);
layerId = "3B5F2A21-9AC0-43BD-916B-7DC2040966BF";
shapes = (
{
closed = 1;
nodes = (
(181.999,0,l),
(181.999,660.1,l),
(47.15,660.1,l),
(47.15,0,l)
);
},
{
closed = 1;
nodes = (
(567.686,-2.829,o),
(656.328,96.186,o),
(656.328,210.289,cs),
(656.328,329.107,o),
(568.629,394.174,o),
(418.692,394.174,c),
(417.749,365.884,l),
(642.183,660.1,l),
(413.034,525.251,l),
(325.335,423.407,l),
(325.335,304.589,l),
(430.008,304.589,ls),
(489.417,304.589,o),
(522.422,261.211,o),
(522.422,210.289,cs),
(522.422,158.424,o),
(488.474,122.59,o),
(434.723,122.59,cs),
(371.542,122.59,o),
(348.91,169.74,o),
(342.309,208.403,c),
(219.719,155.595,l),
(233.864,89.585,o),
(312.133,-2.829,o),
(434.723,-2.829,cs)
);
},
{
closed = 1;
nodes = (
(47.15,525.251,l),
(413.034,525.251,l),
(642.183,660.1,l),
(47.15,660.1,l)
);
}
);
width = 691.219;
},
{
associatedMasterId = "1041D826-7B5A-4F1A-81FD-3B5FB25AF0FC";
hints = (
{
horizontal = 1;
place = (-154.652,879.819);
type = Stem;
},
{
place = (33.948,66.01);
type = Stem;
},
{
horizontal = 1;
place = (-2.829,60.352);
type = Stem;
},
{
horizontal = 1;
place = (334.765,60.352);
type = Stem;
},
{
horizontal = 1;
place = (603.52,60.352);
type = Stem;
},
{
place = (345.138,66.01);
type = Stem;
},
{
place = (306.475,66.01);
type = Stem;
},
{
horizontal = 1;
place = (-2.829,60.352);
type = Stem;
},
{
horizontal = 1;
place = (334.765,60.352);
type = Stem;
},
{
horizontal = 1;
place = (603.52,60.352);
type = Stem;
},
{
place = (523.365,66.01);
type = Stem;
},
{
place = (484.702,66.01);
type = Stem;
}
);
layerId = "A2B7EBD0-345C-4216-B4F3-E973222430BD";
name = "26 juil. 23  17:28";
shapes = (
{
closed = 1;
nodes = (
(113.16,0,l),
(113.16,660.1,l),
(47.15,660.1,l),
(47.15,0,l)
);
},
{
closed = 1;
nodes = (
(496.961,-2.829,o),
(579.945,88.642,o),
(579.945,196.144,cs),
(579.945,315.905,o),
(497.904,380.972,o),
(408.319,380.972,c),
(408.319,353.625,l),
(492.246,353.625,o),
(541.282,430.008,o),
(541.282,498.847,cs),
(541.282,585.603,o),
(465.842,660.1,o),
(373.428,660.1,c),
(373.428,595.976,l),
(430.008,595.976,o),
(475.272,554.484,o),
(475.272,498.847,cs),
(475.272,440.381,o),
(439.438,392.288,o),
(354.568,392.288,cs),
(343.252,392.288,l),
(343.252,337.594,l),
(354.568,337.594,ls),
(458.298,337.594,o),
(513.935,273.47,o),
(513.935,196.144,cs),
(513.935,117.875,o),
(458.298,61.295,o),
(373.428,61.295,cs),
(312.133,61.295,o),
(271.584,89.585,o),
(241.408,149.937,c),
(181.999,122.59,l),
(215.004,45.264,o),
(289.501,-2.829,o),
(373.428,-2.829,cs)
);
},
{
closed = 1;
nodes = (
(47.15,595.976,l),
(373.428,595.976,l),
(373.428,660.1,l),
(47.15,660.1,l)
);
}
);
width = 594.09;
},
{
associatedMasterId = "3B5F2A21-9AC0-43BD-916B-7DC2040966BF";
hints = (
{
horizontal = 1;
place = (-2.829,125.419);
type = Stem;
},
{
horizontal = 1;
place = (304.589,109.388);
type = Stem;
},
{
horizontal = 1;
place = (538.453,125.419);
type = Stem;
},
{
place = (49.036,117.875);
type = Stem;
},
{
place = (312.133,133.906);
type = Stem;
},
{
place = (277.242,134.849);
type = Stem;
},
{
horizontal = 1;
place = (-143.336,857.187);
type = Stem;
},
{
place = (0,134.849);
type = Stem;
},
{
horizontal = 1;
place = (-2.829,125.419);
type = Stem;
},
{
horizontal = 1;
place = (304.589,109.388);
type = Stem;
},
{
horizontal = 1;
place = (538.453,125.419);
type = Stem;
},
{
place = (259.325,117.875);
type = Stem;
},
{
place = (522.422,133.906);
type = Stem;
},
{
place = (487.531,134.849);
type = Stem;
}
);
layerId = "A9EC8282-FF15-49F1-9D5A-663D9E134332";
name = "26 juil. 23  17:28";
shapes = (
{
closed = 1;
nodes = (
(181.999,0,l),
(181.999,660.1,l),
(47.15,660.1,l),
(47.15,0,l)
);
},
{
closed = 1;
nodes = (
(567.686,-2.829,o),
(656.328,96.186,o),
(656.328,210.289,cs),
(656.328,329.107,o),
(591.261,394.174,o),
(488.474,394.174,c),
(488.474,334.765,l),
(588.432,334.765,o),
(626.152,425.293,o),
(626.152,476.215,cs),
(626.152,571.458,o),
(543.168,660.1,o),
(434.723,660.1,c),
(434.723,525.251,l),
(471.5,525.251,o),
(494.132,506.391,o),
(494.132,476.215,cs),
(494.132,441.324,o),
(473.386,413.977,o),
(412.091,413.977,cs),
(398.889,413.977,l),
(398.889,304.589,l),
(409.262,304.589,ls),
(488.474,304.589,o),
(522.422,261.211,o),
(522.422,210.289,cs),
(522.422,158.424,o),
(488.474,122.59,o),
(434.723,122.59,cs),
(371.542,122.59,o),
(348.91,169.74,o),
(342.309,208.403,c),
(219.719,155.595,l),
(233.864,89.585,o),
(312.133,-2.829,o),
(434.723,-2.829,cs)
);
},
{
closed = 1;
nodes = (
(47.15,525.251,l),
(434.723,525.251,l),
(434.723,660.1,l),
(47.15,660.1,l)
);
}
);
width = 691.219;
},
{
hints = (
{
horizontal = 1;
place = (-162.196,894.907);
type = Stem;
},
{
place = (-115.989,31.119);
type = Stem;
},
{
horizontal = 1;
place = (-2.829,16.974);
type = Stem;
},
{
horizontal = 1;
place = (354.568,27.347);
type = Stem;
},
{
horizontal = 1;
place = (646.898,16.974);
type = Stem;
},
{
place = (366.827,20.746);
type = Stem;
},
{
place = (326.278,19.803);
type = Stem;
},
{
horizontal = 1;
place = (-2.829,16.974);
type = Stem;
},
{
horizontal = 1;
place = (354.568,27.347);
type = Stem;
},
{
horizontal = 1;
place = (646.898,16.974);
type = Stem;
},
{
place = (524.308,20.746);
type = Stem;
},
{
place = (482.816,19.803);
type = Stem;
}
);
layerId = "2AB56609-6B3E-483D-8034-BAE7113127E2";
shapes = (
{
closed = 1;
nodes = (
(66.953,0,l),
(66.953,660.1,l),
(47.15,660.1,l),
(47.15,0,l)
);
},
{
closed = 1;
nodes = (
(449.811,-2.829,o),
(529.023,83.927,o),
(529.023,186.714,cs),
(529.023,307.418,o),
(452.64,377.2,o),
(296.102,377.2,c),
(297.045,367.77,l),
(529.023,660.1,l),
(491.303,640.297,l),
(276.299,371.542,l),
(276.299,359.283,l),
(304.589,359.283,ls),
(453.583,359.283,o),
(508.277,281.957,o),
(508.277,186.714,cs),
(508.277,90.528,o),
(438.495,20.746,o),
(332.879,20.746,cs),
(272.527,20.746,o),
(219.719,35.834,o),
(174.455,111.274,c),
(156.538,100.901,l),
(202.745,16.031,o),
(274.413,-2.829,o),
(332.879,-2.829,cs)
);
},
{
closed = 1;
nodes = (
(47.15,640.297,l),
(491.303,640.297,l),
(529.023,660.1,l),
(47.15,660.1,l)
);
}
);
width = 529.33733;
},
{
hints = (
{
horizontal = 1;
place = (-141.45,853.415);
type = Stem;
},
{
place = (297.045,126.362);
type = Stem;
},
{
horizontal = 1;
place = (-2.829,136.735);
type = Stem;
},
{
horizontal = 1;
place = (299.874,117.875);
type = Stem;
},
{
horizontal = 1;
place = (528.08,136.735);
type = Stem;
},
{
place = (306.475,145.222);
type = Stem;
},
{
place = (272.527,146.165);
type = Stem;
},
{
horizontal = 1;
place = (-2.829,136.735);
type = Stem;
},
{
horizontal = 1;
place = (299.874,117.875);
type = Stem;
},
{
horizontal = 1;
place = (528.08,136.735);
type = Stem;
},
{
place = (522.422,145.222);
type = Stem;
},
{
place = (488.474,146.165);
type = Stem;
}
);
layerId = "1DB3F64C-B148-42AA-8299-ED68ABA9E6AC";
shapes = (
{
closed = 1;
nodes = (
(193.315,0,l),
(193.315,660.1,l),
(47.15,660.1,l),
(47.15,0,l)
);
},
{
closed = 1;
nodes = (
(579.945,-2.829,o),
(669.53,97.129,o),
(669.53,213.118,cs),
(669.53,330.993,o),
(579.945,396.06,o),
(430.951,396.06,c),
(430.008,365.884,l),
(653.499,660.1,l),
(405.49,513.935,l),
(330.05,429.065,l),
(330.05,298.931,l),
(442.267,298.931,ls),
(493.189,298.931,o),
(524.308,259.325,o),
(524.308,213.118,cs),
(524.308,165.025,o),
(493.189,132.963,o),
(445.096,132.963,cs),
(381.915,132.963,o),
(362.112,182.942,o),
(359.283,217.833,c),
(226.32,161.253,l),
(236.693,97.129,o),
(315.905,-2.829,o),
(445.096,-2.829,cs)
);
},
{
closed = 1;
nodes = (
(47.15,513.935,l),
(405.49,513.935,l),
(653.499,660.1,l),
(47.15,660.1,l)
);
}
);
width = 707.40717;
}
);
unicode = 7838;
},
{
glyphname = T;
kernLeft = T;
kernRight = T;
lastChange = "2023-10-27 12:49:24 +0000";
layers = (
{
anchors = (
{
name = bottom;
pos = (298.931,0);
},
{
name = top;
pos = (298.931,660.1);
}
);
hints = (
{
horizontal = 1;
place = (599.748,60.352);
type = Stem;
},
{
place = (210.289,66.01);
type = Stem;
}
);
layerId = "1041D826-7B5A-4F1A-81FD-3B5FB25AF0FC";
shapes = (
{
closed = 1;
nodes = (
(331.936,0,l),
(331.936,599.748,l),
(574.287,599.748,l),
(574.287,660.1,l),
(23.575,660.1,l),
(23.575,599.748,l),
(265.926,599.748,l),
(265.926,0,l)
);
}
);
width = 597.862;
},
{
anchors = (
{
name = bottom;
pos = (311.19,0);
},
{
name = top;
pos = (311.19,660.1);
}
);
hints = (
{
horizontal = 1;
place = (535.624,124.476);
type = Stem;
},
{
place = (195.201,134.849);
type = Stem;
}
);
layerId = "3B5F2A21-9AC0-43BD-916B-7DC2040966BF";
shapes = (
{
closed = 1;
nodes = (
(379.086,0,l),
(379.086,535.624,l),
(598.805,535.624,l),
(598.805,660.1,l),
(23.575,660.1,l),
(23.575,535.624,l),
(244.237,535.624,l),
(244.237,0,l)
);
}
);
width = 622.38;
},
{
anchors = (
{
name = bottom;
pos = (290.444,0);
},
{
name = top;
pos = (290.444,660.1);
}
);
hints = (
{
horizontal = 1;
place = (642.183,17.917);
type = Stem;
},
{
place = (220.662,19.803);
type = Stem;
}
);
layerId = "2AB56609-6B3E-483D-8034-BAE7113127E2";
shapes = (
{
closed = 1;
nodes = (
(300.817,0,l),
(300.817,642.183,l),
(558.256,642.183,l),
(558.256,660.1,l),
(23.575,660.1,l),
(23.575,642.183,l),
(280.071,642.183,l),
(280.071,0,l)
);
}
);
width = 581.51667;
},
{
anchors = (
{
name = bottom;
pos = (313.076,0);
},
{
name = top;
pos = (313.076,660.1);
}
);
hints = (
{
horizontal = 1;
place = (525.251,134.849);
type = Stem;
},
{
place = (192.372,146.165);
type = Stem;
}
);
layerId = "1DB3F64C-B148-42AA-8299-ED68ABA9E6AC";
shapes = (
{
closed = 1;
nodes = (
(386.63,0,l),
(386.63,525.251,l),
(602.577,525.251,l),
(602.577,660.1,l),
(23.575,660.1,l),
(23.575,525.251,l),
(240.465,525.251,l),
(240.465,0,l)
);
}
);
width = 626.46633;
}
);
note = T;
unicode = 84;
},
{
glyphname = U;
kernLeft = U;
kernRight = U;
lastChange = "2023-10-16 18:39:01 +0000";
layers = (
{
anchors = (
{
name = bottom;
pos = (333.822,0);
},
{
name = ogonek;
pos = (322.506,-10.373);
},
{
name = top;
pos = (333.822,660.1);
}
);
hints = (
{
horizontal = 1;
place = (-8.487,60.352);
type = Stem;
},
{
place = (65.067,66.01);
type = Stem;
},
{
place = (496.961,66.01);
type = Stem;
}
);
layerId = "1041D826-7B5A-4F1A-81FD-3B5FB25AF0FC";
shapes = (
{
closed = 1;
nodes = (
(470.557,-5.658,o),
(592.204,66.01,o),
(592.204,249.895,cs),
(592.204,660.1,l),
(526.194,660.1,l),
(526.194,249.895,ls),
(526.194,117.875,o),
(443.21,54.694,o),
(333.822,54.694,cs),
(224.434,54.694,o),
(141.45,117.875,o),
(141.45,249.895,cs),
(141.45,660.1,l),
(75.44,660.1,l),
(75.44,249.895,ls),
(75.44,66.01,o),
(197.087,-5.658,o),
(333.822,-5.658,cs)
);
}
);
width = 667.644;
},
{
anchors = (
{
name = bottom;
pos = (343.252,0);
},
{
name = ogonek;
pos = (322.506,-10.373);
},
{
name = top;
pos = (343.252,660.1);
}
);
hints = (
{
horizontal = 1;
place = (-8.487,124.476);
type = Stem;
},
{
place = (63.181,134.849);
type = Stem;
},
{
place = (448.868,134.849);
type = Stem;
}
);
layerId = "3B5F2A21-9AC0-43BD-916B-7DC2040966BF";
shapes = (
{
closed = 1;
nodes = (
(489.417,-5.658,o),
(611.064,66.01,o),
(611.064,249.895,cs),
(611.064,660.1,l),
(479.044,660.1,l),
(479.044,244.237,ls),
(479.044,157.481,o),
(424.35,115.989,o),
(343.252,115.989,cs),
(262.154,115.989,o),
(207.46,157.481,o),
(207.46,244.237,cs),
(207.46,660.1,l),
(75.44,660.1,l),
(75.44,249.895,ls),
(75.44,66.01,o),
(197.087,-5.658,o),
(343.252,-5.658,cs)
);
}
);
width = 686.504;
},
{
anchors = (
{
name = bottom;
pos = (327.221,0);
},
{
name = ogonek;
pos = (322.506,-10.373);
},
{
name = top;
pos = (327.221,660.1);
}
);
hints = (
{
horizontal = 1;
place = (-8.487,17.917);
type = Stem;
},
{
place = (66.01,19.803);
type = Stem;
},
{
place = (529.023,19.803);
type = Stem;
}
);
layerId = "2AB56609-6B3E-483D-8034-BAE7113127E2";
shapes = (
{
closed = 1;
nodes = (
(458.298,-5.658,o),
(579.945,66.01,o),
(579.945,249.895,cs),
(579.945,660.1,l),
(557.313,660.1,l),
(557.313,253.667,ls),
(557.313,91.471,o),
(455.469,14.145,o),
(327.221,14.145,cs),
(198.973,14.145,o),
(97.129,91.471,o),
(97.129,253.667,cs),
(97.129,660.1,l),
(75.44,660.1,l),
(75.44,249.895,ls),
(75.44,66.01,o),
(197.087,-5.658,o),
(327.221,-5.658,cs)
);
}
);
width = 655.07067;
},
{
anchors = (
{
name = bottom;
pos = (345.138,0);
},
{
name = ogonek;
pos = (322.506,-10.373);
},
{
name = top;
pos = (345.138,660.1);
}
);
hints = (
{
horizontal = 1;
place = (-8.487,134.849);
type = Stem;
},
{
place = (63.181,146.165);
type = Stem;
},
{
place = (441.324,146.165);
type = Stem;
}
);
layerId = "1DB3F64C-B148-42AA-8299-ED68ABA9E6AC";
shapes = (
{
closed = 1;
nodes = (
(492.246,-5.658,o),
(613.893,66.01,o),
(613.893,249.895,cs),
(613.893,660.1,l),
(471.5,660.1,l),
(471.5,243.294,ls),
(471.5,164.082,o),
(421.521,126.362,o),
(345.138,126.362,cs),
(268.755,126.362,o),
(218.776,164.082,o),
(218.776,243.294,cs),
(218.776,660.1,l),
(75.44,660.1,l),
(75.44,249.895,ls),
(75.44,66.01,o),
(197.087,-5.658,o),
(345.138,-5.658,cs)
);
}
);
width = 689.64733;
}
);
note = U;
unicode = 85;
},
{
glyphname = V;
kernLeft = V;
kernRight = V;
lastChange = "2023-10-27 12:49:24 +0000";
layers = (
{
anchors = (
{
name = bottom;
pos = (309.304,0);
},
{
name = top;
pos = (309.304,660.1);
}
);
hints = (
{
horizontal = 1;
place = (0,660.1);
type = Stem;
},
{
place = (13.202,581.831);
type = Stem;
}
);
layerId = "1041D826-7B5A-4F1A-81FD-3B5FB25AF0FC";
shapes = (
{
closed = 1;
nodes = (
(336.651,0,l),
(592.204,660.1,l),
(522.422,660.1,l),
(297.045,77.326,l),
(314.962,77.326,l),
(88.642,660.1,l),
(18.86,660.1,l),
(275.356,0,l)
);
}
);
width = 611.064;
},
{
anchors = (
{
name = bottom;
pos = (331.936,0);
},
{
name = top;
pos = (331.936,660.1);
}
);
hints = (
{
horizontal = 1;
place = (0,660.1);
type = Stem;
},
{
place = (9.43,627.095);
type = Stem;
}
);
layerId = "3B5F2A21-9AC0-43BD-916B-7DC2040966BF";
shapes = (
{
closed = 1;
nodes = (
(415.863,0,l),
(671.416,660.1,l),
(528.08,660.1,l),
(330.05,148.994,l),
(360.226,148.994,l),
(162.196,660.1,l),
(18.86,660.1,l),
(274.413,0,l)
);
}
);
width = 690.276;
},
{
anchors = (
{
name = bottom;
pos = (294.216,0);
},
{
name = top;
pos = (294.216,660.1);
}
);
hints = (
{
horizontal = 1;
place = (0,660.1);
type = Stem;
},
{
place = (16.031,551.655);
type = Stem;
}
);
layerId = "2AB56609-6B3E-483D-8034-BAE7113127E2";
shapes = (
{
closed = 1;
nodes = (
(283.843,0,l),
(539.396,660.1,l),
(518.65,660.1,l),
(275.356,29.233,l),
(284.786,29.233,l),
(39.606,660.1,l),
(18.86,660.1,l),
(276.299,0,l)
);
}
);
width = 558.256;
},
{
anchors = (
{
name = bottom;
pos = (335.708,0);
},
{
name = top;
pos = (335.708,660.1);
}
);
hints = (
{
horizontal = 1;
place = (0,660.1);
type = Stem;
},
{
place = (8.487,634.639);
type = Stem;
}
);
layerId = "1DB3F64C-B148-42AA-8299-ED68ABA9E6AC";
shapes = (
{
closed = 1;
nodes = (
(429.065,0,l),
(684.618,660.1,l),
(529.023,660.1,l),
(335.708,161.253,l),
(367.77,161.253,l),
(174.455,660.1,l),
(18.86,660.1,l),
(274.413,0,l)
);
}
);
width = 703.478;
}
);
note = V;
unicode = 86;
},
{
glyphname = W;
kernLeft = W;
kernRight = W;
lastChange = "2023-10-27 12:49:24 +0000";
layers = (
{
anchors = (
{
name = bottom;
pos = (450.754,0);
},
{
name = top;
pos = (450.754,660.1);
}
);
hints = (
{
horizontal = 1;
place = (0,660.1);
type = Stem;
},
{
place = (21.689,864.731);
type = Stem;
}
);
layerId = "1041D826-7B5A-4F1A-81FD-3B5FB25AF0FC";
shapes = (
{
closed = 1;
nodes = (
(250.838,0,l),
(450.754,562.971,l),
(650.67,0,l),
(719.509,0,l),
(883.591,660.1,l),
(815.695,660.1,l),
(679.903,113.16,l),
(485.645,660.1,l),
(415.863,660.1,l),
(221.605,114.103,l),
(86.756,660.1,l),
(18.86,660.1,l),
(182.942,0,l)
);
}
);
width = 902.451;
},
{
anchors = (
{
name = bottom;
pos = (452.64,0);
},
{
name = top;
pos = (452.64,660.1);
}
);
hints = (
{
horizontal = 1;
place = (0,660.1);
type = Stem;
},
{
place = (10.373,867.56);
type = Stem;
}
);
layerId = "3B5F2A21-9AC0-43BD-916B-7DC2040966BF";
shapes = (
{
closed = 1;
nodes = (
(300.817,0,l),
(452.64,426.236,l),
(603.52,0,l),
(722.338,0,l),
(886.42,660.1,l),
(747.799,660.1,l),
(650.67,267.812,l),
(511.106,660.1,l),
(394.174,660.1,l),
(254.61,267.812,l),
(157.481,660.1,l),
(18.86,660.1,l),
(182.942,0,l)
);
}
);
width = 905.28;
},
{
anchors = (
{
name = bottom;
pos = (449.811,0);
},
{
name = top;
pos = (449.811,660.1);
}
);
hints = (
{
horizontal = 1;
place = (0,660.1);
type = Stem;
},
{
place = (29.233,862.845);
type = Stem;
}
);
layerId = "2AB56609-6B3E-483D-8034-BAE7113127E2";
shapes = (
{
closed = 1;
nodes = (
(217.833,0,l),
(449.811,654.442,l),
(681.789,0,l),
(717.623,0,l),
(881.705,660.1,l),
(860.959,660.1,l),
(699.706,10.373,l),
(468.671,660.1,l),
(430.008,660.1,l),
(199.916,11.316,l),
(39.606,660.1,l),
(18.86,660.1,l),
(182.942,0,l)
);
}
);
width = 900.565;
},
{
anchors = (
{
name = bottom;
pos = (452.64,0);
},
{
name = top;
pos = (452.64,660.1);
}
);
hints = (
{
horizontal = 1;
place = (0,660.1);
type = Stem;
},
{
place = (8.487,868.503);
type = Stem;
}
);
layerId = "1DB3F64C-B148-42AA-8299-ED68ABA9E6AC";
shapes = (
{
closed = 1;
nodes = (
(309.304,0,l),
(452.64,403.604,l),
(595.976,0,l),
(723.281,0,l),
(887.363,660.1,l),
(736.483,660.1,l),
(645.955,293.273,l),
(515.821,660.1,l),
(390.402,660.1,l),
(260.268,293.273,l),
(169.74,660.1,l),
(18.86,660.1,l),
(182.942,0,l)
);
}
);
width = 905.7515;
}
);
note = W;
unicode = 87;
},
{
glyphname = X;
kernLeft = X;
kernRight = X;
lastChange = "2023-10-27 12:49:24 +0000";
layers = (
{
anchors = (
{
name = bottom;
pos = (339.48,0);
},
{
name = top;
pos = (339.48,660.1);
}
);
hints = (
{
horizontal = 1;
place = (0,660.1);
type = Stem;
},
{
place = (16.974,698.763);
type = Stem;
}
);
layerId = "1041D826-7B5A-4F1A-81FD-3B5FB25AF0FC";
shapes = (
{
closed = 1;
nodes = (
(306.475,361.169,l),
(14.145,0,l),
(96.186,0,l),
(347.967,311.19,l)
);
},
{
closed = 1;
nodes = (
(583.717,0,l),
(665.758,0,l),
(129.191,660.1,l),
(47.15,660.1,l)
);
},
{
closed = 1;
nodes = (
(375.314,339.48,l),
(636.525,660.1,l),
(554.484,660.1,l),
(333.822,390.402,l)
);
}
);
width = 679.903;
},
{
anchors = (
{
name = bottom;
pos = (378.143,0);
},
{
name = top;
pos = (378.143,660.1);
}
);
hints = (
{
horizontal = 1;
place = (0,660.1);
type = Stem;
},
{
place = (6.601,776.089);
type = Stem;
}
);
layerId = "3B5F2A21-9AC0-43BD-916B-7DC2040966BF";
shapes = (
{
closed = 1;
nodes = (
(308.361,358.34,l),
(14.145,0,l),
(181.999,0,l),
(393.231,254.61,l)
);
},
{
closed = 1;
nodes = (
(575.23,0,l),
(743.084,0,l),
(206.517,660.1,l),
(37.72,660.1,l)
);
},
{
closed = 1;
nodes = (
(454.526,326.278,l),
(723.281,660.1,l),
(554.484,660.1,l),
(368.713,429.065,l)
);
}
);
width = 757.229;
},
{
anchors = (
{
name = bottom;
pos = (314.019,0);
},
{
name = top;
pos = (314.019,660.1);
}
);
hints = (
{
horizontal = 1;
place = (0,660.1);
type = Stem;
},
{
place = (23.575,646.898);
type = Stem;
}
);
layerId = "2AB56609-6B3E-483D-8034-BAE7113127E2";
shapes = (
{
closed = 1;
nodes = (
(305.532,363.055,l),
(14.145,0,l),
(38.663,0,l),
(317.791,348.91,l)
);
},
{
closed = 1;
nodes = (
(589.375,0,l),
(613.893,0,l),
(77.326,660.1,l),
(53.751,660.1,l)
);
},
{
closed = 1;
nodes = (
(322.506,347.967,l),
(579.002,660.1,l),
(554.484,660.1,l),
(310.247,364.941,l)
);
}
);
width = 628.35233;
},
{
anchors = (
{
name = bottom;
pos = (384.744,0);
},
{
name = top;
pos = (384.744,660.1);
}
);
hints = (
{
horizontal = 1;
place = (0,660.1);
type = Stem;
},
{
place = (4.715,789.291);
type = Stem;
}
);
layerId = "1DB3F64C-B148-42AA-8299-ED68ABA9E6AC";
shapes = (
{
closed = 1;
nodes = (
(308.361,358.34,l),
(14.145,0,l),
(196.144,0,l),
(400.775,245.18,l)
);
},
{
closed = 1;
nodes = (
(574.287,0,l),
(756.286,0,l),
(219.719,660.1,l),
(35.834,660.1,l)
);
},
{
closed = 1;
nodes = (
(467.728,324.392,l),
(737.426,660.1,l),
(554.484,660.1,l),
(374.371,435.666,l)
);
}
);
width = 770.11667;
}
);
note = X;
unicode = 88;
},
{
glyphname = Y;
kernLeft = Y;
kernRight = Y;
lastChange = "2023-10-27 12:49:24 +0000";
layers = (
{
anchors = (
{
name = bottom;
pos = (311.19,0);
},
{
name = top;
pos = (311.19,660.1);
}
);
hints = (
{
horizontal = 1;
place = (0,660.1);
type = Stem;
},
{
place = (267.812,66.01);
type = Stem;
}
);
layerId = "1041D826-7B5A-4F1A-81FD-3B5FB25AF0FC";
shapes = (
{
closed = 1;
nodes = (
(344.195,0,l),
(344.195,319.677,l),
(608.235,660.1,l),
(527.137,660.1,l),
(311.19,381.915,l),
(95.243,660.1,l),
(14.145,660.1,l),
(278.185,319.677,l),
(278.185,0,l)
);
}
);
width = 622.38;
},
{
anchors = (
{
name = bottom;
pos = (353.625,0);
},
{
name = top;
pos = (353.625,660.1);
}
);
hints = (
{
horizontal = 1;
place = (0,660.1);
type = Stem;
},
{
place = (281.014,133.906);
type = Stem;
}
);
layerId = "3B5F2A21-9AC0-43BD-916B-7DC2040966BF";
shapes = (
{
closed = 1;
nodes = (
(420.578,0,l),
(420.578,309.304,l),
(693.105,660.1,l),
(527.137,660.1,l),
(353.625,436.609,l),
(180.113,660.1,l),
(14.145,660.1,l),
(286.672,309.304,l),
(286.672,0,l)
);
}
);
width = 707.25;
},
{
anchors = (
{
name = bottom;
pos = (282.9,0);
},
{
name = top;
pos = (282.9,660.1);
}
);
hints = (
{
horizontal = 1;
place = (0,660.1);
type = Stem;
},
{
place = (259.325,20.746);
type = Stem;
}
);
layerId = "2AB56609-6B3E-483D-8034-BAE7113127E2";
shapes = (
{
closed = 1;
nodes = (
(293.273,0,l),
(293.273,326.278,l),
(551.655,660.1,l),
(527.137,660.1,l),
(282.9,345.138,l),
(38.663,660.1,l),
(14.145,660.1,l),
(272.527,326.278,l),
(272.527,0,l)
);
}
);
width = 565.8;
},
{
anchors = (
{
name = bottom;
pos = (361.169,0);
},
{
name = top;
pos = (361.169,660.1);
}
);
hints = (
{
horizontal = 1;
place = (0,660.1);
type = Stem;
},
{
place = (282.9,145.222);
type = Stem;
}
);
layerId = "1DB3F64C-B148-42AA-8299-ED68ABA9E6AC";
shapes = (
{
closed = 1;
nodes = (
(433.78,0,l),
(433.78,307.418,l),
(707.25,660.1,l),
(527.137,660.1,l),
(361.169,446.039,l),
(194.258,660.1,l),
(14.145,660.1,l),
(288.558,307.418,l),
(288.558,0,l)
);
}
);
width = 721.395;
}
);
note = Y;
unicode = 89;
},
{
glyphname = Z;
kernLeft = Z;
kernRight = Z;
lastChange = "2023-10-27 12:49:24 +0000";
layers = (
{
anchors = (
{
name = bottom;
pos = (288.558,0);
},
{
name = top;
pos = (288.558,660.1);
}
);
hints = (
{
horizontal = 1;
place = (0,60.352);
type = Stem;
},
{
horizontal = 1;
place = (599.748,60.352);
type = Stem;
},
{
place = (18.86,557.313);
type = Stem;
}
);
layerId = "1041D826-7B5A-4F1A-81FD-3B5FB25AF0FC";
shapes = (
{
closed = 1;
nodes = (
(560.142,0,l),
(560.142,60.352,l),
(132.963,60.352,l),
(567.686,660.1,l),
(68.839,660.1,l),
(68.839,599.748,l),
(445.096,599.748,l),
(9.43,0,l)
);
}
);
width = 577.116;
},
{
anchors = (
{
name = bottom;
pos = (333.822,0);
},
{
name = top;
pos = (333.822,660.1);
}
);
hints = (
{
horizontal = 1;
place = (0,124.476);
type = Stem;
},
{
horizontal = 1;
place = (535.624,124.476);
type = Stem;
},
{
place = (5.658,640.297);
type = Stem;
}
);
layerId = "3B5F2A21-9AC0-43BD-916B-7DC2040966BF";
shapes = (
{
closed = 1;
nodes = (
(647.841,0,l),
(647.841,124.476,l),
(262.154,124.476,l),
(649.727,660.1,l),
(48.093,660.1,l),
(48.093,535.624,l),
(397.946,535.624,l),
(9.43,0,l)
);
}
);
width = 668.587;
},
{
anchors = (
{
name = bottom;
pos = (258.382,0);
},
{
name = top;
pos = (258.382,660.1);
}
);
hints = (
{
horizontal = 1;
place = (0,17.917);
type = Stem;
},
{
horizontal = 1;
place = (642.183,17.917);
type = Stem;
},
{
place = (27.347,501.676);
type = Stem;
}
);
layerId = "2AB56609-6B3E-483D-8034-BAE7113127E2";
shapes = (
{
closed = 1;
nodes = (
(501.676,0,l),
(501.676,17.917,l),
(47.15,17.917,l),
(512.992,660.1,l),
(82.984,660.1,l),
(82.984,642.183,l),
(476.215,642.183,l),
(9.43,0,l)
);
}
);
width = 516.13533;
},
{
anchors = (
{
name = bottom;
pos = (341.366,0);
},
{
name = top;
pos = (341.366,660.1);
}
);
hints = (
{
horizontal = 1;
place = (0,134.849);
type = Stem;
},
{
horizontal = 1;
place = (525.251,134.849);
type = Stem;
},
{
place = (3.772,654.442);
type = Stem;
}
);
layerId = "1DB3F64C-B148-42AA-8299-ED68ABA9E6AC";
shapes = (
{
closed = 1;
nodes = (
(662.929,0,l),
(662.929,134.849,l),
(283.843,134.849,l),
(663.872,660.1,l),
(44.321,660.1,l),
(44.321,525.251,l),
(390.402,525.251,l),
(9.43,0,l)
);
}
);
width = 683.83217;
}
);
note = Z;
unicode = 90;
},
{
glyphname = a;
kernLeft = a;
kernRight = a;
lastChange = "2023-10-27 12:49:24 +0000";
layers = (
{
anchors = (
{
name = bottom;
pos = (236.693,0);
},
{
name = ogonek;
pos = (344.195,-5.658);
},
{
name = top;
pos = (236.693,471.5);
}
);
hints = (
{
horizontal = 1;
place = (-5.658,60.352);
type = Stem;
},
{
horizontal = 1;
place = (231.978,53.751);
type = Stem;
},
{
horizontal = 1;
place = (419.635,60.352);
type = Stem;
},
{
place = (44.321,66.01);
type = Stem;
},
{
place = (349.853,66.01);
type = Stem;
}
);
layerId = "1041D826-7B5A-4F1A-81FD-3B5FB25AF0FC";
shapes = (
{
closed = 1;
nodes = (
(293.273,-5.658,o),
(346.081,61.295,o),
(346.081,126.362,c),
(343.252,144.279,l),
(343.252,0,l),
(409.262,0,l),
(409.262,316.848,ls),
(409.262,430.008,o),
(322.506,477.158,o),
(225.377,477.158,cs),
(134.849,477.158,o),
(82.041,432.837,o),
(49.036,391.345,c),
(94.3,351.739,l),
(128.248,392.288,o),
(165.968,416.806,o),
(225.377,416.806,cs),
(298.931,416.806,o),
(343.252,386.63,o),
(343.252,316.848,cs),
(343.252,231.035,l),
(367.77,266.869,l),
(334.765,277.242,o),
(288.558,283.843,o),
(248.009,283.843,cs),
(138.621,283.843,o),
(37.72,251.781,o),
(37.72,129.191,cs),
(37.72,66.953,o),
(82.041,-5.658,o),
(196.144,-5.658,cs)
);
},
{
closed = 1;
nodes = (
(133.906,56.58,o),
(103.73,98.072,o),
(103.73,136.735,cs),
(103.73,206.517,o),
(163.139,232.921,o),
(261.211,232.921,cs),
(292.33,232.921,o),
(323.449,228.206,o),
(343.252,223.491,c),
(343.252,115.989,o),
(287.615,56.58,o),
(196.144,56.58,cs)
);
}
);
width = 479.987;
},
{
anchors = (
{
name = bottom;
pos = (238.579,0);
},
{
name = ogonek;
pos = (307.418,-5.658);
},
{
name = top;
pos = (238.579,471.5);
}
);
hints = (
{
horizontal = 1;
place = (-4.715,118.818);
type = Stem;
},
{
horizontal = 1;
place = (207.46,93.357);
type = Stem;
},
{
horizontal = 1;
place = (369.656,110.331);
type = Stem;
},
{
place = (34.891,119.761);
type = Stem;
},
{
place = (305.532,129.191);
type = Stem;
}
);
layerId = "3B5F2A21-9AC0-43BD-916B-7DC2040966BF";
shapes = (
{
closed = 1;
nodes = (
(268.755,-4.715,o),
(308.361,29.233,o),
(310.247,74.497,c),
(305.532,93.357,l),
(305.532,0,l),
(434.723,0,l),
(434.723,297.988,ls),
(434.723,415.863,o),
(337.594,477.158,o),
(225.377,477.158,cs),
(133.906,477.158,o),
(68.839,431.894,o),
(33.948,382.858,c),
(121.647,303.646,l),
(148.994,343.252,o),
(182.942,360.226,o),
(225.377,360.226,cs),
(281.014,360.226,o),
(305.532,337.594,o),
(305.532,303.646,cs),
(305.532,250.838,l),
(323.449,287.615,l),
(305.532,295.159,o),
(264.983,303.646,o),
(225.377,303.646,cs),
(125.419,303.646,o),
(25.461,260.268,o),
(25.461,144.279,cs),
(25.461,67.896,o),
(76.383,-4.715,o),
(200.859,-4.715,cs)
);
},
{
closed = 1;
nodes = (
(170.683,114.103,o),
(154.652,132.963,o),
(154.652,151.823,cs),
(154.652,191.429,o),
(189.543,207.46,o),
(248.009,207.46,cs),
(265.926,207.46,o),
(288.558,204.631,o),
(305.532,198.973,c),
(304.589,148.051,o),
(267.812,114.103,o),
(207.46,114.103,cs)
);
}
);
width = 477.158;
},
{
anchors = (
{
name = bottom;
pos = (235.75,0);
},
{
name = ogonek;
pos = (368.713,-5.658);
},
{
name = top;
pos = (235.75,471.5);
}
);
hints = (
{
horizontal = 1;
place = (-6.601,21.689);
type = Stem;
},
{
horizontal = 1;
place = (248.009,27.347);
type = Stem;
},
{
horizontal = 1;
place = (452.64,27.347);
type = Stem;
},
{
place = (50.922,30.176);
type = Stem;
},
{
place = (379.086,23.575);
type = Stem;
}
);
layerId = "2AB56609-6B3E-483D-8034-BAE7113127E2";
shapes = (
{
closed = 1;
nodes = (
(308.568,-6.601,o),
(369.863,80.155,o),
(369.863,160.31,c),
(367.977,178.227,l),
(367.977,0,l),
(391.552,0,l),
(391.552,329.107,ls),
(391.552,439.438,o),
(311.397,477.158,o),
(224.641,477.158,cs),
(135.056,477.158,o),
(89.792,433.78,o),
(58.673,397.003,c),
(75.647,383.801,l),
(113.367,425.293,o),
(153.916,454.526,o),
(224.641,454.526,cs),
(310.454,454.526,o),
(367.977,419.635,o),
(367.977,325.335,cs),
(367.977,251.781,l),
(376.464,258.382,l),
(339.687,266.869,o),
(297.252,270.641,o),
(262.361,270.641,cs),
(146.372,270.641,o),
(45.471,246.123,o),
(45.471,118.818,cs),
(45.471,66.01,o),
(85.077,-6.601,o),
(192.579,-6.601,cs)
);
},
{
closed = 1;
nodes = (
(108.652,17.917,o),
(69.046,74.497,o),
(69.046,126.362,cs),
(69.046,216.89,o),
(144.486,249.895,o),
(268.962,249.895,cs),
(309.511,249.895,o),
(346.288,244.237,o),
(367.977,239.522,c),
(367.977,94.3,o),
(300.081,17.917,o),
(187.864,17.917,cs)
);
}
);
width = 481.873;
},
{
anchors = (
{
name = bottom;
pos = (238.579,0);
},
{
name = ogonek;
pos = (301.76,-5.658);
},
{
name = top;
pos = (238.579,471.5);
}
);
hints = (
{
horizontal = 1;
place = (-4.715,128.248);
type = Stem;
},
{
horizontal = 1;
place = (203.688,99.958);
type = Stem;
},
{
horizontal = 1;
place = (361.169,118.818);
type = Stem;
},
{
place = (33.005,129.191);
type = Stem;
},
{
place = (297.988,139.564);
type = Stem;
}
);
layerId = "1DB3F64C-B148-42AA-8299-ED68ABA9E6AC";
shapes = (
{
closed = 1;
nodes = (
(264.983,-4.715,o),
(302.703,23.575,o),
(303.646,66.01,c),
(298.931,84.87,l),
(298.931,0,l),
(439.438,0,l),
(439.438,295.159,ls),
(439.438,413.977,o),
(340.423,477.158,o),
(225.377,477.158,cs),
(133.906,477.158,o),
(66.953,431.894,o),
(31.119,381.915,c),
(126.362,296.102,l),
(152.766,334.765,o),
(185.771,350.796,o),
(225.377,350.796,cs),
(278.185,350.796,o),
(298.931,329.107,o),
(298.931,301.76,cs),
(298.931,254.61,l),
(314.962,292.33,l),
(300.817,297.045,o),
(261.211,307.418,o),
(221.605,307.418,cs),
(123.533,307.418,o),
(23.575,262.154,o),
(23.575,147.108,cs),
(23.575,67.896,o),
(75.44,-4.715,o),
(201.802,-4.715,cs)
);
},
{
closed = 1;
nodes = (
(177.284,123.533,o),
(163.139,138.621,o),
(163.139,154.652,cs),
(163.139,188.6,o),
(194.258,203.688,o),
(246.123,203.688,cs),
(261.211,203.688,o),
(282.9,200.859,o),
(298.931,195.201,c),
(298.931,153.709,o),
(264.983,123.533,o),
(209.346,123.533,cs)
);
}
);
width = 476.6865;
}
);
note = a;
unicode = 97;
},
{
glyphname = b;
kernLeft = b;
kernRight = b;
lastChange = "2023-10-27 12:55:19 +0000";
layers = (
{
anchors = (
{
name = bottom;
pos = (266.869,0);
},
{
name = top;
pos = (266.869,471.5);
}
);
hints = (
{
horizontal = 1;
place = (-5.658,60.352);
type = Stem;
},
{
horizontal = 1;
place = (428.122,60.352);
type = Stem;
},
{
place = (71.668,66.01);
type = Stem;
},
{
place = (460.184,66.01);
type = Stem;
}
);
layerId = "1041D826-7B5A-4F1A-81FD-3B5FB25AF0FC";
shapes = (
{
pos = (0,472);
ref = p;
scale = (1,-1);
}
);
width = 543.168;
},
{
anchors = (
{
name = bottom;
pos = (281.014,0);
},
{
name = top;
pos = (281.014,471.5);
}
);
hints = (
{
horizontal = 1;
place = (-6.601,120.704);
type = Stem;
},
{
horizontal = 1;
place = (360.226,119.761);
type = Stem;
},
{
place = (67.896,129.191);
type = Stem;
},
{
place = (400.775,129.191);
type = Stem;
}
);
layerId = "3B5F2A21-9AC0-43BD-916B-7DC2040966BF";
shapes = (
{
pos = (0,472);
ref = p;
scale = (1,-1);
}
);
width = 571.458;
},
{
anchors = (
{
name = bottom;
pos = (276.299,0);
},
{
name = top;
pos = (276.299,471.5);
}
);
associatedMasterId = "3B5F2A21-9AC0-43BD-916B-7DC2040966BF";
hints = (
{
horizontal = 1;
place = (-6.601,120.704);
type = Stem;
},
{
horizontal = 1;
place = (360.226,119.761);
type = Stem;
},
{
place = (67.896,129.191);
type = Stem;
},
{
place = (400.775,129.191);
type = Stem;
}
);
layerId = "503A9756-814F-4858-832D-3855755A0157";
name = "26 juil. 23  11:52";
shapes = (
{
closed = 1;
nodes = (
(427.179,-6.601,o),
(529.966,103.73,o),
(529.966,238.579,cs),
(529.966,374.371,o),
(422.464,479.987,o),
(286.672,479.987,cs),
(248.009,479.987,o),
(218.776,470.557,o),
(197.087,455.469,c),
(197.087,660.1,l),
(67.896,660.1,l),
(67.896,0,l),
(197.087,0,l),
(197.087,18.86,l),
(222.548,2.829,o),
(253.667,-6.601,o),
(292.33,-6.601,cs)
);
},
{
closed = 1;
nodes = (
(248.009,114.103,o),
(215.947,131.077,o),
(197.087,153.709,c),
(197.087,314.019,l),
(209.346,339.48,o),
(237.636,360.226,o),
(286.672,360.226,cs),
(347.024,360.226,o),
(400.775,311.19,o),
(400.775,238.579,cs),
(400.775,165.968,o),
(351.739,114.103,o),
(292.33,114.103,cs)
);
}
);
width = 553.541;
},
{
anchors = (
{
name = bottom;
pos = (276.299,0);
},
{
name = top;
pos = (276.299,471.5);
}
);
associatedMasterId = "1041D826-7B5A-4F1A-81FD-3B5FB25AF0FC";
hints = (
{
horizontal = 1;
place = (-5.658,60.352);
type = Stem;
},
{
horizontal = 1;
place = (428.122,60.352);
type = Stem;
},
{
place = (71.668,66.01);
type = Stem;
},
{
place = (460.184,66.01);
type = Stem;
}
);
layerId = "8130054F-8247-43B9-AA21-8BD55B4CF1A9";
name = "26 juil. 23  11:52";
shapes = (
{
closed = 1;
nodes = (
(424.35,-5.658,o),
(526.194,101.844,o),
(526.194,239.522,cs),
(526.194,376.257,o),
(417.749,488.474,o),
(284.786,488.474,cs),
(218.776,488.474,o),
(170.683,461.127,o),
(137.678,427.179,c),
(137.678,660.1,l),
(71.668,660.1,l),
(71.668,0,l),
(137.678,0,l),
(137.678,55.637,l),
(174.455,16.974,o),
(226.32,-5.658,o),
(291.387,-5.658,cs)
);
},
{
closed = 1;
nodes = (
(210.289,54.694,o),
(156.538,100.901,o),
(137.678,148.994,c),
(137.678,335.708,l),
(153.709,380.029,o),
(201.802,428.122,o),
(284.786,428.122,cs),
(379.086,428.122,o),
(460.184,345.138,o),
(460.184,239.522,cs),
(460.184,132.963,o),
(384.744,54.694,o),
(291.387,54.694,cs)
);
}
);
width = 553.541;
},
{
anchors = (
{
name = bottom;
pos = (257.439,0);
},
{
name = top;
pos = (257.439,471.5);
}
);
hints = (
{
horizontal = 1;
place = (-4.715,19.803);
type = Stem;
},
{
horizontal = 1;
place = (473.386,20.746);
type = Stem;
},
{
place = (74.497,23.575);
type = Stem;
},
{
place = (499.79,23.575);
type = Stem;
}
);
layerId = "2AB56609-6B3E-483D-8034-BAE7113127E2";
shapes = (
{
pos = (0,472);
ref = p;
scale = (1,-1);
}
);
width = 524.308;
},
{
anchors = (
{
name = bottom;
pos = (283.843,0);
},
{
name = top;
pos = (283.843,471.5);
}
);
hints = (
{
horizontal = 1;
place = (-6.601,131.077);
type = Stem;
},
{
horizontal = 1;
place = (348.91,130.134);
type = Stem;
},
{
place = (66.953,139.564);
type = Stem;
},
{
place = (391.345,139.564);
type = Stem;
}
);
layerId = "1DB3F64C-B148-42AA-8299-ED68ABA9E6AC";
shapes = (
{
pos = (0,472);
ref = p;
scale = (1,-1);
}
);
width = 576.173;
}
);
note = b;
unicode = 98;
},
{
glyphname = c;
kernLeft = c;
kernRight = c;
lastChange = "2023-10-27 12:49:24 +0000";
layers = (
{
anchors = (
{
name = bottom;
pos = (245.18,0);
},
{
name = top;
pos = (270.471,471.5);
}
);
hints = (
{
horizontal = 1;
place = (-10.373,60.352);
type = Stem;
},
{
horizontal = 1;
place = (426.236,60.352);
type = Stem;
},
{
place = (34.891,66.01);
type = Stem;
}
);
layerId = "1041D826-7B5A-4F1A-81FD-3B5FB25AF0FC";
shapes = (
{
closed = 1;
nodes = (
(373.428,-5.658,o),
(436.609,35.834,o),
(472.443,87.699,c),
(422.464,128.248,l),
(397.003,88.642,o),
(358.34,54.694,o),
(281.014,54.694,cs),
(181.999,54.694,o),
(99.015,118.818,o),
(99.015,236.693,cs),
(99.015,347.967,o),
(180.113,416.806,o),
(281.014,416.806,cs),
(342.309,416.806,o),
(396.06,386.63,o),
(416.806,340.423,c),
(465.842,382.858,l),
(431.894,446.982,o),
(350.796,477.158,o),
(281.014,477.158,cs),
(140.507,477.158,o),
(33.005,379.086,o),
(33.005,236.693,cs),
(33.005,86.756,o),
(144.279,-5.658,o),
(281.014,-5.658,cs)
);
}
);
width = 500.733;
},
{
anchors = (
{
name = bottom;
pos = (263.097,0);
},
{
name = top;
pos = (281.405,471.5);
}
);
hints = (
{
horizontal = 1;
place = (-8.487,118.818);
type = Stem;
},
{
horizontal = 1;
place = (365.884,119.761);
type = Stem;
},
{
place = (30.176,129.191);
type = Stem;
}
);
layerId = "3B5F2A21-9AC0-43BD-916B-7DC2040966BF";
shapes = (
{
closed = 1;
nodes = (
(395.117,-5.658,o),
(469.614,42.435,o),
(507.334,104.673,c),
(411.148,182.942,l),
(387.573,134.849,o),
(346.081,113.16,o),
(291.387,113.16,cs),
(217.833,113.16,o),
(162.196,158.424,o),
(162.196,235.75,cs),
(162.196,308.361,o),
(216.89,357.397,o),
(291.387,357.397,cs),
(332.879,357.397,o),
(382.858,338.537,o),
(406.433,295.159,c),
(496.961,380.972,l),
(459.241,434.723,o),
(380.029,477.158,o),
(291.387,477.158,cs),
(139.564,477.158,o),
(33.005,369.656,o),
(33.005,235.75,cs),
(33.005,94.3,o),
(144.279,-5.658,o),
(291.387,-5.658,cs)
);
}
);
width = 535.624;
},
{
anchors = (
{
name = bottom;
pos = (232.921,0);
},
{
name = top;
pos = (260.696,471.5);
}
);
hints = (
{
horizontal = 1;
place = (-11.316,21.689);
type = Stem;
},
{
horizontal = 1;
place = (466.785,20.746);
type = Stem;
},
{
place = (37.72,23.575);
type = Stem;
}
);
layerId = "2AB56609-6B3E-483D-8034-BAE7113127E2";
shapes = (
{
closed = 1;
nodes = (
(359.283,-5.658,o),
(414.92,31.119,o),
(448.868,76.383,c),
(430.008,91.471,l),
(403.604,57.523,o),
(366.827,16.031,o),
(274.413,16.031,cs),
(158.424,16.031,o),
(56.58,92.414,o),
(56.58,237.636,cs),
(56.58,374.371,o),
(155.595,456.412,o),
(274.413,456.412,cs),
(348.91,456.412,o),
(404.547,418.692,o),
(423.407,370.599,c),
(445.096,383.801,l),
(413.977,455.469,o),
(330.993,477.158,o),
(274.413,477.158,cs),
(141.45,477.158,o),
(33.005,385.687,o),
(33.005,237.636,cs),
(33.005,82.041,o),
(144.279,-5.658,o),
(274.413,-5.658,cs)
);
}
);
width = 477.47233;
},
{
anchors = (
{
name = bottom;
pos = (265.926,0);
},
{
name = top;
pos = (288.439,471.5);
}
);
hints = (
{
horizontal = 1;
place = (-8.487,128.248);
type = Stem;
},
{
horizontal = 1;
place = (355.511,130.134);
type = Stem;
},
{
place = (29.233,139.564);
type = Stem;
}
);
layerId = "1DB3F64C-B148-42AA-8299-ED68ABA9E6AC";
shapes = (
{
closed = 1;
nodes = (
(398.889,-5.658,o),
(475.272,43.378,o),
(512.992,107.502,c),
(409.262,192.372,l),
(385.687,142.393,o),
(344.195,122.59,o),
(293.273,122.59,cs),
(223.491,122.59,o),
(172.569,165.025,o),
(172.569,235.75,cs),
(172.569,301.76,o),
(223.491,347.967,o),
(293.273,347.967,cs),
(330.993,347.967,o),
(380.972,330.993,o),
(404.547,287.615,c),
(502.619,380.972,l),
(463.956,432.837,o),
(384.744,477.158,o),
(293.273,477.158,cs),
(139.564,477.158,o),
(33.005,367.77,o),
(33.005,235.75,cs),
(33.005,95.243,o),
(144.279,-5.658,o),
(293.273,-5.658,cs)
);
}
);
width = 541.43917;
}
);
note = c;
unicode = 99;
},
{
glyphname = d;
kernLeft = d;
kernRight = d;
lastChange = "2023-10-27 12:49:24 +0000";
layers = (
{
anchors = (
{
name = bottom;
pos = (266.869,0);
},
{
name = top;
pos = (483.759,471.5);
}
);
hints = (
{
horizontal = 1;
place = (-5.658,60.352);
type = Stem;
},
{
horizontal = 1;
place = (428.122,60.352);
type = Stem;
},
{
place = (34.891,66.01);
type = Stem;
},
{
place = (423.407,66.01);
type = Stem;
},
{
horizontal = 1;
place = (477.158,-60.352);
type = Stem;
},
{
horizontal = 1;
place = (43.378,-60.352);
type = Stem;
},
{
place = (472.443,-66.01);
type = Stem;
},
{
place = (84.87,-66.01);
type = Stem;
}
);
layerId = "1041D826-7B5A-4F1A-81FD-3B5FB25AF0FC";
shapes = (
{
closed = 1;
nodes = (
(420.578,660.1,l),
(420.578,404.547,l),
(383.801,457.355,o),
(331.936,477.158,o),
(267.812,477.158,cs),
(134.849,477.158,o),
(33.005,373.428,o),
(33.005,235.75,cs),
(33.005,99.015,o),
(140.507,-5.658,o),
(273.47,-5.658,cs),
(339.48,-5.658,o),
(387.573,18.86,o),
(420.578,66.953,c),
(420.578,0,l),
(486.588,0,l),
(486.588,660.1,l)
);
},
{
closed = 1;
nodes = (
(347.024,416.806,o),
(400.775,371.542,o),
(420.578,323.449,c),
(420.578,146.165,l),
(403.604,101.844,o),
(355.511,54.694,o),
(273.47,54.694,cs),
(179.17,54.694,o),
(99.015,130.134,o),
(99.015,235.75,cs),
(99.015,342.309,o),
(174.455,416.806,o),
(267.812,416.806,cs)
);
}
);
width = 543.168;
},
{
anchors = (
{
name = bottom;
pos = (281.014,0);
},
{
name = top;
pos = (483.759,471.5);
}
);
hints = (
{
horizontal = 1;
place = (-6.601,120.704);
type = Stem;
},
{
horizontal = 1;
place = (360.226,119.761);
type = Stem;
},
{
place = (30.176,129.191);
type = Stem;
},
{
place = (363.055,129.191);
type = Stem;
},
{
horizontal = 1;
place = (480.93,-119.761);
type = Stem;
},
{
horizontal = 1;
place = (109.388,-119.761);
type = Stem;
},
{
place = (506.391,-130.134);
type = Stem;
},
{
place = (172.569,-129.191);
type = Stem;
}
);
layerId = "3B5F2A21-9AC0-43BD-916B-7DC2040966BF";
shapes = (
{
closed = 1;
nodes = (
(384.744,660.1,l),
(384.744,446.982,l),
(359.283,467.728,o),
(327.221,477.158,o),
(280.071,477.158,cs),
(134.849,477.158,o),
(33.005,370.599,o),
(33.005,235.75,cs),
(33.005,99.958,o),
(140.507,-5.658,o),
(284.786,-5.658,cs),
(330.993,-5.658,o),
(364.941,5.658,o),
(384.744,27.347,c),
(384.744,0,l),
(514.878,0,l),
(514.878,660.1,l)
);
},
{
closed = 1;
nodes = (
(338.537,357.397,o),
(371.542,330.05,o),
(384.744,301.76,c),
(384.744,165.968,l),
(373.428,138.621,o),
(344.195,114.103,o),
(284.786,114.103,cs),
(215.947,114.103,o),
(162.196,163.139,o),
(162.196,235.75,cs),
(162.196,304.589,o),
(211.232,357.397,o),
(280.071,357.397,cs)
);
}
);
width = 571.458;
},
{
anchors = (
{
name = bottom;
pos = (257.439,0);
},
{
name = top;
pos = (464.899,471.5);
}
);
hints = (
{
horizontal = 1;
place = (-4.715,19.803);
type = Stem;
},
{
horizontal = 1;
place = (473.386,20.746);
type = Stem;
},
{
place = (37.72,23.575);
type = Stem;
},
{
place = (463.956,23.575);
type = Stem;
},
{
horizontal = 1;
place = (474.329,-20.746);
type = Stem;
},
{
horizontal = 1;
place = (-0.943,-20.746);
type = Stem;
},
{
place = (449.811,-23.575);
type = Stem;
},
{
place = (26.404,-23.575);
type = Stem;
}
);
layerId = "2AB56609-6B3E-483D-8034-BAE7113127E2";
shapes = (
{
closed = 1;
nodes = (
(444.153,660.1,l),
(444.153,376.257,l),
(399.832,450.754,o),
(334.765,477.158,o),
(259.325,477.158,cs),
(134.849,477.158,o),
(33.005,375.314,o),
(33.005,235.75,cs),
(33.005,98.072,o),
(140.507,-5.658,o),
(265.926,-5.658,cs),
(345.138,-5.658,o),
(402.661,27.347,o),
(444.153,93.357,c),
(444.153,0,l),
(467.728,0,l),
(467.728,660.1,l)
);
},
{
closed = 1;
nodes = (
(352.682,456.412,o),
(420.578,398.889,o),
(444.153,337.594,c),
(444.153,132.963,l),
(423.407,77.326,o),
(363.055,15.088,o),
(265.926,15.088,cs),
(154.652,15.088,o),
(56.58,108.445,o),
(56.58,235.75,cs),
(56.58,367.77,o),
(149.937,456.412,o),
(259.325,456.412,cs)
);
}
);
width = 524.308;
},
{
anchors = (
{
name = bottom;
pos = (283.843,0);
},
{
name = top;
pos = (502.619,471.5);
}
);
hints = (
{
horizontal = 1;
place = (-6.601,131.077);
type = Stem;
},
{
horizontal = 1;
place = (348.91,130.134);
type = Stem;
},
{
place = (29.233,139.564);
type = Stem;
},
{
place = (352.682,139.564);
type = Stem;
},
{
horizontal = 1;
place = (481.873,-130.134);
type = Stem;
},
{
horizontal = 1;
place = (120.704,-130.134);
type = Stem;
},
{
place = (512.049,-140.507);
type = Stem;
},
{
place = (186.714,-139.564);
type = Stem;
}
);
layerId = "1DB3F64C-B148-42AA-8299-ED68ABA9E6AC";
shapes = (
{
closed = 1;
nodes = (
(379.086,660.1,l),
(379.086,453.583,l),
(355.511,469.614,o),
(326.278,477.158,o),
(281.957,477.158,cs),
(134.849,477.158,o),
(33.005,369.656,o),
(33.005,235.75,cs),
(33.005,99.958,o),
(140.507,-5.658,o),
(286.672,-5.658,cs),
(329.107,-5.658,o),
(361.169,3.772,o),
(379.086,20.746,c),
(379.086,0,l),
(519.593,0,l),
(519.593,660.1,l)
);
},
{
closed = 1;
nodes = (
(336.651,347.024,o),
(366.827,323.449,o),
(379.086,297.988,c),
(379.086,168.797,l),
(368.713,144.279,o),
(342.309,123.533,o),
(286.672,123.533,cs),
(221.605,123.533,o),
(172.569,168.797,o),
(172.569,235.75,cs),
(172.569,297.988,o),
(216.89,347.024,o),
(281.957,347.024,cs)
);
}
);
width = 576.173;
}
);
note = d;
unicode = 100;
},
{
glyphname = eth;
kernLeft = c;
kernRight = eth;
lastChange = "2023-10-27 12:49:24 +0000";
layers = (
{
hints = (
{
horizontal = 1;
place = (-8.487,60.352);
type = Stem;
},
{
horizontal = 1;
place = (380.029,60.352);
type = Stem;
},
{
horizontal = 1;
place = (635.582,60.352);
type = Stem;
},
{
place = (87.699,66.01);
type = Stem;
},
{
place = (400.775,66.01);
type = Stem;
}
);
layerId = "1041D826-7B5A-4F1A-81FD-3B5FB25AF0FC";
shapes = (
{
closed = 1;
nodes = (
(387.573,-8.487,o),
(466.785,99.958,o),
(466.785,215.947,cs),
(466.785,383.801,o),
(407.376,534.681,o),
(301.76,620.494,c),
(372.485,701.592,l),
(322.506,741.198,l),
(248.952,656.328,l),
(200.859,681.789,o),
(146.165,695.934,o),
(84.87,695.934,c),
(84.87,635.582,l),
(129.191,635.582,o),
(169.74,626.152,o),
(206.517,607.292,c),
(168.797,563.914,l),
(218.776,524.308,l),
(260.268,572.401,l),
(307.418,533.738,o),
(343.252,479.044,o),
(367.77,413.977,c),
(340.423,430.951,o),
(310.247,440.381,o),
(277.242,440.381,cs),
(164.082,440.381,o),
(87.699,330.993,o),
(87.699,215.947,cs),
(87.699,92.414,o),
(172.569,-8.487,o),
(277.242,-8.487,cs)
);
},
{
closed = 1;
nodes = (
(214.061,51.865,o),
(153.709,121.647,o),
(153.709,215.947,cs),
(153.709,297.988,o),
(204.631,380.029,o),
(277.242,380.029,cs),
(340.423,380.029,o),
(400.775,310.247,o),
(400.775,215.947,cs),
(400.775,139.564,o),
(353.625,51.865,o),
(277.242,51.865,cs)
);
}
);
width = 565.8;
},
{
hints = (
{
horizontal = 1;
place = (-2.829,125.419);
type = Stem;
},
{
horizontal = 1;
place = (345.138,124.476);
type = Stem;
},
{
horizontal = 1;
place = (572.524,122.467);
type = Stem;
},
{
place = (69.782,134.849);
type = Stem;
},
{
place = (349.853,133.906);
type = Stem;
}
);
layerId = "3B5F2A21-9AC0-43BD-916B-7DC2040966BF";
shapes = (
{
closed = 1;
nodes = (
(397.003,-2.829,o),
(483.759,107.502,o),
(483.759,246.123,cs),
(483.759,388.516,o),
(433.78,531.852,o),
(329.107,617.665,c),
(389.459,686.504,l),
(312.133,752.514,l),
(241.408,670.473,l),
(190.486,691.219,o),
(132.02,701.592,o),
(66.953,694.991,c),
(66.953,569.572,l),
(97.129,574.287,o),
(125.419,573.344,o),
(151.823,567.686,c),
(127.305,539.396,l),
(203.688,473.386,l),
(243.294,519.593,l),
(259.325,505.448,o),
(277.242,486.588,o),
(289.501,467.728,c),
(287.615,468.671,o),
(281.957,469.614,o),
(277.242,469.614,cs),
(161.253,469.614,o),
(69.782,359.283,o),
(69.782,233.864,cs),
(69.782,105.616,o),
(160.31,-2.829,o),
(277.242,-2.829,cs)
);
},
{
closed = 1;
nodes = (
(243.294,122.59,o),
(204.631,166.911,o),
(204.631,233.864,cs),
(204.631,300.817,o),
(234.807,345.138,o),
(277.242,345.138,cs),
(310.247,345.138,o),
(349.853,300.817,o),
(349.853,234.807,cs),
(349.853,164.082,o),
(318.734,122.59,o),
(277.242,122.59,cs)
);
}
);
width = 565.8;
},
{
hints = (
{
horizontal = 1;
place = (-12.259,16.974);
type = Stem;
},
{
horizontal = 1;
place = (403.604,17.917);
type = Stem;
},
{
horizontal = 1;
place = (678.017,18.86);
type = Stem;
},
{
place = (99.958,19.803);
type = Stem;
},
{
place = (434.723,20.746);
type = Stem;
}
);
layerId = "2AB56609-6B3E-483D-8034-BAE7113127E2";
shapes = (
{
closed = 1;
nodes = (
(380.972,-12.259,o),
(455.469,95.243,o),
(455.469,196.144,cs),
(455.469,380.972,o),
(389.459,536.567,o),
(283.843,622.38,c),
(361.169,711.965,l),
(329.107,733.654,l),
(253.667,646.898,l),
(207.46,675.188,o),
(155.595,692.162,o),
(97.129,696.877,c),
(97.129,679.903,l),
(150.88,676.131,o),
(198.973,661.043,o),
(243.294,633.696,c),
(196.144,579.945,l),
(229.149,558.256,l),
(271.584,607.292,l),
(339.48,552.598,o),
(387.573,474.329,o),
(419.635,378.143,c),
(375.314,405.49,o),
(329.107,420.578,o),
(277.242,420.578,cs),
(165.968,420.578,o),
(99.958,312.133,o),
(99.958,203.688,cs),
(99.958,83.927,o),
(181.056,-12.259,o),
(277.242,-12.259,cs)
);
},
{
closed = 1;
nodes = (
(194.258,4.715,o),
(119.761,91.471,o),
(119.761,203.688,cs),
(119.761,296.102,o),
(184.828,403.604,o),
(277.242,403.604,cs),
(360.226,403.604,o),
(434.723,316.848,o),
(434.723,203.688,cs),
(434.723,123.533,o),
(377.2,4.715,o),
(277.242,4.715,cs)
);
}
);
width = 565.8;
},
{
hints = (
{
horizontal = 1;
place = (-1.886,136.735);
type = Stem;
},
{
horizontal = 1;
place = (339.48,134.849);
type = Stem;
},
{
horizontal = 1;
place = (562.028,132.963);
type = Stem;
},
{
place = (66.953,146.165);
type = Stem;
},
{
place = (341.366,145.222);
type = Stem;
}
);
layerId = "1DB3F64C-B148-42AA-8299-ED68ABA9E6AC";
shapes = (
{
closed = 1;
nodes = (
(398.889,-1.886,o),
(486.588,108.445,o),
(486.588,250.838,cs),
(486.588,389.459,o),
(438.495,531.852,o),
(333.822,617.665,c),
(392.288,683.675,l),
(310.247,754.4,l),
(240.465,673.302,l),
(188.6,693.105,o),
(130.134,702.535,o),
(64.124,694.991,c),
(64.124,558.256,l),
(91.471,563.914,o),
(117.875,564.857,o),
(142.393,561.085,c),
(120.704,535.624,l),
(200.859,464.899,l),
(240.465,511.106,l),
(251.781,500.733,o),
(265.926,487.531,o),
(276.299,477.158,c),
(279.128,475.272,o),
(277.242,474.329,o),
(277.242,474.329,cs),
(161.253,474.329,o),
(66.953,363.998,o),
(66.953,236.693,cs),
(66.953,107.502,o),
(158.424,-1.886,o),
(277.242,-1.886,cs)
);
},
{
closed = 1;
nodes = (
(248.009,134.849,o),
(213.118,174.455,o),
(213.118,236.693,cs),
(213.118,301.76,o),
(239.522,339.48,o),
(277.242,339.48,cs),
(305.532,339.48,o),
(341.366,298.931,o),
(341.366,237.636,cs),
(341.366,167.854,o),
(313.076,134.849,o),
(277.242,134.849,cs)
);
}
);
width = 565.8;
}
);
note = eth;
unicode = 240;
},
{
glyphname = e;
kernLeft = c;
kernRight = e;
lastChange = "2023-10-27 12:49:24 +0000";
layers = (
{
anchors = (
{
name = bottom;
pos = (269.698,0);
},
{
name = ogonek;
pos = (381.915,31.119);
},
{
name = top;
pos = (269.698,471.5);
}
);
background = {
shapes = (
{
closed = 1;
nodes = (
(104.673,275.356,l),
(135.792,265.926,l),
(120.704,354.568,o),
(178.227,423.407,o),
(270.641,423.407,cs),
(358.34,423.407,o),
(442.267,371.542,o),
(442.267,245.18,cs),
(442.267,108.445,o),
(359.283,50.922,o),
(269.698,50.922,cs),
(201.802,50.922,o),
(148.051,83.927,o),
(118.818,142.393,c),
(66.953,100.901,l),
(104.673,39.606,o),
(174.455,-9.43,o),
(269.698,-9.43,cs),
(429.065,-9.43,o),
(508.277,111.274,o),
(508.277,245.18,cs),
(508.277,378.143,o),
(418.692,483.759,o),
(270.641,483.759,cs),
(130.134,483.759,o),
(44.321,375.314,o),
(71.668,223.491,c),
(474.329,223.491,l),
(474.329,275.356,l)
);
}
);
};
hints = (
{
horizontal = 1;
place = (-9.43,60.352);
type = Stem;
},
{
horizontal = 1;
place = (232.921,57.523);
type = Stem;
},
{
horizontal = 1;
place = (428.122,60.352);
type = Stem;
},
{
place = (35.834,66.01);
type = Stem;
},
{
place = (413.977,64.162);
type = Stem;
}
);
layerId = "1041D826-7B5A-4F1A-81FD-3B5FB25AF0FC";
shapes = (
{
closed = 1;
nodes = (
(66.953,223.491,l),
(469.614,223.491,l),
(495.075,358.34,o),
(418.692,483.759,o),
(261.211,483.759,cs),
(113.16,483.759,o),
(33.005,378.143,o),
(33.005,245.18,cs),
(33.005,111.274,o),
(112.217,-9.43,o),
(271.584,-9.43,cs),
(402.661,-9.43,o),
(457.355,73.554,o),
(472.443,101.844,c),
(421.521,141.45,l),
(400.775,91.471,o),
(356.454,50.922,o),
(271.584,50.922,cs),
(172.569,50.922,o),
(99.015,117.875,o),
(99.015,245.18,cs),
(99.015,371.542,o),
(173.512,429.065,o),
(261.211,429.065,cs),
(363.055,429.065,o),
(418.692,361.169,o),
(403.604,256.496,c),
(421.521,275.356,l),
(66.953,275.356,l)
);
}
);
width = 502.619;
},
{
anchors = (
{
name = bottom;
pos = (281.014,0);
},
{
name = ogonek;
pos = (385.687,35.834);
},
{
name = top;
pos = (281.014,471.5);
}
);
background = {
shapes = (
{
closed = 1;
nodes = (
(176.341,303.646,l),
(211.232,282.9,l),
(198.03,330.05,o),
(217.833,379.086,o),
(297.988,379.086,cs),
(373.428,379.086,o),
(405.49,325.335,o),
(405.49,242.351,cs),
(405.49,133.906,o),
(357.397,105.616,o),
(283.843,105.616,cs),
(218.776,105.616,o),
(181.056,138.621,o),
(168.797,180.113,c),
(70.725,100.901,l),
(108.445,37.72,o),
(175.398,-10.373,o),
(283.843,-10.373,cs),
(455.469,-10.373,o),
(533.738,112.217,o),
(533.738,242.351,cs),
(533.738,381.915,o),
(447.925,483.759,o),
(297.988,483.759,cs),
(190.486,483.759,o),
(44.321,431.894,o),
(75.44,206.517,c),
(471.5,206.517,l),
(471.5,303.646,l)
);
}
);
};
hints = (
{
horizontal = 1;
place = (-10.373,115.989);
type = Stem;
},
{
horizontal = 1;
place = (206.517,101.844);
type = Stem;
},
{
horizontal = 1;
place = (379.086,104.673);
type = Stem;
},
{
place = (33.005,129.191);
type = Stem;
},
{
place = (355.511,122.147);
type = Stem;
}
);
layerId = "3B5F2A21-9AC0-43BD-916B-7DC2040966BF";
shapes = (
{
closed = 1;
nodes = (
(95.243,206.517,l),
(491.303,206.517,l),
(522.422,431.894,o),
(376.257,483.759,o),
(268.755,483.759,cs),
(118.818,483.759,o),
(33.005,381.915,o),
(33.005,242.351,cs),
(33.005,112.217,o),
(111.274,-10.373,o),
(282.9,-10.373,cs),
(391.345,-10.373,o),
(459.241,37.72,o),
(496.961,100.901,c),
(398.889,180.113,l),
(386.63,138.621,o),
(357.397,105.616,o),
(282.9,105.616,cs),
(209.346,105.616,o),
(161.253,143.336,o),
(161.253,242.351,cs),
(161.253,334.765,o),
(193.315,377.2,o),
(268.755,377.2,cs),
(348.91,377.2,o),
(368.713,330.05,o),
(355.511,273.47,c),
(393.231,303.646,l),
(95.243,303.646,l)
);
}
);
width = 525.251;
},
{
anchors = (
{
name = bottom;
pos = (262.154,0);
},
{
name = ogonek;
pos = (379.086,28.29);
},
{
name = top;
pos = (262.154,471.5);
}
);
hints = (
{
horizontal = 1;
place = (-8.487,23.575);
type = Stem;
},
{
horizontal = 1;
place = (250.838,28.29);
type = Stem;
},
{
horizontal = 1;
place = (461.127,31.119);
type = Stem;
},
{
place = (37.72,23.575);
type = Stem;
},
{
place = (452.64,25.461);
type = Stem;
}
);
layerId = "2AB56609-6B3E-483D-8034-BAE7113127E2";
shapes = (
{
closed = 1;
nodes = (
(48.093,234.807,l),
(455.469,234.807,l),
(477.158,309.304,o),
(446.982,483.759,o),
(256.496,483.759,cs),
(109.388,483.759,o),
(33.005,375.314,o),
(33.005,247.066,cs),
(33.005,110.331,o),
(113.16,-8.487,o),
(264.04,-8.487,cs),
(410.205,-8.487,o),
(456.412,97.129,o),
(456.412,102.787,c),
(436.609,115.989,l),
(410.205,60.352,o),
(355.511,14.145,o),
(264.04,14.145,cs),
(148.051,14.145,o),
(57.523,100.901,o),
(57.523,247.066,cs),
(57.523,396.06,o),
(160.31,463.956,o),
(256.496,463.956,cs),
(372.485,463.956,o),
(451.697,381.915,o),
(435.666,245.18,c),
(440.381,256.496,l),
(48.093,256.496,l)
);
}
);
width = 487.531;
},
{
anchors = (
{
name = bottom;
pos = (282.9,0);
},
{
name = ogonek;
pos = (386.63,36.777);
},
{
name = top;
pos = (282.9,471.5);
}
);
hints = (
{
horizontal = 1;
place = (-10.373,125.419);
type = Stem;
},
{
horizontal = 1;
place = (201.802,109.388);
type = Stem;
},
{
horizontal = 1;
place = (370.599,112.217);
type = Stem;
},
{
place = (33.005,139.564);
type = Stem;
},
{
place = (346.081,132.02);
type = Stem;
}
);
layerId = "1DB3F64C-B148-42AA-8299-ED68ABA9E6AC";
shapes = (
{
closed = 1;
nodes = (
(99.958,203.688,l),
(495.075,203.688,l),
(527.137,444.153,o),
(369.656,483.759,o),
(269.698,483.759,cs),
(119.761,483.759,o),
(33.005,382.858,o),
(33.005,242.351,cs),
(33.005,112.217,o),
(111.274,-10.373,o),
(284.786,-10.373,cs),
(389.459,-10.373,o),
(459.241,32.062,o),
(500.733,100.901,c),
(395.117,186.714,l),
(384.744,146.165,o),
(357.397,115.046,o),
(284.786,115.046,cs),
(215.947,115.046,o),
(171.626,148.051,o),
(171.626,242.351,cs),
(171.626,329.107,o),
(197.087,368.713,o),
(269.698,368.713,cs),
(347.024,368.713,o),
(360.226,325.335,o),
(347.967,276.299,c),
(388.516,308.361,l),
(99.958,308.361,l)
);
}
);
width = 529.023;
}
);
note = e;
unicode = 101;
},
{
glyphname = f;
kernLeft = f;
kernRight = f;
lastChange = "2023-10-27 12:49:24 +0000";
layers = (
{
anchors = (
{
name = bottom;
pos = (162.196,0);
},
{
name = top;
pos = (162.196,471.5);
}
);
hints = (
{
horizontal = 1;
place = (417.749,60.352);
type = Stem;
},
{
horizontal = 1;
place = (615.779,58.466);
type = Stem;
},
{
place = (97.129,66.01);
type = Stem;
}
);
layerId = "1041D826-7B5A-4F1A-81FD-3B5FB25AF0FC";
shapes = (
{
closed = 1;
nodes = (
(163.139,0,l),
(163.139,411.148,l),
(297.988,411.148,l),
(297.988,471.5,l),
(163.139,471.5,l),
(163.139,538.453,ls),
(163.139,586.546,o),
(179.17,615.779,o),
(222.548,615.779,cs),
(240.465,615.779,o),
(266.869,609.178,o),
(291.387,580.888,c),
(325.335,628.981,l),
(304.589,658.214,o),
(263.097,674.245,o),
(217.833,674.245,cs),
(125.419,674.245,o),
(97.129,615.779,o),
(97.129,538.453,cs),
(97.129,471.5,l),
(8.487,471.5,l),
(8.487,411.148,l),
(97.129,411.148,l),
(97.129,0,l)
);
}
);
width = 324.392;
},
{
anchors = (
{
name = bottom;
pos = (185.771,0);
},
{
name = top;
pos = (185.771,471.5);
}
);
hints = (
{
horizontal = 1;
place = (358.34,119.761);
type = Stem;
},
{
horizontal = 1;
place = (557.313,113.16);
type = Stem;
},
{
place = (90.528,129.191);
type = Stem;
}
);
layerId = "3B5F2A21-9AC0-43BD-916B-7DC2040966BF";
shapes = (
{
closed = 1;
nodes = (
(219.719,0,l),
(219.719,351.739,l),
(334.765,351.739,l),
(334.765,471.5,l),
(219.719,471.5,l),
(219.719,511.106,ls),
(219.719,545.997,o),
(234.807,557.313,o),
(249.895,557.313,cs),
(266.869,557.313,o),
(284.786,546.94,o),
(304.589,519.593,c),
(365.884,615.779,l),
(329.107,659.157,o),
(279.128,670.473,o),
(233.864,670.473,cs),
(113.16,670.473,o),
(90.528,586.546,o),
(90.528,511.106,cs),
(90.528,471.5,l),
(14.145,471.5,l),
(14.145,351.739,l),
(90.528,351.739,l),
(90.528,0,l)
);
}
);
width = 371.542;
},
{
anchors = (
{
name = bottom;
pos = (146.165,0);
},
{
name = top;
pos = (146.165,471.5);
}
);
hints = (
{
horizontal = 1;
place = (457.355,20.746);
type = Stem;
},
{
horizontal = 1;
place = (654.442,21.689);
type = Stem;
},
{
place = (101.844,23.575);
type = Stem;
}
);
layerId = "2AB56609-6B3E-483D-8034-BAE7113127E2";
shapes = (
{
closed = 1;
nodes = (
(125.419,0,l),
(125.419,450.754,l),
(273.47,450.754,l),
(273.47,471.5,l),
(125.419,471.5,l),
(125.419,556.37,ls),
(125.419,613.893,o),
(142.393,654.442,o),
(204.631,654.442,cs),
(222.548,654.442,o),
(254.61,650.67,o),
(282.9,621.437,c),
(297.988,637.468,l),
(288.558,657.271,o),
(252.724,677.074,o),
(207.46,677.074,cs),
(133.906,677.074,o),
(101.844,635.582,o),
(101.844,556.37,cs),
(101.844,471.5,l),
(4.715,471.5,l),
(4.715,450.754,l),
(101.844,450.754,l),
(101.844,0,l)
);
}
);
width = 292.95867;
},
{
anchors = (
{
name = bottom;
pos = (189.543,0);
},
{
name = top;
pos = (189.543,471.5);
}
);
hints = (
{
horizontal = 1;
place = (348.91,130.134);
type = Stem;
},
{
horizontal = 1;
place = (547.883,122.59);
type = Stem;
},
{
place = (89.585,139.564);
type = Stem;
}
);
layerId = "1DB3F64C-B148-42AA-8299-ED68ABA9E6AC";
shapes = (
{
closed = 1;
nodes = (
(229.149,0,l),
(229.149,342.309,l),
(341.366,342.309,l),
(341.366,471.5,l),
(229.149,471.5,l),
(229.149,506.391,ls),
(229.149,539.396,o),
(244.237,547.883,o),
(254.61,547.883,cs),
(271.584,547.883,o),
(287.615,536.567,o),
(306.475,509.22,c),
(372.485,613.893,l),
(332.879,659.157,o),
(281.957,669.53,o),
(236.693,669.53,cs),
(111.274,669.53,o),
(89.585,581.831,o),
(89.585,506.391,cs),
(89.585,471.5,l),
(15.088,471.5,l),
(15.088,342.309,l),
(89.585,342.309,l),
(89.585,0,l)
);
}
);
width = 379.40033;
}
);
note = f;
unicode = 102;
},
{
glyphname = g;
kernLeft = g;
kernRight = g;
lastChange = "2023-10-27 09:45:57 +0000";
layers = (
{
anchors = (
{
name = bottom;
pos = (264.04,0);
},
{
name = top;
pos = (264.04,471.5);
}
);
hints = (
{
horizontal = 1;
place = (-283.843,60.352);
type = Stem;
},
{
horizontal = 1;
place = (-18.86,60.352);
type = Stem;
},
{
horizontal = 1;
place = (138.621,60.352);
type = Stem;
},
{
horizontal = 1;
place = (411.148,55.165);
type = Stem;
},
{
place = (36.654,66.133);
type = Stem;
},
{
place = (429.065,66.01);
type = Stem;
},
{
horizontal = 1;
place = (420.578,60.352);
type = Stem;
},
{
place = (84.87,66.01);
type = Stem;
},
{
place = (31.119,63.181);
type = Stem;
},
{
place = (363.055,66.01);
type = Stem;
}
);
layerId = "1041D826-7B5A-4F1A-81FD-3B5FB25AF0FC";
shapes = (
{
closed = 1;
nodes = (
(380.972,409.262,l),
(490.36,393.231,l),
(500.733,466.785,l),
(322.506,456.412,l)
);
},
{
closed = 1;
nodes = (
(199.916,195.201,o),
(150.88,240.465,o),
(150.88,306.475,cs),
(150.88,372.485,o),
(199.916,416.806,o),
(256.496,416.806,cs),
(313.076,416.806,o),
(363.055,372.485,o),
(363.055,306.475,cs),
(363.055,240.465,o),
(314.019,195.201,o),
(256.496,195.201,cs)
);
},
{
closed = 1;
nodes = (
(73.554,-23.575,o),
(31.119,-74.497,o),
(31.119,-140.507,cs),
(31.119,-215.004,o),
(89.585,-287.615,o),
(235.75,-287.615,cs),
(418.692,-287.615,o),
(495.075,-200.859,o),
(495.075,-100.901,cs),
(495.075,24.518,o),
(387.573,37.72,o),
(267.812,37.72,cs),
(241.408,37.72,o),
(216.89,36.777,o),
(197.087,36.777,cs),
(141.45,36.777,o),
(97.129,48.093,o),
(97.129,94.3,cs),
(97.129,153.709,o),
(156.538,159.367,o),
(181.056,149.937,cs),
(214.061,137.678,o),
(231.035,134.849,o),
(256.496,134.849,cs),
(351.739,134.849,o),
(429.065,211.232,o),
(429.065,306.475,cs),
(429.065,400.775,o),
(350.796,477.158,o),
(256.496,477.158,cs),
(162.196,477.158,o),
(84.87,400.775,o),
(84.87,306.475,cs),
(84.87,253.667,o),
(107.502,207.46,o),
(145.222,175.398,c),
(178.227,187.657,l),
(92.414,198.973,o),
(36.777,147.108,o),
(36.777,85.813,cs),
(36.777,-25.461,o),
(165.025,-22.632,o),
(280.071,-22.632,cs),
(367.77,-22.632,o),
(430.008,-34.891,o),
(430.008,-104.673,cs),
(430.008,-189.543,o),
(349.853,-227.263,o),
(236.693,-227.263,cs),
(123.533,-227.263,o),
(89.585,-173.512,o),
(90.528,-116.932,cs),
(91.471,-70.725,o),
(130.134,-26.404,o),
(173.512,-16.031,c),
(131.077,1.886,l)
);
}
);
width = 529.023;
},
{
anchors = (
{
name = bottom;
pos = (266.869,0);
},
{
name = top;
pos = (266.869,471.5);
}
);
hints = (
{
horizontal = 1;
place = (-283.843,104.673);
type = Stem;
},
{
horizontal = 1;
place = (-48.093,113.16);
type = Stem;
},
{
horizontal = 1;
place = (118.818,118.818);
type = Stem;
},
{
horizontal = 1;
place = (360.226,119.761);
type = Stem;
},
{
place = (72.611,129.191);
type = Stem;
},
{
place = (385.687,121.647);
type = Stem;
},
{
place = (18.86,96.186);
type = Stem;
},
{
place = (19.803,114.103);
type = Stem;
},
{
place = (312.133,129.191);
type = Stem;
}
);
layerId = "3B5F2A21-9AC0-43BD-916B-7DC2040966BF";
shapes = (
{
closed = 1;
nodes = (
(412.091,367.77,l),
(517.707,349.853,l),
(523.365,467.728,l),
(317.791,459.241,l)
);
},
{
closed = 1;
nodes = (
(228.206,234.807,o),
(201.802,256.496,o),
(201.802,296.102,cs),
(201.802,335.708,o),
(228.206,357.397,o),
(256.496,357.397,cs),
(284.786,357.397,o),
(312.133,335.708,o),
(312.133,296.102,cs),
(312.133,256.496,o),
(285.729,234.807,o),
(256.496,234.807,cs)
);
},
{
closed = 1;
nodes = (
(67.896,-36.777,o),
(18.86,-84.87,o),
(18.86,-147.108,cs),
(18.86,-247.066,o),
(112.217,-286.672,o),
(234.807,-286.672,cs),
(410.205,-286.672,o),
(507.334,-225.377,o),
(507.334,-89.585,cs),
(507.334,46.207,o),
(375.314,62.238,o),
(265.926,62.238,cs),
(240.465,62.238,o),
(216.89,61.295,o),
(198.03,61.295,cs),
(143.336,61.295,o),
(117.875,70.725,o),
(117.875,99.958,cs),
(117.875,132.963,o),
(157.481,132.963,o),
(182.942,125.419,cs),
(203.688,118.818,o),
(229.149,115.989,o),
(256.496,115.989,cs),
(358.34,115.989,o),
(441.324,197.087,o),
(441.324,296.102,cs),
(441.324,396.06,o),
(358.34,477.158,o),
(256.496,477.158,cs),
(154.652,477.158,o),
(72.611,396.06,o),
(72.611,296.102,cs),
(72.611,248.009,o),
(92.414,203.688,o),
(123.533,171.626,c),
(185.771,191.429,l),
(101.844,217.833,o),
(5.658,180.113,o),
(5.658,82.984,cs),
(5.658,-36.777,o),
(103.73,-50.922,o),
(300.817,-50.922,cs),
(340.423,-50.922,o),
(382.858,-62.238,o),
(382.858,-107.502,cs),
(382.858,-156.538,o),
(308.361,-169.74,o),
(236.693,-169.74,cs),
(163.139,-169.74,o),
(132.963,-146.165,o),
(132.963,-112.217,cs),
(132.963,-68.839,o),
(173.512,-43.378,o),
(189.543,-43.378,c),
(120.704,-16.031,l)
);
}
);
width = 534.681;
},
{
anchors = (
{
name = bottom;
pos = (266.869,0);
},
{
name = top;
pos = (266.869,471.5);
}
);
associatedMasterId = "3B5F2A21-9AC0-43BD-916B-7DC2040966BF";
hints = (
{
horizontal = 1;
place = (-283.843,104.673);
type = Stem;
},
{
horizontal = 1;
place = (-48.093,113.16);
type = Stem;
},
{
horizontal = 1;
place = (118.818,118.818);
type = Stem;
},
{
horizontal = 1;
place = (360.226,119.761);
type = Stem;
},
{
place = (72.611,129.191);
type = Stem;
},
{
place = (385.687,121.647);
type = Stem;
},
{
place = (18.86,96.186);
type = Stem;
},
{
place = (19.803,114.103);
type = Stem;
},
{
place = (312.133,129.191);
type = Stem;
}
);
layerId = "00060772-D605-4FE6-B0F1-D2CD124D3AFE";
name = "26 juil. 23  10:57";
shapes = (
{
closed = 1;
nodes = (
(410.205,-283.843,o),
(507.334,-222.548,o),
(507.334,-86.756,cs),
(507.334,49.036,o),
(375.314,65.067,o),
(265.926,65.067,cs),
(240.465,65.067,o),
(216.89,64.124,o),
(198.03,64.124,cs),
(143.336,64.124,o),
(117.875,73.554,o),
(117.875,102.787,cs),
(117.875,123.533,o),
(143.336,144.279,o),
(182.942,128.248,cs),
(204.631,119.761,o),
(229.149,118.818,o),
(256.496,118.818,cs),
(358.34,118.818,o),
(441.324,199.916,o),
(441.324,298.931,cs),
(441.324,323.449,o),
(435.666,346.081,o),
(427.179,367.77,c),
(502.619,357.397,l),
(508.277,475.272,l),
(332.879,463.013,l),
(309.304,474.329,o),
(283.843,479.987,o),
(256.496,479.987,cs),
(154.652,479.987,o),
(72.611,398.889,o),
(72.611,298.931,cs),
(72.611,250.838,o),
(92.414,206.517,o),
(123.533,174.455,c),
(185.771,194.258,l),
(93.357,222.548,o),
(5.658,175.398,o),
(5.658,85.813,cs),
(5.658,30.176,o),
(47.15,-9.43,o),
(88.642,-25.461,c),
(79.212,-30.176,o),
(25.461,-51.865,o),
(19.803,-117.875,cs),
(9.43,-229.149,o),
(105.616,-283.843,o),
(234.807,-283.843,cs)
);
},
{
closed = 1;
nodes = (
(154.652,-179.17,o),
(126.362,-142.393,o),
(133.906,-108.445,cs),
(139.564,-79.212,o),
(166.911,-54.694,o),
(181.056,-46.207,c),
(193.315,-46.207,o),
(238.579,-48.093,o),
(300.817,-48.093,cs),
(344.195,-48.093,o),
(381.915,-61.295,o),
(385.687,-94.3,cs),
(395.117,-165.025,o),
(312.133,-179.17,o),
(236.693,-179.17,cs)
);
},
{
closed = 1;
nodes = (
(228.206,237.636,o),
(201.802,264.04,o),
(201.802,298.931,cs),
(201.802,333.822,o),
(228.206,360.226,o),
(256.496,360.226,cs),
(285.729,360.226,o),
(312.133,333.822,o),
(312.133,298.931,cs),
(312.133,264.04,o),
(285.729,237.636,o),
(256.496,237.636,cs)
);
}
);
width = 534.681;
},
{
anchors = (
{
name = bottom;
pos = (262.154,0);
},
{
name = top;
pos = (262.154,471.5);
}
);
hints = (
{
horizontal = 1;
place = (-729.882,19.803);
type = Stem;
},
{
horizontal = 1;
place = (157.481,31.119);
type = Stem;
},
{
horizontal = 1;
place = (263.097,25.461);
type = Stem;
},
{
horizontal = 1;
place = (606.349,12.259);
type = Stem;
},
{
place = (48.093,46.207);
type = Stem;
},
{
place = (507.334,23.575);
type = Stem;
},
{
horizontal = 1;
place = (461.127,20.746);
type = Stem;
},
{
place = (128.248,33.948);
type = Stem;
},
{
place = (51.865,105.616);
type = Stem;
},
{
place = (556.37,23.575);
type = Stem;
}
);
layerId = "2AB56609-6B3E-483D-8034-BAE7113127E2";
shapes = (
{
closed = 1;
nodes = (
(360.226,436.609,l),
(472.443,422.464,l),
(485.645,465.842,l),
(325.335,454.526,l)
);
},
{
closed = 1;
nodes = (
(181.056,168.797,o),
(116.932,230.092,o),
(116.932,313.076,cs),
(116.932,397.003,o),
(181.056,456.412,o),
(256.496,456.412,cs),
(331.936,456.412,o),
(397.003,397.003,o),
(397.003,313.076,cs),
(397.003,230.092,o),
(332.879,168.797,o),
(256.496,168.797,cs)
);
},
{
closed = 1;
nodes = (
(77.326,-15.088,o),
(39.606,-67.896,o),
(39.606,-135.792,cs),
(39.606,-193.315,o),
(74.497,-288.558,o),
(236.693,-288.558,cs),
(424.35,-288.558,o),
(486.588,-184.828,o),
(486.588,-108.445,cs),
(486.588,10.373,o),
(396.06,21.689,o),
(268.755,21.689,cs),
(242.351,21.689,o),
(216.89,20.746,o),
(196.144,20.746,cs),
(140.507,20.746,o),
(82.984,33.005,o),
(82.984,90.528,cs),
(82.984,167.854,o),
(155.595,177.284,o),
(180.113,165.968,cs),
(220.662,149.937,o),
(231.978,147.108,o),
(256.496,147.108,cs),
(347.024,147.108,o),
(420.578,220.662,o),
(420.578,313.076,cs),
(420.578,403.604,o),
(346.081,477.158,o),
(256.496,477.158,cs),
(166.911,477.158,o),
(93.357,403.604,o),
(93.357,313.076,cs),
(93.357,257.439,o),
(117.875,210.289,o),
(159.367,178.227,c),
(173.512,184.828,l),
(85.813,186.714,o),
(57.523,125.419,o),
(57.523,87.699,cs),
(57.523,-17.917,o),
(205.574,-3.772,o),
(265.926,-3.772,cs),
(385.687,-3.772,o),
(461.127,-16.974,o),
(461.127,-102.787,cs),
(461.127,-211.232,o),
(377.2,-265.926,o),
(236.693,-265.926,cs),
(97.129,-265.926,o),
(60.352,-191.429,o),
(62.238,-119.761,cs),
(64.124,-71.668,o),
(100.901,-15.088,o),
(163.139,1.886,c),
(137.678,14.145,l)
);
}
);
width = 525.251;
},
{
anchors = (
{
name = bottom;
pos = (267.812,0);
},
{
name = top;
pos = (267.812,471.5);
}
);
hints = (
{
horizontal = 1;
place = (496.961,132.02);
type = Stem;
},
{
horizontal = 1;
place = (-328.164,112.217);
type = Stem;
},
{
horizontal = 1;
place = (-79.212,121.647);
type = Stem;
},
{
horizontal = 1;
place = (77.326,129.191);
type = Stem;
},
{
place = (16.031,98.072);
type = Stem;
},
{
place = (290.444,139.564);
type = Stem;
},
{
horizontal = 1;
place = (343.252,130.134);
type = Stem;
},
{
place = (8.487,122.59);
type = Stem;
},
{
place = (-4.715,-7.544);
type = Stem;
},
{
place = (26.404,139.564);
type = Stem;
}
);
layerId = "1DB3F64C-B148-42AA-8299-ED68ABA9E6AC";
shapes = (
{
closed = 1;
nodes = (
(417.749,361.169,l),
(522.422,342.309,l),
(527.137,467.728,l),
(316.848,460.184,l)
);
},
{
closed = 1;
nodes = (
(232.921,241.408,o),
(210.289,259.325,o),
(210.289,294.216,cs),
(210.289,330.05,o),
(232.921,347.967,o),
(256.496,347.967,cs),
(280.071,347.967,o),
(303.646,330.05,o),
(303.646,294.216,cs),
(303.646,259.325,o),
(281.014,241.408,o),
(256.496,241.408,cs)
);
},
{
closed = 1;
nodes = (
(66.953,-38.663,o),
(16.974,-86.756,o),
(16.974,-148.051,cs),
(16.974,-252.724,o),
(115.989,-286.672,o),
(234.807,-286.672,cs),
(409.262,-286.672,o),
(509.22,-229.149,o),
(509.22,-87.699,cs),
(509.22,49.979,o),
(373.428,66.01,o),
(265.926,66.01,cs),
(240.465,66.01,o),
(216.89,65.067,o),
(198.03,65.067,cs),
(143.336,65.067,o),
(121.647,74.497,o),
(121.647,100.901,cs),
(121.647,129.191,o),
(157.481,128.248,o),
(182.942,121.647,cs),
(201.802,115.989,o),
(229.149,113.16,o),
(256.496,113.16,cs),
(359.283,113.16,o),
(443.21,195.201,o),
(443.21,294.216,cs),
(443.21,395.117,o),
(359.283,477.158,o),
(256.496,477.158,cs),
(153.709,477.158,o),
(70.725,395.117,o),
(70.725,294.216,cs),
(70.725,247.066,o),
(89.585,202.745,o),
(119.761,170.683,c),
(186.714,192.372,l),
(103.73,220.662,o),
(0.943,185.771,o),
(0.943,82.984,cs),
(0.943,-38.663,o),
(93.357,-55.637,o),
(304.589,-55.637,cs),
(335.708,-55.637,o),
(375.314,-66.953,o),
(375.314,-107.502,cs),
(375.314,-150.88,o),
(301.76,-160.31,o),
(236.693,-160.31,cs),
(169.74,-160.31,o),
(140.507,-141.45,o),
(140.507,-111.274,cs),
(139.564,-68.839,o),
(181.056,-46.207,o),
(192.372,-48.093,c),
(118.818,-18.86,l)
);
}
);
width = 535.624;
}
);
note = g;
unicode = 103;
},
{
glyphname = h;
kernLeft = b;
kernRight = h;
lastChange = "2023-10-27 12:49:24 +0000";
layers = (
{
anchors = (
{
name = bottom;
pos = (264.04,0);
},
{
name = top;
pos = (264.04,471.5);
}
);
hints = (
{
horizontal = 1;
place = (424.35,59.409);
type = Stem;
},
{
place = (71.668,66.01);
type = Stem;
},
{
place = (400.775,66.01);
type = Stem;
}
);
layerId = "1041D826-7B5A-4F1A-81FD-3B5FB25AF0FC";
shapes = (
{
closed = 1;
nodes = (
(113.16,0,l),
(113.16,299.874,l),
(122.59,354.568,o),
(180.113,416.806,o),
(255.553,416.806,cs),
(338.537,416.806,o),
(382.858,373.428,o),
(382.858,276.299,cs),
(382.858,0,l),
(448.868,0,l),
(448.868,277.242,ls),
(448.868,412.091,o),
(387.573,477.158,o),
(264.983,477.158,cs),
(190.486,477.158,o),
(132.02,423.407,o),
(113.16,373.428,c),
(113.16,660.1,l),
(47.15,660.1,l),
(47.15,0,l)
);
}
);
width = 496.018;
},
{
anchors = (
{
name = bottom;
pos = (264.04,0);
},
{
name = top;
pos = (264.04,471.5);
}
);
hints = (
{
horizontal = 1;
place = (363.055,118.818);
type = Stem;
},
{
place = (63.181,129.191);
type = Stem;
},
{
place = (362.112,129.191);
type = Stem;
}
);
layerId = "3B5F2A21-9AC0-43BD-916B-7DC2040966BF";
shapes = (
{
closed = 1;
nodes = (
(176.341,0,l),
(176.341,300.817,l),
(195.201,339.48,o),
(240.465,357.397,o),
(275.356,357.397,cs),
(333.822,357.397,o),
(364.941,327.221,o),
(364.941,265.926,cs),
(364.941,0,l),
(494.132,0,l),
(494.132,265.926,ls),
(494.132,380.029,o),
(439.438,477.158,o),
(298.931,477.158,cs),
(242.351,477.158,o),
(195.201,448.868,o),
(176.341,411.148,c),
(176.341,660.1,l),
(47.15,660.1,l),
(47.15,0,l)
);
}
);
width = 541.282;
},
{
anchors = (
{
name = bottom;
pos = (264.04,0);
},
{
name = top;
pos = (264.04,471.5);
}
);
associatedMasterId = "3B5F2A21-9AC0-43BD-916B-7DC2040966BF";
hints = (
{
horizontal = 1;
place = (363.055,118.818);
type = Stem;
},
{
place = (63.181,129.191);
type = Stem;
},
{
place = (362.112,129.191);
type = Stem;
}
);
layerId = "CDA2E786-E03E-4F7E-9EC4-3A8C577C3254";
name = "26 juil. 23  12:20";
shapes = (
{
closed = 1;
nodes = (
(192.372,0,l),
(192.372,306.475,l),
(214.061,348.91,o),
(252.724,363.055,o),
(281.957,363.055,cs),
(330.993,363.055,o),
(362.112,331.936,o),
(362.112,280.071,cs),
(362.112,0,l),
(491.303,0,l),
(491.303,280.071,ls),
(491.303,394.174,o),
(409.262,481.873,o),
(286.672,481.873,cs),
(249.895,481.873,o),
(218.776,471.5,o),
(192.372,453.583,c),
(192.372,660.1,l),
(63.181,660.1,l),
(63.181,0,l)
);
}
);
width = 529.023;
},
{
anchors = (
{
name = bottom;
pos = (264.04,0);
},
{
name = top;
pos = (264.04,471.5);
}
);
associatedMasterId = "1041D826-7B5A-4F1A-81FD-3B5FB25AF0FC";
hints = (
{
horizontal = 1;
place = (424.35,59.409);
type = Stem;
},
{
place = (71.668,66.01);
type = Stem;
},
{
place = (400.775,66.01);
type = Stem;
}
);
layerId = "2875B733-FB26-4244-AA3B-27AD42F863E3";
name = "26 juil. 23  12:20";
shapes = (
{
closed = 1;
nodes = (
(137.678,0,l),
(137.678,331.936,l),
(154.652,379.086,o),
(199.916,424.35,o),
(264.04,424.35,cs),
(346.081,424.35,o),
(400.775,372.485,o),
(400.775,268.755,cs),
(400.775,0,l),
(466.785,0,l),
(466.785,268.755,ls),
(466.785,408.319,o),
(382.858,483.759,o),
(264.04,483.759,cs),
(214.061,483.759,o),
(170.683,463.013,o),
(137.678,412.091,c),
(137.678,660.1,l),
(71.668,660.1,l),
(71.668,0,l)
);
}
);
width = 529.023;
},
{
anchors = (
{
name = bottom;
pos = (264.04,0);
},
{
name = top;
pos = (264.04,471.5);
}
);
hints = (
{
horizontal = 1;
place = (464.899,19.803);
type = Stem;
},
{
place = (77.326,23.575);
type = Stem;
},
{
place = (426.236,23.575);
type = Stem;
}
);
layerId = "2AB56609-6B3E-483D-8034-BAE7113127E2";
shapes = (
{
closed = 1;
nodes = (
(70.725,0,l),
(70.725,298.931,l),
(74.497,364.941,o),
(139.564,456.412,o),
(242.351,456.412,cs),
(341.366,456.412,o),
(395.117,404.547,o),
(395.117,282.9,cs),
(395.117,0,l),
(418.692,0,l),
(418.692,284.786,ls),
(418.692,433.78,o),
(352.682,477.158,o),
(242.351,477.158,cs),
(155.595,477.158,o),
(89.585,406.433,o),
(70.725,347.967,c),
(70.725,660.1,l),
(47.15,660.1,l),
(47.15,0,l)
);
}
);
width = 465.842;
},
{
anchors = (
{
name = bottom;
pos = (264.04,0);
},
{
name = top;
pos = (264.04,471.5);
}
);
hints = (
{
horizontal = 1;
place = (352.682,129.191);
type = Stem;
},
{
place = (62.238,139.564);
type = Stem;
},
{
place = (355.511,139.564);
type = Stem;
}
);
layerId = "1DB3F64C-B148-42AA-8299-ED68ABA9E6AC";
shapes = (
{
closed = 1;
nodes = (
(186.714,0,l),
(186.714,300.817,l),
(207.46,336.651,o),
(250.838,347.967,o),
(279.128,347.967,cs),
(332.879,347.967,o),
(362.112,319.677,o),
(362.112,264.04,cs),
(362.112,0,l),
(501.676,0,l),
(501.676,264.04,ls),
(501.676,374.371,o),
(447.925,477.158,o),
(304.589,477.158,cs),
(250.838,477.158,o),
(205.574,453.583,o),
(186.714,417.749,c),
(186.714,660.1,l),
(47.15,660.1,l),
(47.15,0,l)
);
}
);
width = 548.826;
}
);
metricRight = n;
note = h;
unicode = 104;
},
{
glyphname = idotless;
kernLeft = i;
kernRight = i;
lastChange = "2023-10-27 12:49:24 +0000";
layers = (
{
anchors = (
{
name = bottom;
pos = (90.528,0);
},
{
name = ogonek;
pos = (60.352,-5.658);
},
{
name = top;
pos = (90.528,471.5);
}
);
layerId = "1041D826-7B5A-4F1A-81FD-3B5FB25AF0FC";
shapes = (
{
closed = 1;
nodes = (
(124.476,0,l),
(124.476,471.5,l),
(58.466,471.5,l),
(58.466,0,l)
);
}
);
width = 181.999;
},
{
anchors = (
{
name = bottom;
pos = (111.274,0);
},
{
name = ogonek;
pos = (50.922,-5.658);
},
{
name = top;
pos = (111.274,471.5);
}
);
layerId = "3B5F2A21-9AC0-43BD-916B-7DC2040966BF";
shapes = (
{
closed = 1;
nodes = (
(176.341,0,l),
(176.341,471.5,l),
(47.15,471.5,l),
(47.15,0,l)
);
}
);
width = 223.491;
},
{
anchors = (
{
name = bottom;
pos = (76.383,0);
},
{
name = ogonek;
pos = (66.01,-5.658);
},
{
name = top;
pos = (76.383,471.5);
}
);
layerId = "2AB56609-6B3E-483D-8034-BAE7113127E2";
shapes = (
{
closed = 1;
nodes = (
(89.585,0,l),
(89.585,471.5,l),
(66.01,471.5,l),
(66.01,0,l)
);
}
);
width = 154.33767;
},
{
anchors = (
{
name = bottom;
pos = (115.046,0);
},
{
name = ogonek;
pos = (49.036,-5.658);
},
{
name = top;
pos = (115.046,471.5);
}
);
layerId = "1DB3F64C-B148-42AA-8299-ED68ABA9E6AC";
shapes = (
{
closed = 1;
nodes = (
(184.828,0,l),
(184.828,471.5,l),
(45.264,471.5,l),
(45.264,0,l)
);
}
);
width = 230.40633;
}
);
unicode = 305;
},
{
glyphname = jdotless;
kernLeft = j;
kernRight = j;
lastChange = "2023-10-27 12:49:24 +0000";
layers = (
{
anchors = (
{
name = top;
pos = (91.471,471.5);
}
);
layerId = "1041D826-7B5A-4F1A-81FD-3B5FB25AF0FC";
shapes = (
{
closed = 1;
nodes = (
(32.062,-192.372,o),
(124.476,-128.248,o),
(124.476,-8.487,cs),
(124.476,471.5,l),
(58.466,471.5,l),
(58.466,-8.487,ls),
(58.466,-89.585,o),
(-0.943,-132.02,o),
(-69.782,-132.02,c),
(-69.782,-192.372,l)
);
}
);
width = 171.626;
},
{
anchors = (
{
name = top;
pos = (111.274,471.5);
}
);
layerId = "3B5F2A21-9AC0-43BD-916B-7DC2040966BF";
shapes = (
{
closed = 1;
nodes = (
(52.808,-185.771,o),
(176.341,-118.818,o),
(176.341,20.746,cs),
(176.341,471.5,l),
(47.15,471.5,l),
(47.15,20.746,ls),
(47.15,-40.549,o),
(-4.715,-62.238,o),
(-63.181,-46.207,c),
(-63.181,-167.854,l)
);
}
);
width = 223.491;
},
{
anchors = (
{
name = top;
pos = (78.269,471.5);
}
);
layerId = "2AB56609-6B3E-483D-8034-BAE7113127E2";
shapes = (
{
closed = 1;
nodes = (
(17.917,-197.087,o),
(89.585,-134.849,o),
(89.585,-28.29,cs),
(89.585,471.5,l),
(66.01,471.5,l),
(66.01,-28.29,ls),
(66.01,-122.59,o),
(1.886,-178.227,o),
(-74.497,-189.543,c),
(-74.497,-208.403,l)
);
}
);
width = 137.04933;
},
{
anchors = (
{
name = top;
pos = (115.046,471.5);
}
);
layerId = "1DB3F64C-B148-42AA-8299-ED68ABA9E6AC";
shapes = (
{
closed = 1;
nodes = (
(56.58,-184.828,o),
(184.828,-116.932,o),
(184.828,25.461,cs),
(184.828,471.5,l),
(45.264,471.5,l),
(45.264,25.461,ls),
(45.264,-32.062,o),
(-5.658,-50.922,o),
(-62.238,-32.062,c),
(-62.238,-164.082,l)
);
}
);
width = 232.13517;
}
);
unicode = 567;
},
{
glyphname = k;
kernLeft = b;
kernRight = k;
lastChange = "2023-10-27 12:49:24 +0000";
layers = (
{
anchors = (
{
name = bottom;
pos = (220.662,0);
},
{
name = top;
pos = (220.662,471.5);
}
);
hints = (
{
horizontal = 1;
place = (0,660.1);
type = Stem;
},
{
place = (71.668,66.01);
type = Stem;
}
);
layerId = "1041D826-7B5A-4F1A-81FD-3B5FB25AF0FC";
shapes = (
{
closed = 1;
nodes = (
(122.59,0,l),
(122.59,280.071,l),
(102.787,206.517,l),
(186.714,273.47,l),
(357.397,0,l),
(430.951,0,l),
(220.662,337.594,l),
(204.631,287.615,l),
(440.381,471.5,l),
(334.765,471.5,l),
(109.388,296.102,l),
(122.59,283.843,l),
(122.59,660.1,l),
(56.58,660.1,l),
(56.58,0,l)
);
}
);
width = 454.526;
},
{
anchors = (
{
name = bottom;
pos = (265.926,0);
},
{
name = top;
pos = (265.926,471.5);
}
);
hints = (
{
horizontal = 1;
place = (0,660.1);
type = Stem;
},
{
place = (66.953,129.191);
type = Stem;
}
);
layerId = "3B5F2A21-9AC0-43BD-916B-7DC2040966BF";
shapes = (
{
closed = 1;
nodes = (
(185.771,0,l),
(185.771,264.04,l),
(155.595,174.455,l),
(237.636,240.465,l),
(388.516,0,l),
(528.08,0,l),
(305.532,355.511,l),
(304.589,293.273,l),
(533.738,471.5,l),
(329.107,471.5,l),
(171.626,351.739,l),
(185.771,335.708,l),
(185.771,660.1,l),
(56.58,660.1,l),
(56.58,0,l)
);
}
);
width = 547.883;
},
{
anchors = (
{
name = bottom;
pos = (190.486,0);
},
{
name = top;
pos = (190.486,471.5);
}
);
hints = (
{
horizontal = 1;
place = (0,660.1);
type = Stem;
},
{
place = (74.497,23.575);
type = Stem;
}
);
layerId = "2AB56609-6B3E-483D-8034-BAE7113127E2";
shapes = (
{
closed = 1;
nodes = (
(80.155,0,l),
(80.155,290.444,l),
(67.896,228.206,l),
(152.766,295.159,l),
(336.651,0,l),
(365.884,0,l),
(164.082,325.335,l),
(137.678,283.843,l),
(378.143,471.5,l),
(338.537,471.5,l),
(67.896,259.325,l),
(80.155,248.952,l),
(80.155,660.1,l),
(56.58,660.1,l),
(56.58,0,l)
);
}
);
width = 392.288;
},
{
anchors = (
{
name = bottom;
pos = (273.47,0);
},
{
name = top;
pos = (273.47,471.5);
}
);
hints = (
{
horizontal = 1;
place = (0,660.1);
type = Stem;
},
{
place = (66.01,139.564);
type = Stem;
}
);
layerId = "1DB3F64C-B148-42AA-8299-ED68ABA9E6AC";
shapes = (
{
closed = 1;
nodes = (
(196.144,0,l),
(196.144,261.211,l),
(164.082,168.797,l),
(246.123,234.807,l),
(394.174,0,l),
(544.111,0,l),
(319.677,358.34,l),
(321.563,294.216,l),
(549.769,471.5,l),
(328.164,471.5,l),
(181.999,361.169,l),
(196.144,344.195,l),
(196.144,660.1,l),
(56.58,660.1,l),
(56.58,0,l)
);
}
);
width = 563.4425;
}
);
note = k;
unicode = 107;
},
{
glyphname = kgreenlandic;
kernLeft = b;
kernRight = k;
lastChange = "2023-10-27 12:49:24 +0000";
layers = (
{
anchors = (
{
name = bottom;
pos = (234.807,0);
},
{
name = top;
pos = (234.807,471.5);
}
);
hints = (
{
horizontal = 1;
place = (0,660.1);
type = Stem;
},
{
place = (71.668,66.01);
type = Stem;
}
);
layerId = "1041D826-7B5A-4F1A-81FD-3B5FB25AF0FC";
shapes = (
{
closed = 1;
nodes = (
(136.735,0,l),
(136.735,280.071,l),
(116.932,206.517,l),
(200.859,273.47,l),
(371.542,0,l),
(445.096,0,l),
(234.807,337.594,l),
(218.776,287.615,l),
(454.526,471.5,l),
(348.91,471.5,l),
(123.533,296.102,l),
(136.735,283.843,l),
(136.735,471.5,l),
(70.725,471.5,l),
(70.725,0,l)
);
}
);
width = 469.614;
},
{
anchors = (
{
name = bottom;
pos = (280.071,0);
},
{
name = top;
pos = (280.071,471.5);
}
);
hints = (
{
horizontal = 1;
place = (0,660.1);
type = Stem;
},
{
place = (66.953,129.191);
type = Stem;
}
);
layerId = "3B5F2A21-9AC0-43BD-916B-7DC2040966BF";
shapes = (
{
closed = 1;
nodes = (
(199.916,0,l),
(199.916,264.04,l),
(169.74,174.455,l),
(251.781,240.465,l),
(402.661,0,l),
(542.225,0,l),
(319.677,355.511,l),
(318.734,293.273,l),
(545.054,471.5,l),
(340.423,471.5,l),
(185.771,351.739,l),
(199.916,335.708,l),
(199.916,471.5,l),
(70.725,471.5,l),
(70.725,0,l)
);
}
);
width = 561.085;
},
{
anchors = (
{
name = bottom;
pos = (204.631,0);
},
{
name = top;
pos = (204.631,471.5);
}
);
hints = (
{
horizontal = 1;
place = (0,660.1);
type = Stem;
},
{
place = (74.497,23.575);
type = Stem;
}
);
layerId = "2AB56609-6B3E-483D-8034-BAE7113127E2";
shapes = (
{
closed = 1;
nodes = (
(94.3,0,l),
(94.3,290.444,l),
(82.041,228.206,l),
(166.911,295.159,l),
(350.796,0,l),
(380.029,0,l),
(178.227,325.335,l),
(151.823,283.843,l),
(394.174,471.5,l),
(354.568,471.5,l),
(82.041,259.325,l),
(94.3,248.952,l),
(94.3,471.5,l),
(70.725,471.5,l),
(70.725,0,l)
);
}
);
width = 408.63333;
},
{
anchors = (
{
name = bottom;
pos = (287.615,0);
},
{
name = top;
pos = (287.615,471.5);
}
);
hints = (
{
horizontal = 1;
place = (0,660.1);
type = Stem;
},
{
place = (66.01,139.564);
type = Stem;
}
);
layerId = "1DB3F64C-B148-42AA-8299-ED68ABA9E6AC";
shapes = (
{
closed = 1;
nodes = (
(210.289,0,l),
(210.289,261.211,l),
(178.227,168.797,l),
(260.268,234.807,l),
(408.319,0,l),
(558.256,0,l),
(333.822,358.34,l),
(335.708,294.216,l),
(560.142,471.5,l),
(339.48,471.5,l),
(196.144,361.169,l),
(210.289,344.195,l),
(210.289,471.5,l),
(70.725,471.5,l),
(70.725,0,l)
);
}
);
width = 576.33017;
}
);
unicode = 312;
},
{
glyphname = l;
kernLeft = b;
kernRight = l;
lastChange = "2023-10-27 12:49:24 +0000";
layers = (
{
anchors = (
{
name = bottom;
pos = (90.528,0);
},
{
name = top;
pos = (90.528,660.1);
}
);
hints = (
{
horizontal = 1;
place = (0,660.1);
type = Stem;
},
{
place = (71.668,66.01);
type = Stem;
}
);
layerId = "1041D826-7B5A-4F1A-81FD-3B5FB25AF0FC";
shapes = (
{
closed = 1;
nodes = (
(122.59,0,l),
(122.59,660.1,l),
(56.58,660.1,l),
(56.58,0,l)
);
}
);
width = 179.17;
},
{
anchors = (
{
name = bottom;
pos = (120.704,0);
},
{
name = top;
pos = (113.16,660.1);
}
);
hints = (
{
horizontal = 1;
place = (0,660.1);
type = Stem;
},
{
place = (49.036,129.191);
type = Stem;
}
);
layerId = "3B5F2A21-9AC0-43BD-916B-7DC2040966BF";
shapes = (
{
closed = 1;
nodes = (
(185.771,0,l),
(185.771,660.1,l),
(56.58,660.1,l),
(56.58,0,l)
);
}
);
width = 242.351;
},
{
anchors = (
{
name = bottom;
pos = (70.725,0);
},
{
name = top;
pos = (75.44,660.1);
}
);
hints = (
{
horizontal = 1;
place = (0,660.1);
type = Stem;
},
{
place = (86.756,23.575);
type = Stem;
}
);
layerId = "2AB56609-6B3E-483D-8034-BAE7113127E2";
shapes = (
{
closed = 1;
nodes = (
(80.155,0,l),
(80.155,660.1,l),
(56.58,660.1,l),
(56.58,0,l)
);
}
);
width = 137.04933;
},
{
anchors = (
{
name = bottom;
pos = (125.419,0);
},
{
name = top;
pos = (116.932,660.1);
}
);
hints = (
{
horizontal = 1;
place = (0,660.1);
type = Stem;
},
{
place = (45.264,139.564);
type = Stem;
}
);
layerId = "1DB3F64C-B148-42AA-8299-ED68ABA9E6AC";
shapes = (
{
closed = 1;
nodes = (
(196.144,0,l),
(196.144,660.1,l),
(56.58,660.1,l),
(56.58,0,l)
);
}
);
width = 252.88117;
}
);
note = l;
unicode = 108;
},
{
glyphname = lslash;
kernLeft = lslash;
lastChange = "2023-10-27 12:49:24 +0000";
layers = (
{
hints = (
{
horizontal = 1;
place = (0,660.1);
type = Stem;
},
{
place = (128.248,66.01);
type = Stem;
}
);
layerId = "1041D826-7B5A-4F1A-81FD-3B5FB25AF0FC";
shapes = (
{
closed = 1;
nodes = (
(194.258,0,l),
(194.258,330.993,l),
(306.475,381.915,l),
(279.128,437.552,l),
(194.258,398.889,l),
(194.258,660.1,l),
(128.248,660.1,l),
(128.248,368.713,l),
(31.119,324.392,l),
(58.466,269.698,l),
(128.248,301.76,l),
(128.248,0,l)
);
}
);
width = 334.765;
},
{
hints = (
{
horizontal = 1;
place = (0,660.1);
type = Stem;
},
{
place = (105.616,130.134);
type = Stem;
}
);
layerId = "3B5F2A21-9AC0-43BD-916B-7DC2040966BF";
shapes = (
{
closed = 1;
nodes = (
(235.75,0,l),
(235.75,338.537,l),
(330.05,381.915,l),
(286.672,472.443,l),
(235.75,448.868,l),
(235.75,660.1,l),
(105.616,660.1,l),
(105.616,388.516,l),
(17.917,347.967,l),
(61.295,257.439,l),
(105.616,278.185,l),
(105.616,0,l)
);
}
);
width = 334.765;
},
{
hints = (
{
horizontal = 1;
place = (0,660.1);
type = Stem;
},
{
place = (143.336,23.575);
type = Stem;
}
);
layerId = "2AB56609-6B3E-483D-8034-BAE7113127E2";
shapes = (
{
closed = 1;
nodes = (
(166.911,0,l),
(166.911,326.278,l),
(290.444,381.915,l),
(274.413,413.977,l),
(166.911,365.884,l),
(166.911,660.1,l),
(143.336,660.1,l),
(143.336,355.511,l),
(39.606,308.361,l),
(56.58,278.185,l),
(143.336,317.791,l),
(143.336,0,l)
);
}
);
width = 334.765;
},
{
hints = (
{
horizontal = 1;
place = (0,660.1);
type = Stem;
},
{
place = (101.844,140.507);
type = Stem;
}
);
layerId = "1DB3F64C-B148-42AA-8299-ED68ABA9E6AC";
shapes = (
{
closed = 1;
nodes = (
(242.351,0,l),
(242.351,339.48,l),
(333.822,381.915,l),
(287.615,478.101,l),
(242.351,457.355,l),
(242.351,660.1,l),
(101.844,660.1,l),
(101.844,392.288,l),
(16.031,351.739,l),
(62.238,255.553,l),
(101.844,274.413,l),
(101.844,0,l)
);
}
);
width = 334.765;
}
);
note = lslash;
unicode = 322;
},
{
glyphname = m;
kernLeft = m;
kernRight = h;
lastChange = "2023-10-27 12:49:24 +0000";
layers = (
{
anchors = (
{
name = bottom;
pos = (411.148,0);
},
{
name = top;
pos = (411.148,471.5);
}
);
hints = (
{
horizontal = 1;
place = (424.35,59.409);
type = Stem;
},
{
place = (71.668,66.01);
type = Stem;
},
{
place = (385.687,66.01);
type = Stem;
},
{
place = (701.592,66.01);
type = Stem;
}
);
layerId = "1041D826-7B5A-4F1A-81FD-3B5FB25AF0FC";
shapes = (
{
closed = 1;
nodes = (
(113.16,0,l),
(113.16,299.874,l),
(122.59,354.568,o),
(180.113,416.806,o),
(255.553,416.806,cs),
(338.537,416.806,o),
(382.858,373.428,o),
(382.858,276.299,cs),
(382.858,0,l),
(448.868,0,l),
(448.868,277.242,ls),
(448.868,412.091,o),
(387.573,477.158,o),
(264.983,477.158,cs),
(190.486,477.158,o),
(132.02,423.407,o),
(113.16,373.428,c),
(113.16,471.5,l),
(47.15,471.5,l),
(47.15,0,l)
);
},
{
closed = 1;
nodes = (
(448.868,0,l),
(448.868,299.874,l),
(458.298,354.568,o),
(515.821,416.806,o),
(591.261,416.806,cs),
(674.245,416.806,o),
(718.566,373.428,o),
(718.566,276.299,cs),
(718.566,0,l),
(784.576,0,l),
(784.576,277.242,ls),
(784.576,412.091,o),
(723.281,477.158,o),
(600.691,477.158,cs),
(479.044,477.158,o),
(429.065,361.169,o),
(429.065,304.589,cs),
(429.065,0,l)
);
}
);
width = 831.726;
},
{
anchors = (
{
name = bottom;
pos = (424.35,0);
},
{
name = top;
pos = (424.35,471.5);
}
);
hints = (
{
horizontal = 1;
place = (363.055,113.16);
type = Stem;
},
{
place = (73.554,129.191);
type = Stem;
},
{
place = (370.599,129.191);
type = Stem;
},
{
place = (672.359,129.191);
type = Stem;
},
{
horizontal = 1;
place = (363.055,117.875);
type = Stem;
}
);
layerId = "3B5F2A21-9AC0-43BD-916B-7DC2040966BF";
shapes = (
{
closed = 1;
nodes = (
(176.341,0,l),
(176.341,300.817,l),
(195.201,339.48,o),
(240.465,357.397,o),
(275.356,357.397,cs),
(333.822,357.397,o),
(364.941,327.221,o),
(364.941,265.926,cs),
(364.941,0,l),
(494.132,0,l),
(494.132,265.926,ls),
(494.132,380.029,o),
(448.868,477.158,o),
(298.931,477.158,cs),
(242.351,477.158,o),
(195.201,448.868,o),
(176.341,411.148,c),
(176.341,471.5,l),
(47.15,471.5,l),
(47.15,0,l)
);
},
{
closed = 1;
nodes = (
(494.132,0,l),
(494.132,300.817,l),
(512.992,339.48,o),
(558.256,357.397,o),
(593.147,357.397,cs),
(651.613,357.397,o),
(682.732,327.221,o),
(682.732,265.926,cs),
(682.732,0,l),
(811.923,0,l),
(811.923,265.926,ls),
(811.923,380.029,o),
(766.659,477.158,o),
(616.722,477.158,cs),
(496.018,477.158,o),
(458.298,353.625,o),
(459.241,301.76,cs),
(462.07,0,l)
);
}
);
width = 859.073;
},
{
anchors = (
{
name = bottom;
pos = (402.661,0);
},
{
name = top;
pos = (402.661,471.5);
}
);
hints = (
{
horizontal = 1;
place = (464.899,20.746);
type = Stem;
},
{
place = (-127.305,23.575);
type = Stem;
},
{
place = (194.258,23.575);
type = Stem;
},
{
place = (926.969,34.891);
type = Stem;
}
);
layerId = "2AB56609-6B3E-483D-8034-BAE7113127E2";
shapes = (
{
closed = 1;
nodes = (
(70.725,0,l),
(70.725,298.931,l),
(74.497,364.941,o),
(139.564,456.412,o),
(242.351,456.412,cs),
(341.366,456.412,o),
(395.117,404.547,o),
(395.117,282.9,cs),
(395.117,0,l),
(418.692,0,l),
(418.692,284.786,ls),
(418.692,433.78,o),
(347.024,477.158,o),
(242.351,477.158,cs),
(155.595,477.158,o),
(89.585,406.433,o),
(70.725,347.967,c),
(70.725,471.5,l),
(47.15,471.5,l),
(47.15,0,l)
);
},
{
closed = 1;
nodes = (
(418.692,0,l),
(418.692,298.931,l),
(421.521,364.941,o),
(487.531,456.412,o),
(590.318,456.412,cs),
(689.333,456.412,o),
(742.141,404.547,o),
(742.141,282.9,cs),
(742.141,0,l),
(766.659,0,l),
(766.659,284.786,ls),
(766.659,433.78,o),
(694.048,477.158,o),
(590.318,477.158,cs),
(467.728,477.158,o),
(409.262,365.884,o),
(409.262,306.475,cs),
(407.376,0,l)
);
}
);
width = 813.49467;
},
{
anchors = (
{
name = bottom;
pos = (426.236,0);
},
{
name = top;
pos = (426.236,471.5);
}
);
hints = (
{
horizontal = 1;
place = (352.682,127.305);
type = Stem;
},
{
place = (420.578,139.564);
type = Stem;
},
{
place = (720.452,139.564);
type = Stem;
},
{
place = (306.475,120.704);
type = Stem;
}
);
layerId = "1DB3F64C-B148-42AA-8299-ED68ABA9E6AC";
shapes = (
{
closed = 1;
nodes = (
(186.714,0,l),
(186.714,300.817,l),
(207.46,336.651,o),
(250.838,347.967,o),
(279.128,347.967,cs),
(332.879,347.967,o),
(362.112,319.677,o),
(362.112,264.04,cs),
(362.112,0,l),
(501.676,0,l),
(501.676,264.04,ls),
(501.676,374.371,o),
(459.241,477.158,o),
(304.589,477.158,cs),
(250.838,477.158,o),
(205.574,453.583,o),
(186.714,417.749,c),
(186.714,471.5,l),
(47.15,471.5,l),
(47.15,0,l)
);
},
{
closed = 1;
nodes = (
(501.676,0,l),
(501.676,300.817,l),
(522.422,336.651,o),
(565.8,347.967,o),
(593.147,347.967,cs),
(647.841,347.967,o),
(677.074,319.677,o),
(677.074,264.04,cs),
(677.074,0,l),
(816.638,0,l),
(816.638,264.04,ls),
(816.638,374.371,o),
(774.203,477.158,o),
(619.551,477.158,cs),
(498.847,477.158,o),
(463.013,352.682,o),
(463.956,301.76,cs),
(467.728,0,l)
);
}
);
width = 863.63083;
}
);
note = m;
unicode = 109;
},
{
glyphname = n;
kernLeft = m;
kernRight = h;
lastChange = "2023-10-27 12:49:24 +0000";
layers = (
{
anchors = (
{
name = bottom;
pos = (243.294,0);
},
{
name = top;
pos = (243.294,471.5);
}
);
hints = (
{
horizontal = 1;
place = (424.35,59.409);
type = Stem;
},
{
place = (71.668,66.01);
type = Stem;
},
{
place = (407.376,66.01);
type = Stem;
}
);
layerId = "1041D826-7B5A-4F1A-81FD-3B5FB25AF0FC";
shapes = (
{
closed = 1;
nodes = (
(113.16,0,l),
(113.16,299.874,l),
(122.59,354.568,o),
(180.113,416.806,o),
(255.553,416.806,cs),
(338.537,416.806,o),
(382.858,373.428,o),
(382.858,276.299,cs),
(382.858,0,l),
(448.868,0,l),
(448.868,277.242,ls),
(448.868,412.091,o),
(387.573,477.158,o),
(264.983,477.158,cs),
(190.486,477.158,o),
(132.02,423.407,o),
(113.16,373.428,c),
(113.16,471.5,l),
(47.15,471.5,l),
(47.15,0,l)
);
}
);
width = 496.018;
},
{
anchors = (
{
name = bottom;
pos = (265.926,0);
},
{
name = top;
pos = (265.926,471.5);
}
);
hints = (
{
horizontal = 1;
place = (363.055,118.818);
type = Stem;
},
{
place = (53.751,129.191);
type = Stem;
},
{
place = (352.682,129.191);
type = Stem;
}
);
layerId = "3B5F2A21-9AC0-43BD-916B-7DC2040966BF";
shapes = (
{
closed = 1;
nodes = (
(176.341,0,l),
(176.341,300.817,l),
(195.201,339.48,o),
(240.465,357.397,o),
(275.356,357.397,cs),
(333.822,357.397,o),
(364.941,327.221,o),
(364.941,265.926,cs),
(364.941,0,l),
(494.132,0,l),
(494.132,265.926,ls),
(494.132,380.029,o),
(448.868,477.158,o),
(298.931,477.158,cs),
(242.351,477.158,o),
(195.201,448.868,o),
(176.341,411.148,c),
(176.341,471.5,l),
(47.15,471.5,l),
(47.15,0,l)
);
}
);
width = 541.282;
},
{
anchors = (
{
name = bottom;
pos = (228.206,0);
},
{
name = top;
pos = (228.206,471.5);
}
);
hints = (
{
horizontal = 1;
place = (464.899,19.803);
type = Stem;
},
{
place = (83.927,23.575);
type = Stem;
},
{
place = (444.153,23.575);
type = Stem;
}
);
layerId = "2AB56609-6B3E-483D-8034-BAE7113127E2";
shapes = (
{
closed = 1;
nodes = (
(70.725,0,l),
(70.725,298.931,l),
(74.497,364.941,o),
(139.564,456.412,o),
(242.351,456.412,cs),
(341.366,456.412,o),
(395.117,404.547,o),
(395.117,282.9,cs),
(395.117,0,l),
(418.692,0,l),
(418.692,284.786,ls),
(418.692,433.78,o),
(347.024,477.158,o),
(242.351,477.158,cs),
(155.595,477.158,o),
(89.585,406.433,o),
(70.725,347.967,c),
(70.725,471.5,l),
(47.15,471.5,l),
(47.15,0,l)
);
}
);
width = 465.842;
},
{
anchors = (
{
name = bottom;
pos = (269.698,0);
},
{
name = top;
pos = (269.698,471.5);
}
);
hints = (
{
horizontal = 1;
place = (352.682,129.191);
type = Stem;
},
{
place = (50.922,139.564);
type = Stem;
},
{
place = (343.252,139.564);
type = Stem;
}
);
layerId = "1DB3F64C-B148-42AA-8299-ED68ABA9E6AC";
shapes = (
{
closed = 1;
nodes = (
(186.714,0,l),
(186.714,300.817,l),
(207.46,336.651,o),
(250.838,347.967,o),
(279.128,347.967,cs),
(332.879,347.967,o),
(362.112,319.677,o),
(362.112,264.04,cs),
(362.112,0,l),
(501.676,0,l),
(501.676,264.04,ls),
(501.676,374.371,o),
(459.241,477.158,o),
(304.589,477.158,cs),
(250.838,477.158,o),
(205.574,453.583,o),
(186.714,417.749,c),
(186.714,471.5,l),
(47.15,471.5,l),
(47.15,0,l)
);
}
);
width = 548.826;
}
);
note = n;
unicode = 110;
},
{
glyphname = nhookleft;
kernLeft = m;
kernRight = h;
lastChange = "2023-10-27 12:49:24 +0000";
layers = (
{
layerId = "1041D826-7B5A-4F1A-81FD-3B5FB25AF0FC";
shapes = (
{
closed = 1;
nodes = (
(47.15,0,l),
(47.15,-90.528,ls),
(47.15,-122.59,o),
(33.948,-132.02,o),
(18.86,-132.02,cs),
(-4.715,-132.02,o),
(-28.29,-122.59,o),
(-52.808,-101.844,c),
(-52.808,-159.367,l),
(-39.606,-172.569,o),
(-12.259,-191.429,o),
(28.29,-191.429,cs),
(89.585,-191.429,o),
(113.16,-140.507,o),
(113.16,-80.155,cs),
(113.16,0,l)
);
},
{
ref = n;
}
);
width = 486.588;
},
{
layerId = "3B5F2A21-9AC0-43BD-916B-7DC2040966BF";
shapes = (
{
closed = 1;
nodes = (
(47.15,0,l),
(47.15,-33.005,ls),
(47.15,-65.067,o),
(36.777,-71.668,o),
(21.689,-71.668,cs),
(0.943,-71.668,o),
(-28.29,-62.238,o),
(-52.808,-42.435,c),
(-52.808,-159.367,l),
(-29.233,-174.455,o),
(-5.658,-191.429,o),
(45.264,-191.429,cs),
(122.59,-191.429,o),
(176.341,-149.937,o),
(176.341,-33.005,cs),
(176.341,0,l)
);
},
{
ref = n;
}
);
width = 531.852;
},
{
layerId = "2AB56609-6B3E-483D-8034-BAE7113127E2";
shapes = (
{
closed = 1;
nodes = (
(47.15,0,l),
(47.15,-129.191,ls),
(47.15,-161.253,o),
(32.062,-172.569,o),
(16.974,-172.569,cs),
(-8.487,-172.569,o),
(-28.29,-163.139,o),
(-52.808,-141.45,c),
(-52.808,-159.367,l),
(-46.207,-171.626,o),
(-16.974,-191.429,o),
(16.974,-191.429,cs),
(67.896,-191.429,o),
(70.725,-133.906,o),
(70.725,-111.274,cs),
(70.725,0,l)
);
},
{
alignment = -1;
ref = n;
}
);
width = 456.412;
},
{
layerId = "1DB3F64C-B148-42AA-8299-ED68ABA9E6AC";
shapes = (
{
closed = 1;
nodes = (
(47.15,0,l),
(47.15,-23.575,ls),
(47.15,-55.637,o),
(37.72,-61.295,o),
(22.632,-61.295,cs),
(1.886,-61.295,o),
(-28.29,-51.865,o),
(-52.808,-32.062,c),
(-52.808,-159.367,l),
(-27.347,-174.455,o),
(-4.715,-191.429,o),
(48.093,-191.429,cs),
(128.248,-191.429,o),
(186.714,-151.823,o),
(186.714,-25.461,cs),
(186.714,0,l)
);
},
{
alignment = -1;
ref = n;
}
);
width = 539.396;
}
);
unicode = 626;
},
{
glyphname = eng;
kernLeft = m;
kernRight = h;
lastChange = "2023-10-27 12:49:24 +0000";
layers = (
{
layerId = "1041D826-7B5A-4F1A-81FD-3B5FB25AF0FC";
shapes = (
{
closed = 1;
nodes = (
(382.858,0,l),
(382.858,-90.528,ls),
(382.858,-122.59,o),
(369.656,-132.02,o),
(354.568,-132.02,cs),
(330.993,-132.02,o),
(307.418,-122.59,o),
(282.9,-101.844,c),
(282.9,-159.367,l),
(296.102,-172.569,o),
(323.449,-191.429,o),
(363.998,-191.429,cs),
(425.293,-191.429,o),
(448.868,-140.507,o),
(448.868,-80.155,cs),
(448.868,0,l)
);
},
{
ref = n;
}
);
width = 486.588;
},
{
layerId = "3B5F2A21-9AC0-43BD-916B-7DC2040966BF";
shapes = (
{
closed = 1;
nodes = (
(364.941,0,l),
(364.941,-33.005,ls),
(364.941,-65.067,o),
(354.568,-71.668,o),
(339.48,-71.668,cs),
(318.734,-71.668,o),
(289.501,-62.238,o),
(264.983,-42.435,c),
(264.983,-159.367,l),
(288.558,-174.455,o),
(312.133,-191.429,o),
(363.055,-191.429,cs),
(440.381,-191.429,o),
(494.132,-149.937,o),
(494.132,-33.005,cs),
(494.132,0,l)
);
},
{
ref = n;
}
);
width = 531.852;
},
{
layerId = "2AB56609-6B3E-483D-8034-BAE7113127E2";
shapes = (
{
closed = 1;
nodes = (
(395.117,0,l),
(395.117,-129.191,ls),
(395.117,-161.253,o),
(380.029,-172.569,o),
(364.941,-172.569,cs),
(339.48,-172.569,o),
(319.677,-163.139,o),
(295.159,-141.45,c),
(295.159,-159.367,l),
(300.817,-171.626,o),
(330.993,-191.429,o),
(364.941,-191.429,cs),
(414.92,-191.429,o),
(418.692,-133.906,o),
(418.692,-111.274,cs),
(418.692,0,l)
);
},
{
alignment = -1;
ref = n;
}
);
width = 456.412;
},
{
layerId = "1DB3F64C-B148-42AA-8299-ED68ABA9E6AC";
shapes = (
{
closed = 1;
nodes = (
(362.112,0,l),
(362.112,-23.575,ls),
(362.112,-55.637,o),
(351.739,-61.295,o),
(336.651,-61.295,cs),
(316.848,-61.295,o),
(286.672,-51.865,o),
(262.154,-32.062,c),
(262.154,-159.367,l),
(287.615,-174.455,o),
(310.247,-191.429,o),
(363.055,-191.429,cs),
(443.21,-191.429,o),
(501.676,-151.823,o),
(501.676,-25.461,cs),
(501.676,0,l)
);
},
{
alignment = -1;
ref = n;
}
);
width = 539.396;
}
);
unicode = 331;
},
{
glyphname = o;
kernLeft = c;
kernRight = o;
lastChange = "2023-10-27 12:49:24 +0000";
layers = (
{
anchors = (
{
name = bottom;
pos = (276.299,0);
},
{
name = top;
pos = (276.299,471.5);
}
);
hints = (
{
horizontal = 1;
place = (0,60.352);
type = Stem;
},
{
horizontal = 1;
place = (428.122,60.352);
type = Stem;
},
{
place = (34.891,66.01);
type = Stem;
},
{
place = (455.469,66.01);
type = Stem;
}
);
layerId = "1041D826-7B5A-4F1A-81FD-3B5FB25AF0FC";
shapes = (
{
closed = 1;
nodes = (
(411.148,-5.658,o),
(519.593,95.243,o),
(519.593,235.75,cs),
(519.593,377.2,o),
(410.205,477.158,o),
(276.299,477.158,cs),
(143.336,477.158,o),
(33.005,377.2,o),
(33.005,235.75,cs),
(33.005,94.3,o),
(142.393,-5.658,o),
(276.299,-5.658,cs)
);
},
{
closed = 1;
nodes = (
(180.113,54.694,o),
(99.015,126.362,o),
(99.015,235.75,cs),
(99.015,345.138,o),
(181.056,416.806,o),
(276.299,416.806,cs),
(372.485,416.806,o),
(453.583,345.138,o),
(453.583,235.75,cs),
(453.583,127.305,o),
(372.485,54.694,o),
(276.299,54.694,cs)
);
}
);
width = 552.598;
},
{
anchors = (
{
name = bottom;
pos = (278.185,0);
},
{
name = top;
pos = (278.185,471.5);
}
);
hints = (
{
horizontal = 1;
place = (-7.544,120.704);
type = Stem;
},
{
horizontal = 1;
place = (360.226,120.704);
type = Stem;
},
{
place = (33.005,129.191);
type = Stem;
},
{
place = (394.174,129.191);
type = Stem;
}
);
layerId = "3B5F2A21-9AC0-43BD-916B-7DC2040966BF";
shapes = (
{
closed = 1;
nodes = (
(414.92,-5.658,o),
(523.365,96.186,o),
(523.365,235.75,cs),
(523.365,376.257,o),
(413.977,477.158,o),
(278.185,477.158,cs),
(143.336,477.158,o),
(33.005,377.2,o),
(33.005,235.75,cs),
(33.005,95.243,o),
(141.45,-5.658,o),
(278.185,-5.658,cs)
);
},
{
closed = 1;
nodes = (
(215.947,115.046,o),
(162.196,159.367,o),
(162.196,235.75,cs),
(162.196,312.133,o),
(216.89,356.454,o),
(278.185,356.454,cs),
(340.423,356.454,o),
(394.174,312.133,o),
(394.174,235.75,cs),
(394.174,160.31,o),
(340.423,115.046,o),
(278.185,115.046,cs)
);
}
);
width = 556.37;
},
{
anchors = (
{
name = bottom;
pos = (275.356,0);
},
{
name = top;
pos = (275.356,471.5);
}
);
hints = (
{
horizontal = 1;
place = (4.715,19.803);
type = Stem;
},
{
horizontal = 1;
place = (473.386,19.803);
type = Stem;
},
{
place = (35.834,23.575);
type = Stem;
},
{
place = (496.018,23.575);
type = Stem;
}
);
layerId = "2AB56609-6B3E-483D-8034-BAE7113127E2";
shapes = (
{
closed = 1;
nodes = (
(408.319,-5.658,o),
(516.764,94.3,o),
(516.764,235.75,cs),
(516.764,378.143,o),
(407.376,477.158,o),
(275.356,477.158,cs),
(143.336,477.158,o),
(33.005,377.2,o),
(33.005,235.75,cs),
(33.005,93.357,o),
(143.336,-5.658,o),
(275.356,-5.658,cs)
);
},
{
closed = 1;
nodes = (
(156.538,14.145,o),
(56.58,104.673,o),
(56.58,235.75,cs),
(56.58,366.827,o),
(157.481,457.355,o),
(275.356,457.355,cs),
(394.174,457.355,o),
(493.189,366.827,o),
(493.189,235.75,cs),
(493.189,105.616,o),
(394.174,14.145,o),
(275.356,14.145,cs)
);
}
);
width = 550.08333;
},
{
anchors = (
{
name = bottom;
pos = (278.185,0);
},
{
name = top;
pos = (278.185,471.5);
}
);
hints = (
{
horizontal = 1;
place = (-8.487,131.077);
type = Stem;
},
{
horizontal = 1;
place = (348.91,131.077);
type = Stem;
},
{
place = (33.005,139.564);
type = Stem;
},
{
place = (383.801,139.564);
type = Stem;
}
);
layerId = "1DB3F64C-B148-42AA-8299-ED68ABA9E6AC";
shapes = (
{
closed = 1;
nodes = (
(415.863,-5.658,o),
(524.308,96.186,o),
(524.308,235.75,cs),
(524.308,376.257,o),
(414.92,477.158,o),
(278.185,477.158,cs),
(143.336,477.158,o),
(33.005,377.2,o),
(33.005,235.75,cs),
(33.005,95.243,o),
(141.45,-5.658,o),
(278.185,-5.658,cs)
);
},
{
closed = 1;
nodes = (
(221.605,125.419,o),
(172.569,165.025,o),
(172.569,235.75,cs),
(172.569,306.475,o),
(222.548,346.081,o),
(278.185,346.081,cs),
(334.765,346.081,o),
(384.744,306.475,o),
(384.744,235.75,cs),
(384.744,165.968,o),
(334.765,125.419,o),
(278.185,125.419,cs)
);
}
);
width = 556.99867;
}
);
note = o;
unicode = 111;
},
